{
.appVersion = "3201";
copyright = "Copyright 2023 Amir Mahdi Moslehi. All rights reserved. Published by Rosetta Type Foundry.";
customParameters = (
{
name = "Use Typo Metrics";
value = 1;
},
{
name = "Disable Last Change";
value = 1;
},
{
name = "Use Line Breaks";
value = 1;
},
{
name = "Use Extension Kerning";
value = 1;
},
{
name = fsType;
value = (
);
},
{
name = glyphOrder;
value = (
"** Spaces **",
.notdef,
NULL,
CR,
space,
nbspace,
enspace,
emspace,
figurespace,
punctuationspace,
thinspace,
hairspace,
"** Book Pahlavi **",
"alef-ar",
"alef-ar.fina",
"alef-ar.medi",
"alef-ar.init",
"beh-ar",
"beh-ar.fina",
"beh-ar.medi",
"beh-ar.init",
"ain-ar",
"ain-ar.fina",
"ain-ar.medi",
"ain-ar.init",
"heh-ar",
"reh-ar",
"reh-ar.fina",
"dad-ar",
"dad-ar.fina",
"dad-ar.medi",
"dad-ar.init",
"keheh-ar",
"keheh-ar.fina",
"keheh-ar.medi",
"keheh-ar.init",
"lam-ar",
"lam-ar.fina",
"lam-ar.medi",
"lam-ar.init",
"meem-ar",
"meem-ar.fina",
"meem-ar.medi",
"meem-ar.init",
"theh-ar",
"theh-ar.fina",
"theh-ar.medi",
"theh-ar.init",
"peh-ar",
"peh-ar.fina",
"peh-ar.medi",
"peh-ar.init",
"tcheh-ar",
"tcheh-ar.fina",
"tcheh-ar.medi",
"tcheh-ar.init",
"sad-ar",
"sad-ar.fina",
"sad-ar.medi",
"sad-ar.init",
"teh-ar",
"teh-ar.fina",
"teh-ar.medi",
"teh-ar.init",
"jeem-ar",
"jeem-ar.fina",
"jeem-ar.medi",
"jeem-ar.init",
"kaf-ar",
"kaf-ar.fina",
"kaf-ar.medi",
"kaf-ar.init",
"seen-ar",
"seen-ar.fina",
"seen-ar.medi",
"seen-ar.init",
"sheen-ar",
"sheen-ar.fina",
"sheen-ar.medi",
"sheen-ar.init",
"alef_meem-ar",
"alef_meem-ar.fina",
"alef_meem-ar.medi",
"alef_meem-ar.init",
"ain_meem-ar",
"ain_meem-ar.fina",
"ain_meem-ar.medi",
"ain_meem-ar.init",
"dad_meem-ar",
"dad_meem-ar.init",
"dad_peh-ar",
"dad_peh-ar.fina",
"lam_meem-ar",
"lam_meem-ar.init",
"meem_meem-ar",
"meem_meem-ar.init",
"meem_peh-ar",
"meem_peh-ar.fina",
"jeem_theh-ar",
"jeem_theh-ar.fina",
"jeem_theh-ar.medi",
"jeem_theh-ar.init",
"seen_peh-ar",
"seen_peh-ar.fina",
"alef-ar.fina.BR",
"alef-ar.medi.BR",
"alef-ar.medi.LL",

glyphs = (
{
glyphname = .notdef;
layers = (
{
layerId = "10A83A34-2C0B-4EA0-95B7-223E3205B8BF";
paths = (
{
closed = 1;
nodes = (
"64 0 LINE",
"579 0 LINE",
"579 515 LINE",
"64 515 LINE"
);
},
{
closed = 1;
nodes = (
"442 94 LINE",
"321 222 LINE",
"200 94 LINE",
"157 137 LINE",
"285 258 LINE",
"159 381 LINE",
"201 422 LINE",
"322 294 LINE",
"443 422 LINE",
"486 379 LINE",
"358 258 LINE",
"484 135 LINE"
);
}
);
width = 643;
}
);
rightMetricsKey = "=|";
userData = {
com.typemytype.robofont.layerData = {
background = {
anchors = (
);
components = (
);
contours = (
{
points = (
{
segmentType = line;
smooth = 0;
x = 440;
y = 387;
},
{
segmentType = line;
smooth = 0;
x = 783;
y = 705;
},
{
segmentType = line;
smooth = 0;
x = 439;
y = 1043;
},
{
segmentType = line;
smooth = 0;
x = 553;
y = 1159;
},
{
segmentType = line;
smooth = 0;
x = 886;
y = 807;
},
{
segmentType = line;
smooth = 0;
x = 1214;
y = 1158;
},
{
segmentType = line;
smooth = 0;
x = 1333;
y = 1042;
},
{
segmentType = line;
smooth = 0;
x = 985;
y = 708;
},
{
segmentType = line;
smooth = 0;
x = 1333;
y = 365;
},
{
segmentType = line;
smooth = 0;
x = 1220;
y = 252;
},
{
segmentType = line;
smooth = 0;
x = 883;
y = 605;
},
{
segmentType = line;
smooth = 0;
x = 559;
y = 252;
}
);
},
{
points = (
{
segmentType = line;
smooth = 0;
x = 177;
y = 0;
},
{
segmentType = line;
smooth = 0;
x = 1593;
y = 0;
},
{
segmentType = line;
smooth = 0;
x = 1593;
y = 1416;
},
{
segmentType = line;
smooth = 0;
x = 177;
y = 1416;
}
);
}
);
lib = {
};
name = .notdef;
unicodes = (
);
width = 1770;
};
};
};
},
{
glyphname = "alef-ar";
layers = (
{
background = {
paths = (
{
closed = 1;
nodes = (
"168 39 OFFCURVE",
"179 78 OFFCURVE",
"181 117 CURVE",
"144 117 OFFCURVE",
"115 124 OFFCURVE",
"98 137 CURVE",
"50 43 LINE",
"58 15 OFFCURVE",
"91 0 OFFCURVE",
"146 0 CURVE"
);
},
{
closed = 1;
nodes = (
"278 87 LINE",
"300 25 OFFCURVE",
"350 0 OFFCURVE",
"406 0 CURVE",
"438 39 OFFCURVE",
"449 78 OFFCURVE",
"441 117 CURVE",
"383 117 OFFCURVE",
"343 129 OFFCURVE",
"325 158 CURVE"
);
},
{
closed = 1;
nodes = (
"149 78 OFFCURVE",
"146 29 OFFCURVE",
"146 0 CURVE",
"287 0 OFFCURVE",
"373 142 OFFCURVE",
"373 245 CURVE SMOOTH",
"373 297 OFFCURVE",
"353 348 OFFCURVE",
"325 416 CURVE",
"313 416 LINE",
"265 323 LINE",
"288 277 OFFCURVE",
"324 189 OFFCURVE",
"314 150 CURVE",
"280 129 OFFCURVE",
"225 117 OFFCURVE",
"181 117 CURVE"
);
},
{
closed = 1;
nodes = (
"408 78 OFFCURVE",
"405 29 OFFCURVE",
"405 0 CURVE",
"546 0 OFFCURVE",
"632 142 OFFCURVE",
"632 245 CURVE SMOOTH",
"632 297 OFFCURVE",
"612 348 OFFCURVE",
"584 416 CURVE",
"572 416 LINE",
"524 323 LINE",
"547 277 OFFCURVE",
"583 189 OFFCURVE",
"573 150 CURVE",
"539 129 OFFCURVE",
"484 117 OFFCURVE",
"440 117 CURVE"
);
},
{
closed = 1;
nodes = (
"0 -495 LINE",
"0 818 LINE",
"682 818 LINE",
"682 -495 LINE"
);
}
);
};
components = (
{
alignment = -1;
name = _part.phlv.right.connector;
transform = "{1, 0, 0, 1, -47, 0}";
},
{
alignment = -1;
name = _part.phlv.part.phlv.keheh_ending;
transform = "{1, 0, 0, 1, 2, 0}";
},
{
alignment = -1;
name = "ain-ar.init.BL";
transform = "{1, 0, 0, 1, 146, 0}";
},
{
alignment = -1;
name = "ain-ar.init.BL";
transform = "{1, 0, 0, 1, 405, 0}";
}
);
layerId = "10A83A34-2C0B-4EA0-95B7-223E3205B8BF";
width = 682;
}
);
unicode = 0627;
},
{
glyphname = "alef-ar.fina";
layers = (
{
anchors = (
{
name = "#entry";
position = "{278, 0}";
},
{
name = "#exit";
position = "{146, 0}";
}
);
background = {
paths = (
{
closed = 1;
nodes = (
"168 39 OFFCURVE",
"179 78 OFFCURVE",
"181 117 CURVE",
"144 117 OFFCURVE",
"115 124 OFFCURVE",
"98 137 CURVE",
"50 43 LINE",
"58 15 OFFCURVE",
"91 0 OFFCURVE",
"146 0 CURVE"
);
},
{
closed = 1;
nodes = (
"278 87 LINE",
"300 25 OFFCURVE",
"350 0 OFFCURVE",
"406 0 CURVE",
"438 39 OFFCURVE",
"449 78 OFFCURVE",
"441 117 CURVE",
"383 117 OFFCURVE",
"343 129 OFFCURVE",
"325 158 CURVE"
);
},
{
closed = 1;
nodes = (
"149 78 OFFCURVE",
"146 29 OFFCURVE",
"146 0 CURVE",
"287 0 OFFCURVE",
"373 142 OFFCURVE",
"373 245 CURVE SMOOTH",
"373 297 OFFCURVE",
"353 348 OFFCURVE",
"325 416 CURVE",
"313 416 LINE",
"265 323 LINE",
"288 277 OFFCURVE",
"324 189 OFFCURVE",
"314 150 CURVE",
"280 129 OFFCURVE",
"225 117 OFFCURVE",
"181 117 CURVE"
);
},
{
closed = 1;
nodes = (
"803 -192 OFFCURVE",
"814 -153 OFFCURVE",
"806 -114 CURVE",
"663 -114 OFFCURVE",
"600 -56 OFFCURVE",
"600 41 CURVE SMOOTH",
"600 126 OFFCURVE",
"632 192 OFFCURVE",
"682 283 CURVE",
"653 292 LINE",
"589 193 OFFCURVE",
"539 87 OFFCURVE",
"539 -13 CURVE SMOOTH",
"539 -136 OFFCURVE",
"605 -231 OFFCURVE",
"771 -231 CURVE"
);
},
{
closed = 1;
nodes = (
"405 0 LINE",
"481 0 OFFCURVE",
"561 39 OFFCURVE",
"617 162 CURVE",
"614 176 LINE",
"556 128 OFFCURVE",
"484 117 OFFCURVE",
"440 117 CURVE"
);
},
{
closed = 1;
nodes = (
"0 -495 LINE",
"0 818 LINE",
"771 818 LINE",
"771 -495 LINE"
);
}
);
};
components = (
{
alignment = -1;
name = _part.phlv.belly.teeth;
transform = "{1, 0, 0, 1, 405, 0}";
},
{
alignment = -1;
name = _part.phlv.right.connector;
transform = "{1, 0, 0, 1, -47, 0}";
},
{
alignment = -1;
name = _part.phlv.part.phlv.keheh_ending;
transform = "{1, 0, 0, 1, 2, 0}";
},
{
alignment = -1;
name = "ain-ar.init.BL";
transform = "{1, 0, 0, 1, 146, 0}";
}
);
layerId = "10A83A34-2C0B-4EA0-95B7-223E3205B8BF";
width = 771;
}
);
},
{
glyphname = "alef-ar.medi";
layers = (
{
anchors = (
{
name = "#entry";
position = "{625, 0}";
}
);
background = {
paths = (
{
closed = 1;
nodes = (
"132 87 LINE",
"154 25 OFFCURVE",
"204 0 OFFCURVE",
"260 0 CURVE",
"292 39 OFFCURVE",
"303 78 OFFCURVE",
"295 117 CURVE",
"237 117 OFFCURVE",
"197 129 OFFCURVE",
"179 158 CURVE"
);
},
{
closed = 1;
nodes = (
"3 78 OFFCURVE",
"0 29 OFFCURVE",
"0 0 CURVE",
"141 0 OFFCURVE",
"227 142 OFFCURVE",
"227 245 CURVE SMOOTH",
"227 297 OFFCURVE",
"207 348 OFFCURVE",
"179 416 CURVE",
"167 416 LINE",
"119 323 LINE",
"142 277 OFFCURVE",
"178 189 OFFCURVE",
"168 150 CURVE",
"134 129 OFFCURVE",
"79 117 OFFCURVE",
"35 117 CURVE"
);
},
{
closed = 1;
nodes = (
"657 -192 OFFCURVE",
"668 -153 OFFCURVE",
"660 -114 CURVE",
"517 -114 OFFCURVE",
"454 -56 OFFCURVE",
"454 41 CURVE SMOOTH",
"454 126 OFFCURVE",
"486 192 OFFCURVE",
"536 283 CURVE",
"507 292 LINE",
"443 193 OFFCURVE",
"393 87 OFFCURVE",
"393 -13 CURVE SMOOTH",
"393 -136 OFFCURVE",
"459 -231 OFFCURVE",
"625 -231 CURVE"
);
},
{
closed = 1;
nodes = (
"259 0 LINE",
"335 0 OFFCURVE",
"415 39 OFFCURVE",
"471 162 CURVE",
"468 176 LINE",
"410 128 OFFCURVE",
"338 117 OFFCURVE",
"294 117 CURVE"
);
},
{
closed = 1;
nodes = (
"0 -495 LINE",
"0 818 LINE",
"625 818 LINE",
"625 -495 LINE"
);
}
);
};
components = (
{
alignment = -1;
name = _part.phlv.belly.teeth;
transform = "{1, 0, 0, 1, 259, 0}";
},
{
alignment = -1;
name = _part.phlv.right.connector;
transform = "{1, 0, 0, 1, -193, 0}";
},
{
alignment = -1;
name = "ain-ar.init.BL";
}
);
layerId = "10A83A34-2C0B-4EA0-95B7-223E3205B8BF";
width = 625;
}
);
},
{
glyphname = "alef-ar.init";
layers = (
{
background = {
paths = (
{
closed = 1;
nodes = (
"433 78 OFFCURVE",
"430 29 OFFCURVE",
"430 0 CURVE",
"571 0 OFFCURVE",
"657 142 OFFCURVE",
"657 245 CURVE SMOOTH",
"657 297 OFFCURVE",
"637 348 OFFCURVE",
"609 416 CURVE",
"597 416 LINE",
"549 323 LINE",
"572 277 OFFCURVE",
"608 189 OFFCURVE",
"598 150 CURVE",
"564 129 OFFCURVE",
"509 117 OFFCURVE",
"465 117 CURVE"
);
},
{
closed = 1;
nodes = (
"293 121 OFFCURVE",
"335 30 OFFCURVE",
"308 -54 CURVE",
"236 -92 OFFCURVE",
"126 -114 OFFCURVE",
"35 -114 CURVE",
"0 -231 LINE",
"154 -231 OFFCURVE",
"277 -175 OFFCURVE",
"324 -96 CURVE SMOOTH",
"357 -41 OFFCURVE",
"368 20 OFFCURVE",
"376 66 CURVE",
"338 51 LINE",
"355 21 OFFCURVE",
"385 0 OFFCURVE",
"430 0 CURVE",
"462 39 OFFCURVE",
"473 78 OFFCURVE",
"465 117 CURVE",
"381 117 OFFCURVE",
"361 181 OFFCURVE",
"324 271 CURVE SMOOTH",
"286 362 LINE",
"274 362 LINE",
"226 269 LINE"
);
},
{
closed = 1;
nodes = (
"0 -495 LINE",
"0 818 LINE",
"687 818 LINE",
"687 -495 LINE"
);
}
);
};
components = (
{
name = _part.phlv.peh.vasl;
},
{
alignment = -1;
name = "ain-ar.init.BL";
transform = "{1, 0, 0, 1, 430, 0}";
}
);
layerId = "10A83A34-2C0B-4EA0-95B7-223E3205B8BF";
width = 707;
}
);
},
{
glyphname = "beh-ar";
layers = (
{
background = {
paths = (
{
closed = 1;
nodes = (
"343 -118 OFFCURVE",
"369 -94 OFFCURVE",
"376 -61 CURVE",
"376 18 OFFCURVE",
"351 122 OFFCURVE",
"325 235 CURVE SMOOTH",
"283 416 LINE",
"271 416 LINE",
"216 307 LINE",
"252 174 LINE SMOOTH",
"295 16 OFFCURVE",
"326 -79 OFFCURVE",
"326 -131 CURVE"
);
},
{
closed = 1;
nodes = (
"66 -378 OFFCURVE",
"231 -357 OFFCURVE",
"313 -251 CURVE SMOOTH",
"330 -229 OFFCURVE",
"342 -206 OFFCURVE",
"354 -178 CURVE SMOOTH",
"367 -148 OFFCURVE",
"376 -111 OFFCURVE",
"376 -61 CURVE",
"326 -131 LINE",
"326 -188 OFFCURVE",
"275 -245 OFFCURVE",
"75 -261 CURVE SMOOTH",
"-182 -281 OFFCURVE",
"-675 -267 OFFCURVE",
"-912 -256 CURVE",
"-950 -331 LINE",
"-803 -363 OFFCURVE",
"-456 -378 OFFCURVE",
"-283 -378 CURVE SMOOTH"
);
},
{
closed = 1;
nodes = (
"150 -495 LINE",
"150 818 LINE",
"426 818 LINE",
"426 -495 LINE"
);
}
);
};
components = (
{
name = _part.phlv.beh.madd;
transform = "{1, 0, 0, 1, 150, -39}";
}
);
layerId = "10A83A34-2C0B-4EA0-95B7-223E3205B8BF";
paths = (
{
closed = 1;
nodes = (
"343 -158 OFFCURVE",
"369 -134 OFFCURVE",
"376 -101 CURVE",
"376 -2 OFFCURVE",
"351 122 OFFCURVE",
"325 235 CURVE SMOOTH",
"283 416 LINE",
"271 416 LINE",
"216 307 LINE",
"252 174 LINE SMOOTH",
"295 16 OFFCURVE",
"326 -99 OFFCURVE",
"326 -171 CURVE"
);
}
);
width = 426;
}
);
unicode = 0628;
},
{
glyphname = "beh-ar.fina";
layers = (
{
background = {
paths = (
{
closed = 1;
nodes = (
"346 -128 OFFCURVE",
"366 -116 OFFCURVE",
"376 -61 CURVE",
"376 -33 OFFCURVE",
"369 4 OFFCURVE",
"358 45 CURVE",
"346 27 LINE",
"361 9 OFFCURVE",
"384 0 OFFCURVE",
"413 0 CURVE",
"445 29 OFFCURVE",
"456 78 OFFCURVE",
"448 117 CURVE",
"364 117 OFFCURVE",
"344 181 OFFCURVE",
"307 271 CURVE SMOOTH",
"269 362 LINE",
"257 362 LINE",
"209 269 LINE",
"276 110 OFFCURVE",
"326 0 OFFCURVE",
"326 -131 CURVE"
);
},
{
closed = 1;
nodes = (
"66 -378 OFFCURVE",
"231 -357 OFFCURVE",
"313 -251 CURVE SMOOTH",
"330 -229 OFFCURVE",
"342 -206 OFFCURVE",
"354 -178 CURVE SMOOTH",
"367 -148 OFFCURVE",
"376 -111 OFFCURVE",
"376 -61 CURVE",
"326 -131 LINE",
"326 -188 OFFCURVE",
"275 -245 OFFCURVE",
"75 -261 CURVE SMOOTH",
"-182 -281 OFFCURVE",
"-675 -267 OFFCURVE",
"-912 -256 CURVE",
"-950 -331 LINE",
"-803 -363 OFFCURVE",
"-456 -378 OFFCURVE",
"-283 -378 CURVE SMOOTH"
);
},
{
closed = 1;
nodes = (
"150 -495 LINE",
"150 818 LINE",
"413 818 LINE",
"413 -495 LINE"
);
}
);
};
components = (
{
name = _part.phlv.beh.madd;
transform = "{1, 0, 0, 1, 150, -39}";
}
);
layerId = "10A83A34-2C0B-4EA0-95B7-223E3205B8BF";
paths = (
{
closed = 1;
nodes = (
"346 -168 OFFCURVE",
"366 -156 OFFCURVE",
"376 -101 CURVE",
"376 -46 OFFCURVE",
"369 4 OFFCURVE",
"358 45 CURVE",
"346 27 LINE",
"361 9 OFFCURVE",
"384 0 OFFCURVE",
"413 0 CURVE",
"445 29 OFFCURVE",
"456 78 OFFCURVE",
"448 117 CURVE",
"364 117 OFFCURVE",
"344 181 OFFCURVE",
"307 271 CURVE SMOOTH",
"269 362 LINE",
"257 362 LINE",
"209 269 LINE",
"271 114 OFFCURVE",
"326 -57 OFFCURVE",
"326 -171 CURVE"
);
}
);
width = 413;
}
);
},
{
glyphname = "ain-ar";
layers = (
{
background = {
paths = (
{
closed = 1;
nodes = (
"168 39 OFFCURVE",
"179 78 OFFCURVE",
"181 117 CURVE",
"144 117 OFFCURVE",
"115 124 OFFCURVE",
"98 137 CURVE",
"50 43 LINE",
"58 15 OFFCURVE",
"91 0 OFFCURVE",
"146 0 CURVE"
);
},
{
closed = 1;
nodes = (
"149 78 OFFCURVE",
"146 29 OFFCURVE",
"146 0 CURVE",
"287 0 OFFCURVE",
"373 142 OFFCURVE",
"373 245 CURVE SMOOTH",
"373 297 OFFCURVE",
"353 348 OFFCURVE",
"325 416 CURVE",
"313 416 LINE",
"265 323 LINE",
"288 277 OFFCURVE",
"324 189 OFFCURVE",
"314 150 CURVE",
"280 129 OFFCURVE",
"225 117 OFFCURVE",
"181 117 CURVE"
);
},
{
closed = 1;
nodes = (
"0 -495 LINE",
"0 818 LINE",
"423 818 LINE",
"423 -495 LINE"
);
}
);
};
components = (
{
alignment = -1;
name = _part.phlv.part.phlv.keheh_ending;
transform = "{1, 0, 0, 1, 2, 0}";
},
{
alignment = -1;
name = "ain-ar.init.BL";
transform = "{1, 0, 0, 1, 146, 0}";
}
);
layerId = "10A83A34-2C0B-4EA0-95B7-223E3205B8BF";
width = 423;
}
);
unicode = 0639;
},
{
glyphname = "ain-ar.fina";
layers = (
{
background = {
paths = (
{
closed = 1;
nodes = (
"168 39 OFFCURVE",
"179 78 OFFCURVE",
"181 117 CURVE",
"144 117 OFFCURVE",
"115 124 OFFCURVE",
"98 137 CURVE",
"50 43 LINE",
"58 15 OFFCURVE",
"91 0 OFFCURVE",
"146 0 CURVE"
);
},
{
closed = 1;
nodes = (
"278 87 LINE",
"300 25 OFFCURVE",
"350 0 OFFCURVE",
"406 0 CURVE",
"438 39 OFFCURVE",
"449 78 OFFCURVE",
"441 117 CURVE",
"383 117 OFFCURVE",
"343 129 OFFCURVE",
"325 158 CURVE"
);
},
{
closed = 1;
nodes = (
"149 78 OFFCURVE",
"146 29 OFFCURVE",
"146 0 CURVE",
"287 0 OFFCURVE",
"373 142 OFFCURVE",
"373 245 CURVE SMOOTH",
"373 297 OFFCURVE",
"353 348 OFFCURVE",
"325 416 CURVE",
"313 416 LINE",
"265 323 LINE",
"288 277 OFFCURVE",
"324 189 OFFCURVE",
"314 150 CURVE",
"280 129 OFFCURVE",
"225 117 OFFCURVE",
"181 117 CURVE"
);
},
{
closed = 1;
nodes = (
"0 -495 LINE",
"0 818 LINE",
"406 818 LINE",
"406 -495 LINE"
);
}
);
};
components = (
{
alignment = -1;
name = _part.phlv.right.connector;
transform = "{1, 0, 0, 1, -47, 0}";
},
{
alignment = -1;
name = _part.phlv.part.phlv.keheh_ending;
transform = "{1, 0, 0, 1, 2, 0}";
},
{
alignment = -1;
name = "ain-ar.init.BL";
transform = "{1, 0, 0, 1, 146, 0}";
}
);
layerId = "10A83A34-2C0B-4EA0-95B7-223E3205B8BF";
width = 406;
}
);
},
{
glyphname = "ain-ar.medi";
layers = (
{
background = {
paths = (
{
closed = 1;
nodes = (
"132 87 LINE",
"154 25 OFFCURVE",
"204 0 OFFCURVE",
"260 0 CURVE",
"292 39 OFFCURVE",
"303 78 OFFCURVE",
"295 117 CURVE",
"237 117 OFFCURVE",
"197 129 OFFCURVE",
"179 158 CURVE"
);
},
{
closed = 1;
nodes = (
"3 78 OFFCURVE",
"0 29 OFFCURVE",
"0 0 CURVE",
"141 0 OFFCURVE",
"227 142 OFFCURVE",
"227 245 CURVE SMOOTH",
"227 297 OFFCURVE",
"207 348 OFFCURVE",
"179 416 CURVE",
"167 416 LINE",
"119 323 LINE",
"142 277 OFFCURVE",
"178 189 OFFCURVE",
"168 150 CURVE",
"134 129 OFFCURVE",
"79 117 OFFCURVE",
"35 117 CURVE"
);
},
{
closed = 1;
nodes = (
"0 -495 LINE",
"0 818 LINE",
"260 818 LINE",
"260 -495 LINE"
);
}
);
};
components = (
{
alignment = -1;
name = _part.phlv.right.connector;
transform = "{1, 0, 0, 1, -193, 0}";
},
{
alignment = -1;
name = "ain-ar.init.BL";
}
);
layerId = "10A83A34-2C0B-4EA0-95B7-223E3205B8BF";
width = 260;
}
);
},
{
glyphname = "ain-ar.init";
layers = (
{
background = {
paths = (
{
closed = 1;
nodes = (
"13 -153 OFFCURVE",
"2 -192 OFFCURVE",
"0 -231 CURVE",
"154 -231 OFFCURVE",
"278 -176 OFFCURVE",
"324 -96 CURVE SMOOTH",
"394 26 OFFCURVE",
"384 149 OFFCURVE",
"355 270 CURVE SMOOTH",
"320 416 LINE",
"308 416 LINE",
"253 307 LINE",
"289 174 LINE SMOOTH",
"317 71 OFFCURVE",
"331 4 OFFCURVE",
"308 -54 CURVE",
"236 -92 OFFCURVE",
"126 -114 OFFCURVE",
"35 -114 CURVE"
);
},
{
closed = 1;
nodes = (
"0 -495 LINE",
"0 818 LINE",
"427 818 LINE",
"427 -495 LINE"
);
}
);
};
components = (
{
alignment = -1;
name = _part.phlv.head.peh;
transform = "{1, 0, 0, 1, -282, 0}";
}
);
layerId = "10A83A34-2C0B-4EA0-95B7-223E3205B8BF";
width = 427;
}
);
},
{
glyphname = "heh-ar";
layers = (
{
background = {
paths = (
{
closed = 1;
nodes = (
"385 46 LINE",
"385 163 OFFCURVE",
"539 299 OFFCURVE",
"627 299 CURVE SMOOTH",
"655 299 OFFCURVE",
"662 286 OFFCURVE",
"662 265 CURVE",
"674 265 LINE",
"709 330 OFFCURVE",
"722 416 OFFCURVE",
"654 416 CURVE SMOOTH",
"546 416 OFFCURVE",
"342 199 OFFCURVE",
"342 7 CURVE"
);
},
{
closed = 1;
nodes = (
"342 7 LINE",
"342 -89 OFFCURVE",
"370 -231 OFFCURVE",
"498 -231 CURVE SMOOTH",
"651 -231 OFFCURVE",
"723 -62 OFFCURVE",
"733 37 CURVE SMOOTH",
"739 99 OFFCURVE",
"721 134 OFFCURVE",
"654 134 CURVE SMOOTH",
"577 134 OFFCURVE",
"423 117 OFFCURVE",
"309 117 CURVE",
"287 78 OFFCURVE",
"276 39 OFFCURVE",
"274 0 CURVE",
"376 0 OFFCURVE",
"551 17 OFFCURVE",
"641 17 CURVE SMOOTH",
"677 17 OFFCURVE",
"692 4 OFFCURVE",
"697 -16 CURVE",
"677 -70 OFFCURVE",
"595 -114 OFFCURVE",
"520 -114 CURVE SMOOTH",
"421 -114 OFFCURVE",
"385 -44 OFFCURVE",
"385 46 CURVE"
);
},
{
closed = 1;
nodes = (
"251 117 OFFCURVE",
"212 146 OFFCURVE",
"171 226 CURVE",
"197 27 LINE",
"212 7 OFFCURVE",
"240 0 OFFCURVE",
"274 0 CURVE",
"306 39 OFFCURVE",
"317 78 OFFCURVE",
"309 117 CURVE"
);
},
{
closed = 1;
nodes = (
"171 226 LINE",
"153 261 OFFCURVE",
"133 306 OFFCURVE",
"110 362 CURVE",
"98 362 LINE",
"50 269 LINE",
"118 140 LINE SMOOTH",
"154 71 OFFCURVE",
"161 20 OFFCURVE",
"161 -45 CURVE SMOOTH",
"161 -100 OFFCURVE",
"150 -165 OFFCURVE",
"137 -235 CURVE",
"166 -244 LINE",
"199 -149 OFFCURVE",
"220 -70 OFFCURVE",
"218 0 CURVE SMOOTH",
"216 57 LINE"
);
},
{
closed = 1;
nodes = (
"0 -495 LINE",
"0 818 LINE",
"784 818 LINE",
"784 -495 LINE"
);
}
);
};
components = (
{
alignment = -1;
name = "meem-ar.init.BL";
transform = "{1, 0, 0, 1, 274, 0}";
},
{
alignment = -1;
name = "reh-ar.fina";
}
);
layerId = "10A83A34-2C0B-4EA0-95B7-223E3205B8BF";
width = 784;
}
);
unicode = 0647;
},
{
glyphname = "reh-ar";
layers = (
{
background = {
paths = (
{
closed = 1;
nodes = (
"120 193 OFFCURVE",
"141 112 OFFCURVE",
"141 10 CURVE SMOOTH",
"141 -57 OFFCURVE",
"129 -137 OFFCURVE",
"114 -235 CURVE",
"143 -244 LINE",
"174 -139 OFFCURVE",
"205 -26 OFFCURVE",
"205 93 CURVE SMOOTH",
"205 190 OFFCURVE",
"181 278 OFFCURVE",
"117 416 CURVE",
"105 416 LINE",
"50 307 LINE"
);
},
{
closed = 1;
nodes = (
"0 -495 LINE",
"0 818 LINE",
"255 818 LINE",
"255 -495 LINE"
);
}
);
};
layerId = "10A83A34-2C0B-4EA0-95B7-223E3205B8BF";
paths = (
{
closed = 1;
nodes = (
"120 193 OFFCURVE",
"141 112 OFFCURVE",
"141 10 CURVE SMOOTH",
"141 -57 OFFCURVE",
"129 -137 OFFCURVE",
"114 -235 CURVE",
"143 -244 LINE",
"174 -139 OFFCURVE",
"205 -26 OFFCURVE",
"205 93 CURVE SMOOTH",
"205 190 OFFCURVE",
"181 278 OFFCURVE",
"117 416 CURVE",
"105 416 LINE",
"50 307 LINE"
);
}
);
width = 255;
}
);
unicode = 0631;
},
{
glyphname = "reh-ar.fina";
layers = (
{
background = {
paths = (
{
closed = 1;
nodes = (
"251 117 OFFCURVE",
"212 146 OFFCURVE",
"171 226 CURVE",
"197 27 LINE",
"212 7 OFFCURVE",
"240 0 OFFCURVE",
"274 0 CURVE",
"306 39 OFFCURVE",
"317 78 OFFCURVE",
"309 117 CURVE"
);
},
{
closed = 1;
nodes = (
"171 226 LINE",
"153 261 OFFCURVE",
"133 306 OFFCURVE",
"110 362 CURVE",
"98 362 LINE",
"50 269 LINE",
"118 140 LINE SMOOTH",
"154 71 OFFCURVE",
"161 20 OFFCURVE",
"161 -45 CURVE SMOOTH",
"161 -100 OFFCURVE",
"150 -165 OFFCURVE",
"137 -235 CURVE",
"166 -244 LINE",
"199 -149 OFFCURVE",
"220 -70 OFFCURVE",
"218 0 CURVE SMOOTH",
"216 57 LINE"
);
},
{
closed = 1;
nodes = (
"0 -495 LINE",
"0 818 LINE",
"274 818 LINE",
"274 -495 LINE"
);
}
);
};
components = (
{
name = _part.phlv.reh.last;
}
);
layerId = "10A83A34-2C0B-4EA0-95B7-223E3205B8BF";
paths = (
{
closed = 1;
nodes = (
"251 117 OFFCURVE",
"212 146 OFFCURVE",
"171 226 CURVE",
"197 27 LINE",
"212 7 OFFCURVE",
"240 0 OFFCURVE",
"274 0 CURVE",
"306 39 OFFCURVE",
"317 78 OFFCURVE",
"309 117 CURVE"
);
}
);
width = 274;
}
);
},
{
glyphname = "dad-ar";
layers = (
{
anchors = (
{
name = "#entry";
position = "{346, 0}";
},
{
name = "#exit";
position = "{123, 0}";
}
);
background = {
paths = (
{
closed = 1;
nodes = (
"168 39 OFFCURVE",
"179 78 OFFCURVE",
"181 117 CURVE",
"144 117 OFFCURVE",
"115 124 OFFCURVE",
"98 137 CURVE",
"50 43 LINE",
"58 15 OFFCURVE",
"91 0 OFFCURVE",
"146 0 CURVE"
);
},
{
closed = 1;
nodes = (
"386 196 LINE",
"325 144 OFFCURVE",
"252 117 OFFCURVE",
"181 117 CURVE",
"146 0 LINE",
"219 0 OFFCURVE",
"322 35 OFFCURVE",
"369 108 CURVE"
);
},
{
closed = 1;
nodes = (
"369 108 LINE",
"393 145 OFFCURVE",
"409 201 OFFCURVE",
"409 238 CURVE SMOOTH",
"409 316 OFFCURVE",
"377 345 OFFCURVE",
"287 365 CURVE SMOOTH",
"122 401 LINE",
"115 339 OFFCURVE",
"144 288 OFFCURVE",
"215 269 CURVE SMOOTH",
"297 247 OFFCURVE",
"389 232 OFFCURVE",
"373 163 CURVE"
);
},
{
closed = 1;
nodes = (
"151 389 LINE",
"163 440 OFFCURVE",
"266 530 OFFCURVE",
"347 530 CURVE SMOOTH",
"375 530 OFFCURVE",
"382 517 OFFCURVE",
"382 496 CURVE",
"394 496 LINE",
"429 561 OFFCURVE",
"445 647 OFFCURVE",
"374 647 CURVE SMOOTH",
"284 647 OFFCURVE",
"167 543 OFFCURVE",
"136 456 CURVE SMOOTH",
"130 439 OFFCURVE",
"124 418 OFFCURVE",
"122 401 CURVE"
);
},
{
closed = 1;
nodes = (
"0 -495 LINE",
"0 818 LINE",
"474 818 LINE",
"474 -495 LINE"
);
}
);
};
components = (
{
alignment = -1;
name = "_part.phlv.keheh-ar.transition";
transform = "{1, 0, 0, 1, 0, 231}";
},
{
name = _part.phlv.head.zeh;
transform = "{1, 0, 0, 1, 0, 231}";
},
{
alignment = -1;
name = _part.phlv.part.phlv.keheh_ending;
transform = "{1, 0, 0, 1, 2, 0}";
}
);
layerId = "10A83A34-2C0B-4EA0-95B7-223E3205B8BF";
width = 474;
}
);
unicode = 0636;
},
{
glyphname = "dad-ar.fina";
layers = (
{
background = {
paths = (
{
closed = 1;
nodes = (
"168 39 OFFCURVE",
"179 78 OFFCURVE",
"181 117 CURVE",
"144 117 OFFCURVE",
"115 124 OFFCURVE",
"98 137 CURVE",
"50 43 LINE",
"58 15 OFFCURVE",
"91 0 OFFCURVE",
"146 0 CURVE"
);
},
{
closed = 1;
nodes = (
"386 196 LINE",
"325 144 OFFCURVE",
"252 117 OFFCURVE",
"181 117 CURVE",
"146 0 LINE",
"219 0 OFFCURVE",
"322 35 OFFCURVE",
"369 108 CURVE"
);
},
{
closed = 1;
nodes = (
"369 108 LINE",
"393 145 OFFCURVE",
"409 201 OFFCURVE",
"409 238 CURVE SMOOTH",
"409 316 OFFCURVE",
"377 345 OFFCURVE",
"287 365 CURVE SMOOTH",
"122 401 LINE",
"115 339 OFFCURVE",
"144 288 OFFCURVE",
"215 269 CURVE SMOOTH",
"297 247 OFFCURVE",
"389 232 OFFCURVE",
"373 163 CURVE"
);
},
{
closed = 1;
nodes = (
"151 389 LINE",
"163 440 OFFCURVE",
"266 530 OFFCURVE",
"347 530 CURVE SMOOTH",
"375 530 OFFCURVE",
"382 517 OFFCURVE",
"382 496 CURVE",
"394 496 LINE",
"429 561 OFFCURVE",
"445 647 OFFCURVE",
"374 647 CURVE SMOOTH",
"284 647 OFFCURVE",
"167 543 OFFCURVE",
"136 456 CURVE SMOOTH",
"130 439 OFFCURVE",
"124 418 OFFCURVE",
"122 401 CURVE"
);
},
{
closed = 1;
nodes = (
"346 87 LINE",
"368 25 OFFCURVE",
"418 0 OFFCURVE",
"474 0 CURVE",
"506 39 OFFCURVE",
"517 78 OFFCURVE",
"509 117 CURVE",
"451 117 OFFCURVE",
"411 129 OFFCURVE",
"393 158 CURVE"
);
},
{
closed = 1;
nodes = (
"0 -495 LINE",
"0 818 LINE",
"474 818 LINE",
"474 -495 LINE"
);
}
);
};
components = (
{
alignment = -1;
name = _part.phlv.right.connector;
transform = "{1, 0, 0, 1, 21, 0}";
},
{
alignment = -1;
name = "dad-ar";
}
);
layerId = "10A83A34-2C0B-4EA0-95B7-223E3205B8BF";
width = 474;
}
);
},
{
glyphname = "dad-ar.medi";
layers = (
{
background = {
paths = (
{
closed = 1;
nodes = (
"109 0 OFFCURVE",
"236 27 OFFCURVE",
"309 85 CURVE SMOOTH",
"354 120 OFFCURVE",
"376 182 OFFCURVE",
"376 238 CURVE SMOOTH",
"376 316 OFFCURVE",
"344 345 OFFCURVE",
"254 365 CURVE SMOOTH",
"89 401 LINE",
"82 339 OFFCURVE",
"111 288 OFFCURVE",
"182 269 CURVE SMOOTH",
"264 247 OFFCURVE",
"322 236 OFFCURVE",
"337 198 CURVE",
"261 145 OFFCURVE",
"138 117 OFFCURVE",
"35 117 CURVE",
"0 0 LINE"
);
},
{
closed = 1;
nodes = (
"118 389 LINE",
"130 440 OFFCURVE",
"233 530 OFFCURVE",
"314 530 CURVE SMOOTH",
"342 530 OFFCURVE",
"349 517 OFFCURVE",
"349 496 CURVE",
"361 496 LINE",
"396 561 OFFCURVE",
"412 647 OFFCURVE",
"341 647 CURVE SMOOTH",
"251 647 OFFCURVE",
"134 543 OFFCURVE",
"103 456 CURVE SMOOTH",
"97 439 OFFCURVE",
"91 418 OFFCURVE",
"89 401 CURVE"
);
},
{
closed = 1;
nodes = (
"308 87 LINE",
"330 25 OFFCURVE",
"380 0 OFFCURVE",
"436 0 CURVE",
"468 39 OFFCURVE",
"479 78 OFFCURVE",
"471 117 CURVE",
"413 117 OFFCURVE",
"373 129 OFFCURVE",
"355 158 CURVE"
);
},
{
closed = 1;
nodes = (
"0 -495 LINE",
"0 818 LINE",
"436 818 LINE",
"436 -495 LINE"
);
}
);
};
components = (
{
alignment = -1;
name = _part.phlv.right.connector;
transform = "{1, 0, 0, 1, -17, 0}";
},
{
alignment = -1;
name = "dad-ar.init";
}
);
layerId = "10A83A34-2C0B-4EA0-95B7-223E3205B8BF";
width = 436;
}
);
},
{
glyphname = "dad-ar.init";
layers = (
{
anchors = (
{
name = "#entry";
position = "{309, 0}";
}
);
background = {
paths = (
{
closed = 1;
nodes = (
"109 0 OFFCURVE",
"236 27 OFFCURVE",
"309 85 CURVE SMOOTH",
"354 120 OFFCURVE",
"376 182 OFFCURVE",
"376 238 CURVE SMOOTH",
"376 316 OFFCURVE",
"344 345 OFFCURVE",
"254 365 CURVE SMOOTH",
"89 401 LINE",
"82 339 OFFCURVE",
"111 288 OFFCURVE",
"182 269 CURVE SMOOTH",
"264 247 OFFCURVE",
"322 236 OFFCURVE",
"337 198 CURVE",
"261 145 OFFCURVE",
"138 117 OFFCURVE",
"35 117 CURVE",
"0 0 LINE"
);
},
{
closed = 1;
nodes = (
"118 389 LINE",
"130 440 OFFCURVE",
"233 530 OFFCURVE",
"314 530 CURVE SMOOTH",
"342 530 OFFCURVE",
"349 517 OFFCURVE",
"349 496 CURVE",
"361 496 LINE",
"396 561 OFFCURVE",
"412 647 OFFCURVE",
"341 647 CURVE SMOOTH",
"251 647 OFFCURVE",
"134 543 OFFCURVE",
"103 456 CURVE SMOOTH",
"97 439 OFFCURVE",
"91 418 OFFCURVE",
"89 401 CURVE"
);
},
{
closed = 1;
nodes = (
"0 -495 LINE",
"0 818 LINE",
"441 818 LINE",
"441 -495 LINE"
);
}
);
};
components = (
{
name = _part.phlv.torreh.zeh;
transform = "{1, 0, 0, 1, -33, 231}";
}
);
layerId = "10A83A34-2C0B-4EA0-95B7-223E3205B8BF";
paths = (
{
closed = 1;
nodes = (
"109 0 OFFCURVE",
"236 27 OFFCURVE",
"309 85 CURVE SMOOTH",
"354 120 OFFCURVE",
"376 182 OFFCURVE",
"376 238 CURVE SMOOTH",
"376 316 OFFCURVE",
"344 345 OFFCURVE",
"254 365 CURVE SMOOTH",
"89 401 LINE",
"82 339 OFFCURVE",
"111 288 OFFCURVE",
"182 269 CURVE SMOOTH",
"264 247 OFFCURVE",
"322 236 OFFCURVE",
"337 198 CURVE",
"261 145 OFFCURVE",
"138 117 OFFCURVE",
"35 117 CURVE",
"0 0 LINE"
);
}
);
width = 441;
}
);
},
{
glyphname = "keheh-ar";
layers = (
{
anchors = (
{
name = "#entry";
position = "{433, 0}";
},
{
name = "#exit";
position = "{122, 0}";
}
);
background = {
paths = (
{
closed = 1;
nodes = (
"168 -192 OFFCURVE",
"179 -153 OFFCURVE",
"181 -114 CURVE",
"144 -114 OFFCURVE",
"115 -107 OFFCURVE",
"98 -94 CURVE",
"50 -188 LINE",
"58 -216 OFFCURVE",
"91 -231 OFFCURVE",
"146 -231 CURVE"
);
},
{
closed = 1;
nodes = (
"386 -35 LINE",
"325 -87 OFFCURVE",
"252 -114 OFFCURVE",
"181 -114 CURVE",
"146 -231 LINE",
"219 -231 OFFCURVE",
"322 -196 OFFCURVE",
"369 -123 CURVE"
);
},
{
closed = 1;
nodes = (
"369 -123 LINE",
"403 -71 OFFCURVE",
"430 1 OFFCURVE",
"430 88 CURVE",
"381 26 LINE",
"381 -10 OFFCURVE",
"376 -40 OFFCURVE",
"370 -53 CURVE"
);
},
{
closed = 1;
nodes = (
"397 37 OFFCURVE",
"414 57 OFFCURVE",
"430 88 CURVE",
"430 236 OFFCURVE",
"373 416 OFFCURVE",
"286 416 CURVE SMOOTH",
"208 416 OFFCURVE",
"119 229 OFFCURVE",
"119 140 CURVE SMOOTH",
"119 53 OFFCURVE",
"161 7 OFFCURVE",
"243 7 CURVE SMOOTH",
"297 7 OFFCURVE",
"348 27 OFFCURVE",
"389 56 CURVE",
"380 149 LINE",
"343 135 OFFCURVE",
"294 124 OFFCURVE",
"251 124 CURVE SMOOTH",
"197 124 OFFCURVE",
"170 138 OFFCURVE",
"158 170 CURVE",
"168 217 OFFCURVE",
"218 299 OFFCURVE",
"259 299 CURVE SMOOTH",
"337 299 OFFCURVE",
"381 120 OFFCURVE",
"381 26 CURVE"
);
},
{
closed = 1;
nodes = (
"0 -495 LINE",
"0 818 LINE",
"480 818 LINE",
"480 -495 LINE"
);
}
);
};
components = (
{
name = _part.phlv.kaf.halgheh;
},
{
alignment = -1;
name = "_part.phlv.keheh-ar.transition";
},
{
alignment = -1;
name = _part.phlv.part.phlv.keheh_ending;
transform = "{1, 0, 0, 1, 2, -231}";
}
);
layerId = "10A83A34-2C0B-4EA0-95B7-223E3205B8BF";
paths = (
{
closed = 1;
nodes = (
"369 -123 LINE",
"403 -71 OFFCURVE",
"430 1 OFFCURVE",
"430 88 CURVE",
"381 26 LINE",
"381 -10 OFFCURVE",
"376 -40 OFFCURVE",
"370 -53 CURVE"
);
}
);
width = 480;
}
);
unicode = 06A9;
},
{
glyphname = "keheh-ar.fina";
layers = (
{
anchors = (
{
name = "#entry";
position = "{201, 0}";
},
{
name = "#exit";
position = "{82, 0}";
}
);
background = {
paths = (
{
closed = 1;
nodes = (
"168 -192 OFFCURVE",
"179 -153 OFFCURVE",
"181 -114 CURVE",
"144 -114 OFFCURVE",
"115 -107 OFFCURVE",
"98 -94 CURVE",
"50 -188 LINE",
"58 -216 OFFCURVE",
"91 -231 OFFCURVE",
"146 -231 CURVE"
);
},
{
closed = 1;
nodes = (
"386 -35 LINE",
"325 -87 OFFCURVE",
"252 -114 OFFCURVE",
"181 -114 CURVE",
"146 -231 LINE",
"219 -231 OFFCURVE",
"322 -196 OFFCURVE",
"369 -123 CURVE"
);
},
{
closed = 1;
nodes = (
"381 26 LINE",
"381 -10 OFFCURVE",
"377 -31 OFFCURVE",
"373 -46 CURVE",
"369 -123 LINE",
"403 -71 OFFCURVE",
"430 1 OFFCURVE",
"430 88 CURVE"
);
},
{
closed = 1;
nodes = (
"430 88 LINE",
"430 236 OFFCURVE",
"373 416 OFFCURVE",
"286 416 CURVE SMOOTH",
"208 416 OFFCURVE",
"119 229 OFFCURVE",
"119 140 CURVE SMOOTH",
"119 29 OFFCURVE",
"203 0 OFFCURVE",
"337 0 CURVE SMOOTH",
"421 0 LINE",
"453 29 OFFCURVE",
"464 78 OFFCURVE",
"456 117 CURVE",
"357 117 LINE SMOOTH",
"275 117 OFFCURVE",
"183 117 OFFCURVE",
"158 170 CURVE",
"168 217 OFFCURVE",
"218 299 OFFCURVE",
"259 299 CURVE SMOOTH",
"337 299 OFFCURVE",
"381 120 OFFCURVE",
"381 26 CURVE"
);
},
{
closed = 1;
nodes = (
"0 -495 LINE",
"0 818 LINE",
"421 818 LINE",
"421 -495 LINE"
);
}
);
};
components = (
{
alignment = -1;
name = _part.phlv.kaf.medi;
},
{
alignment = -1;
name = "_part.phlv.keheh-ar.transition";
},
{
alignment = -1;
name = _part.phlv.part.phlv.keheh_ending;
transform = "{1, 0, 0, 1, 2, -231}";
}
);
layerId = "10A83A34-2C0B-4EA0-95B7-223E3205B8BF";
width = 421;
}
);
},
{
color = 10;
glyphname = "keheh-ar.medi";
layers = (
{
background = {
paths = (
{
closed = 1;
nodes = (
"295 26 LINE",
"295 -10 OFFCURVE",
"291 -31 OFFCURVE",
"287 -46 CURVE",
"283 -123 LINE",
"317 -71 OFFCURVE",
"344 1 OFFCURVE",
"344 88 CURVE"
);
},
{
closed = 1;
nodes = (
"344 88 LINE",
"344 236 OFFCURVE",
"287 416 OFFCURVE",
"200 416 CURVE SMOOTH",
"122 416 OFFCURVE",
"33 229 OFFCURVE",
"33 140 CURVE SMOOTH",
"33 29 OFFCURVE",
"117 0 OFFCURVE",
"251 0 CURVE SMOOTH",
"335 0 LINE",
"367 29 OFFCURVE",
"378 78 OFFCURVE",
"370 117 CURVE",
"271 117 LINE SMOOTH",
"189 117 OFFCURVE",
"97 117 OFFCURVE",
"72 170 CURVE",
"82 217 OFFCURVE",
"132 299 OFFCURVE",
"173 299 CURVE SMOOTH",
"251 299 OFFCURVE",
"295 120 OFFCURVE",
"295 26 CURVE"
);
},
{
closed = 1;
nodes = (
"300 -35 LINE",
"239 -87 OFFCURVE",
"126 -114 OFFCURVE",
"35 -114 CURVE",
"0 -231 LINE",
"119 -231 OFFCURVE",
"236 -196 OFFCURVE",
"283 -123 CURVE"
);
},
{
closed = 1;
nodes = (
"0 -495 LINE",
"0 818 LINE",
"335 818 LINE",
"335 -495 LINE"
);
}
);
};
components = (
{
name = "keheh-ar.fina";
}
);
layerId = "10A83A34-2C0B-4EA0-95B7-223E3205B8BF";
width = 421;
}
);
},
{
color = 10;
glyphname = "keheh-ar.init";
layers = (
{
background = {
paths = (
{
closed = 1;
nodes = (
"283 -123 LINE",
"317 -71 OFFCURVE",
"344 1 OFFCURVE",
"344 88 CURVE",
"295 26 LINE",
"295 -10 OFFCURVE",
"290 -40 OFFCURVE",
"284 -53 CURVE"
);
},
{
closed = 1;
nodes = (
"311 37 OFFCURVE",
"328 57 OFFCURVE",
"344 88 CURVE",
"344 236 OFFCURVE",
"287 416 OFFCURVE",
"200 416 CURVE SMOOTH",
"122 416 OFFCURVE",
"33 229 OFFCURVE",
"33 140 CURVE SMOOTH",
"33 53 OFFCURVE",
"75 7 OFFCURVE",
"157 7 CURVE SMOOTH",
"211 7 OFFCURVE",
"262 27 OFFCURVE",
"303 56 CURVE",
"294 149 LINE",
"257 135 OFFCURVE",
"208 124 OFFCURVE",
"165 124 CURVE SMOOTH",
"111 124 OFFCURVE",
"84 138 OFFCURVE",
"72 170 CURVE",
"82 217 OFFCURVE",
"132 299 OFFCURVE",
"173 299 CURVE SMOOTH",
"251 299 OFFCURVE",
"295 120 OFFCURVE",
"295 26 CURVE"
);
},
{
closed = 1;
nodes = (
"300 -35 LINE",
"239 -87 OFFCURVE",
"126 -114 OFFCURVE",
"35 -114 CURVE",
"0 -231 LINE",
"119 -231 OFFCURVE",
"236 -196 OFFCURVE",
"283 -123 CURVE"
);
},
{
closed = 1;
nodes = (
"0 -495 LINE",
"0 818 LINE",
"394 818 LINE",
"394 -495 LINE"
);
}
);
};
components = (
{
name = "keheh-ar";
}
);
layerId = "10A83A34-2C0B-4EA0-95B7-223E3205B8BF";
width = 480;
}
);
},
{
glyphname = "lam-ar";
layers = (
{
anchors = (
{
name = "#entry";
position = "{326, 0}";
}
);
background = {
paths = (
{
closed = 1;
nodes = (
"159 78 OFFCURVE",
"148 39 OFFCURVE",
"146 0 CURVE",
"229 0 OFFCURVE",
"305 42 OFFCURVE",
"348 108 CURVE SMOOTH",
"382 160 OFFCURVE",
"399 213 OFFCURVE",
"399 257 CURVE SMOOTH",
"399 336 OFFCURVE",
"378 372 OFFCURVE",
"296 479 CURVE SMOOTH",
"219 580 OFFCURVE",
"134 704 OFFCURVE",
"134 818 CURVE",
"106 818 LINE",
"97 741 LINE SMOOTH",
"84 628 OFFCURVE",
"137 545 OFFCURVE",
"214 442 CURVE SMOOTH",
"296 333 OFFCURVE",
"378 254 OFFCURVE",
"351 170 CURVE",
"300 135 OFFCURVE",
"235 117 OFFCURVE",
"181 117 CURVE"
);
},
{
closed = 1;
nodes = (
"168 39 OFFCURVE",
"179 78 OFFCURVE",
"181 117 CURVE",
"144 117 OFFCURVE",
"115 124 OFFCURVE",
"98 137 CURVE",
"50 43 LINE",
"58 15 OFFCURVE",
"91 0 OFFCURVE",
"146 0 CURVE"
);
},
{
closed = 1;
nodes = (
"0 -495 LINE",
"0 818 LINE",
"449 818 LINE",
"449 -495 LINE"
);
}
);
};
components = (
{
alignment = -1;
name = _part.phlv.lamedh.tail;
transform = "{1, 0, 0, 1, 146, 0}";
},
{
alignment = -1;
name = _part.phlv.part.phlv.keheh_ending;
transform = "{1, 0, 0, 1, 2, 0}";
}
);
layerId = "10A83A34-2C0B-4EA0-95B7-223E3205B8BF";
width = 449;
}
);
unicode = 0644;
},
{
glyphname = "lam-ar.fina";
layers = (
{
background = {
paths = (
{
closed = 1;
nodes = (
"159 78 OFFCURVE",
"148 39 OFFCURVE",
"146 0 CURVE",
"229 0 OFFCURVE",
"305 42 OFFCURVE",
"348 108 CURVE SMOOTH",
"382 160 OFFCURVE",
"399 213 OFFCURVE",
"399 257 CURVE SMOOTH",
"399 336 OFFCURVE",
"378 372 OFFCURVE",
"296 479 CURVE SMOOTH",
"219 580 OFFCURVE",
"134 704 OFFCURVE",
"134 818 CURVE",
"106 818 LINE",
"97 741 LINE SMOOTH",
"84 628 OFFCURVE",
"137 545 OFFCURVE",
"214 442 CURVE SMOOTH",
"296 333 OFFCURVE",
"378 254 OFFCURVE",
"351 170 CURVE",
"300 135 OFFCURVE",
"235 117 OFFCURVE",
"181 117 CURVE"
);
},
{
closed = 1;
nodes = (
"168 39 OFFCURVE",
"179 78 OFFCURVE",
"181 117 CURVE",
"144 117 OFFCURVE",
"115 124 OFFCURVE",
"98 137 CURVE",
"50 43 LINE",
"58 15 OFFCURVE",
"91 0 OFFCURVE",
"146 0 CURVE"
);
},
{
closed = 1;
nodes = (
"327 87 LINE",
"349 25 OFFCURVE",
"399 0 OFFCURVE",
"455 0 CURVE",
"487 39 OFFCURVE",
"498 78 OFFCURVE",
"490 117 CURVE",
"432 117 OFFCURVE",
"392 129 OFFCURVE",
"374 158 CURVE"
);
},
{
closed = 1;
nodes = (
"0 -495 LINE",
"0 818 LINE",
"455 818 LINE",
"455 -495 LINE"
);
}
);
};
components = (
{
alignment = -1;
name = _part.phlv.right.connector;
transform = "{1, 0, 0, 1, 2, 0}";
},
{
alignment = -1;
name = "lam-ar";
}
);
layerId = "10A83A34-2C0B-4EA0-95B7-223E3205B8BF";
width = 455;
}
);
},
{
glyphname = "lam-ar.medi";
layers = (
{
background = {
paths = (
{
closed = 1;
nodes = (
"181 87 LINE",
"203 25 OFFCURVE",
"253 0 OFFCURVE",
"309 0 CURVE",
"341 39 OFFCURVE",
"352 78 OFFCURVE",
"344 117 CURVE",
"286 117 OFFCURVE",
"246 129 OFFCURVE",
"228 158 CURVE"
);
},
{
closed = 1;
nodes = (
"13 78 OFFCURVE",
"2 39 OFFCURVE",
"0 0 CURVE",
"83 0 OFFCURVE",
"159 42 OFFCURVE",
"202 108 CURVE SMOOTH",
"236 160 OFFCURVE",
"253 213 OFFCURVE",
"253 257 CURVE SMOOTH",
"253 336 OFFCURVE",
"232 372 OFFCURVE",
"150 479 CURVE SMOOTH",
"73 580 OFFCURVE",
"-12 704 OFFCURVE",
"-12 818 CURVE",
"-40 818 LINE",
"-49 741 LINE SMOOTH",
"-62 628 OFFCURVE",
"-9 545 OFFCURVE",
"68 442 CURVE SMOOTH",
"150 333 OFFCURVE",
"232 254 OFFCURVE",
"205 170 CURVE",
"154 135 OFFCURVE",
"89 117 OFFCURVE",
"35 117 CURVE"
);
},
{
closed = 1;
nodes = (
"0 -495 LINE",
"0 818 LINE",
"309 818 LINE",
"309 -495 LINE"
);
}
);
};
components = (
{
alignment = -1;
name = _part.phlv.right.connector;
transform = "{1, 0, 0, 1, -144, 0}";
},
{
alignment = -1;
name = _part.phlv.lamedh.tail;
}
);
layerId = "10A83A34-2C0B-4EA0-95B7-223E3205B8BF";
width = 309;
}
);
},
{
glyphname = "lam-ar.init";
layers = (
{
background = {
paths = (
{
closed = 1;
nodes = (
"13 -153 OFFCURVE",
"2 -192 OFFCURVE",
"0 -231 CURVE",
"152 -231 OFFCURVE",
"306 -176 OFFCURVE",
"374 -99 CURVE SMOOTH",
"410 -58 OFFCURVE",
"452 18 OFFCURVE",
"452 87 CURVE SMOOTH",
"452 229 OFFCURVE",
"367 323 OFFCURVE",
"247 479 CURVE SMOOTH",
"170 579 OFFCURVE",
"85 704 OFFCURVE",
"85 818 CURVE",
"57 818 LINE",
"48 741 LINE SMOOTH",
"35 628 OFFCURVE",
"87 545 OFFCURVE",
"165 442 CURVE SMOOTH",
"297 266 OFFCURVE",
"427 122 OFFCURVE",
"378 -31 CURVE",
"290 -85 OFFCURVE",
"154 -114 OFFCURVE",
"35 -114 CURVE"
);
},
{
closed = 1;
nodes = (
"0 -495 LINE",
"0 818 LINE",
"502 818 LINE",
"502 -495 LINE"
);
}
);
};
layerId = "10A83A34-2C0B-4EA0-95B7-223E3205B8BF";
paths = (
{
closed = 1;
nodes = (
"13 -153 OFFCURVE",
"2 -192 OFFCURVE",
"0 -231 CURVE",
"152 -231 OFFCURVE",
"306 -176 OFFCURVE",
"374 -99 CURVE SMOOTH",
"410 -58 OFFCURVE",
"452 18 OFFCURVE",
"452 87 CURVE SMOOTH",
"452 229 OFFCURVE",
"367 323 OFFCURVE",
"247 479 CURVE SMOOTH",
"170 579 OFFCURVE",
"85 704 OFFCURVE",
"85 818 CURVE",
"57 818 LINE",
"48 741 LINE SMOOTH",
"35 628 OFFCURVE",
"87 545 OFFCURVE",
"165 442 CURVE SMOOTH",
"297 266 OFFCURVE",
"427 122 OFFCURVE",
"378 -31 CURVE",
"290 -85 OFFCURVE",
"154 -114 OFFCURVE",
"35 -114 CURVE"
);
}
);
width = 502;
}
);
},
{
glyphname = "meem-ar";
layers = (
{
background = {
paths = (
{
closed = 1;
nodes = (
"556 37 LINE",
"562 99 OFFCURVE",
"544 134 OFFCURVE",
"477 134 CURVE SMOOTH",
"426 134 OFFCURVE",
"300 117 OFFCURVE",
"241 117 CURVE",
"206 0 LINE",
"284 0 OFFCURVE",
"414 17 OFFCURVE",
"464 17 CURVE SMOOTH",
"500 17 OFFCURVE",
"515 4 OFFCURVE",
"520 -16 CURVE"
);
},
{
closed = 1;
nodes = (
"165 7 LINE",
"165 -89 OFFCURVE",
"193 -231 OFFCURVE",
"321 -231 CURVE SMOOTH",
"474 -231 OFFCURVE",
"546 -62 OFFCURVE",
"556 37 CURVE",
"544 29 OFFCURVE",
"532 12 OFFCURVE",
"520 -16 CURVE",
"500 -70 OFFCURVE",
"418 -114 OFFCURVE",
"343 -114 CURVE SMOOTH",
"244 -114 OFFCURVE",
"208 -44 OFFCURVE",
"208 46 CURVE"
);
},
{
closed = 1;
nodes = (
"208 46 LINE",
"208 163 OFFCURVE",
"362 299 OFFCURVE",
"450 299 CURVE SMOOTH",
"478 299 OFFCURVE",
"485 286 OFFCURVE",
"485 265 CURVE",
"497 265 LINE",
"532 330 OFFCURVE",
"545 416 OFFCURVE",
"477 416 CURVE SMOOTH",
"369 416 OFFCURVE",
"165 199 OFFCURVE",
"165 7 CURVE"
);
},
{
closed = 1;
nodes = (
"228 39 OFFCURVE",
"239 78 OFFCURVE",
"241 117 CURVE",
"170 117 OFFCURVE",
"125 134 OFFCURVE",
"98 157 CURVE",
"50 63 LINE",
"68 25 OFFCURVE",
"121 0 OFFCURVE",
"206 0 CURVE"
);
},
{
closed = 1;
nodes = (
"0 -495 LINE",
"0 818 LINE",
"607 818 LINE",
"607 -495 LINE"
);
}
);
};
components = (
{
alignment = -1;
name = _part.phlv.dowr.meem;
transform = "{1, 0, 0, 1, 20, 0}";
},
{
alignment = -1;
name = _part.phlv.head.meeminit;
transform = "{1, 0, 0, 1, 20, 0}";
},
{
alignment = -1;
name = _part.phlv.conector.ladhsecond;
}
);
layerId = "10A83A34-2C0B-4EA0-95B7-223E3205B8BF";
width = 607;
}
);
unicode = 0645;
},
{
glyphname = "meem-ar.fina";
layers = (
{
background = {
paths = (
{
closed = 1;
nodes = (
"228 39 OFFCURVE",
"239 78 OFFCURVE",
"241 117 CURVE",
"170 117 OFFCURVE",
"125 134 OFFCURVE",
"98 157 CURVE",
"50 63 LINE",
"68 25 OFFCURVE",
"121 0 OFFCURVE",
"206 0 CURVE"
);
},
{
closed = 1;
nodes = (
"556 37 LINE",
"562 99 OFFCURVE",
"544 134 OFFCURVE",
"477 134 CURVE SMOOTH",
"426 134 OFFCURVE",
"300 117 OFFCURVE",
"241 117 CURVE",
"206 0 LINE",
"284 0 OFFCURVE",
"414 17 OFFCURVE",
"464 17 CURVE SMOOTH",
"500 17 OFFCURVE",
"515 4 OFFCURVE",
"520 -16 CURVE"
);
},
{
closed = 1;
nodes = (
"165 7 LINE",
"165 -89 OFFCURVE",
"193 -231 OFFCURVE",
"321 -231 CURVE SMOOTH",
"474 -231 OFFCURVE",
"546 -62 OFFCURVE",
"556 37 CURVE",
"544 29 OFFCURVE",
"532 12 OFFCURVE",
"520 -16 CURVE",
"500 -70 OFFCURVE",
"418 -114 OFFCURVE",
"343 -114 CURVE SMOOTH",
"244 -114 OFFCURVE",
"208 -44 OFFCURVE",
"208 46 CURVE"
);
},
{
closed = 1;
nodes = (
"379 416 OFFCURVE",
"165 199 OFFCURVE",
"165 7 CURVE",
"208 46 LINE",
"208 163 OFFCURVE",
"362 318 OFFCURVE",
"460 318 CURVE SMOOTH",
"507 318 OFFCURVE",
"537 283 OFFCURVE",
"575 186 CURVE SMOOTH",
"621 69 OFFCURVE",
"663 0 OFFCURVE",
"761 0 CURVE",
"793 39 OFFCURVE",
"804 78 OFFCURVE",
"796 117 CURVE",
"694 117 OFFCURVE",
"667 179 OFFCURVE",
"622 280 CURVE SMOOTH",
"585 364 OFFCURVE",
"550 416 OFFCURVE",
"487 416 CURVE SMOOTH"
);
},
{
closed = 1;
nodes = (
"0 -495 LINE",
"0 818 LINE",
"761 818 LINE",
"761 -495 LINE"
);
}
);
};
components = (
{
alignment = -1;
name = _part.phlv.head.meemmedi;
transform = "{1, 0, 0, 1, 20, 0}";
},
{
alignment = -1;
name = _part.phlv.dowr.meem;
transform = "{1, 0, 0, 1, 20, 0}";
},
{
alignment = -1;
name = _part.phlv.conector.ladhsecond;
}
);
layerId = "10A83A34-2C0B-4EA0-95B7-223E3205B8BF";
width = 761;
}
);
},
{
glyphname = "meem-ar.medi";
layers = (
{
background = {
paths = (
{
closed = 1;
nodes = (
"282 416 OFFCURVE",
"68 199 OFFCURVE",
"68 7 CURVE",
"111 46 LINE",
"111 163 OFFCURVE",
"265 318 OFFCURVE",
"363 318 CURVE SMOOTH",
"410 318 OFFCURVE",
"440 283 OFFCURVE",
"478 186 CURVE SMOOTH",
"524 69 OFFCURVE",
"566 0 OFFCURVE",
"664 0 CURVE",
"696 39 OFFCURVE",
"707 78 OFFCURVE",
"699 117 CURVE",
"597 117 OFFCURVE",
"570 179 OFFCURVE",
"525 280 CURVE SMOOTH",
"488 364 OFFCURVE",
"453 416 OFFCURVE",
"390 416 CURVE SMOOTH"
);
},
{
closed = 1;
nodes = (
"68 7 LINE",
"68 -89 OFFCURVE",
"96 -231 OFFCURVE",
"224 -231 CURVE SMOOTH",
"377 -231 OFFCURVE",
"449 -62 OFFCURVE",
"459 37 CURVE SMOOTH",
"465 99 OFFCURVE",
"447 134 OFFCURVE",
"380 134 CURVE SMOOTH",
"303 134 OFFCURVE",
"149 117 OFFCURVE",
"35 117 CURVE",
"13 78 OFFCURVE",
"2 39 OFFCURVE",
"0 0 CURVE",
"102 0 OFFCURVE",
"277 17 OFFCURVE",
"367 17 CURVE SMOOTH",
"403 17 OFFCURVE",
"418 4 OFFCURVE",
"423 -16 CURVE",
"403 -70 OFFCURVE",
"321 -114 OFFCURVE",
"246 -114 CURVE SMOOTH",
"147 -114 OFFCURVE",
"111 -44 OFFCURVE",
"111 46 CURVE"
);
},
{
closed = 1;
nodes = (
"0 -495 LINE",
"0 818 LINE",
"664 818 LINE",
"664 -495 LINE"
);
}
);
};
components = (
{
alignment = -1;
name = _part.phlv.head.meemmedi;
transform = "{1, 0, 0, 1, -77, 0}";
},
{
alignment = -1;
name = _part.phlv.meemdowr.leftjoining;
transform = "{1, 0, 0, 1, -97, 0}";
}
);
layerId = "10A83A34-2C0B-4EA0-95B7-223E3205B8BF";
width = 664;
}
);
},
{
glyphname = "theh-ar";
layers = (
{
anchors = (
{
name = "#entry";
position = "{934, 0}";
},
{
name = top;
position = "{767, 416}";
}
);
background = {
paths = (
{
closed = 1;
nodes = (
"168 39 OFFCURVE",
"179 78 OFFCURVE",
"181 117 CURVE",
"144 117 OFFCURVE",
"115 124 OFFCURVE",
"98 137 CURVE",
"50 43 LINE",
"58 15 OFFCURVE",
"91 0 OFFCURVE",
"146 0 CURVE"
);
},
{
closed = 1;
nodes = (
"323 87 LINE",
"345 25 OFFCURVE",
"395 0 OFFCURVE",
"451 0 CURVE",
"483 39 OFFCURVE",
"494 78 OFFCURVE",
"486 117 CURVE",
"428 117 OFFCURVE",
"388 129 OFFCURVE",
"370 158 CURVE"
);
},
{
closed = 1;
nodes = (
"146 0 LINE",
"239 0 OFFCURVE",
"325 31 OFFCURVE",
"368 98 CURVE SMOOTH",
"395 140 OFFCURVE",
"409 183 OFFCURVE",
"409 227 CURVE SMOOTH",
"409 317 OFFCURVE",
"350 416 OFFCURVE",
"294 416 CURVE SMOOTH",
"260 416 OFFCURVE",
"246 401 OFFCURVE",
"209 301 CURVE SMOOTH",
"195 263 OFFCURVE",
"209 208 OFFCURVE",
"262 208 CURVE SMOOTH",
"291 208 OFFCURVE",
"313 222 OFFCURVE",
"328 243 CURVE",
"352 222 OFFCURVE",
"373 191 OFFCURVE",
"364 150 CURVE",
"313 128 OFFCURVE",
"235 117 OFFCURVE",
"181 117 CURVE"
);
},
{
closed = 1;
nodes = (
"451 0 LINE",
"544 0 OFFCURVE",
"630 31 OFFCURVE",
"673 98 CURVE SMOOTH",
"700 140 OFFCURVE",
"714 183 OFFCURVE",
"714 227 CURVE SMOOTH",
"714 317 OFFCURVE",
"655 416 OFFCURVE",
"599 416 CURVE SMOOTH",
"565 416 OFFCURVE",
"551 401 OFFCURVE",
"514 301 CURVE SMOOTH",
"500 263 OFFCURVE",
"514 208 OFFCURVE",
"567 208 CURVE SMOOTH",
"596 208 OFFCURVE",
"618 222 OFFCURVE",
"633 243 CURVE",
"657 222 OFFCURVE",
"678 191 OFFCURVE",
"669 150 CURVE",
"618 128 OFFCURVE",
"540 117 OFFCURVE",
"486 117 CURVE"
);
},
{
closed = 1;
nodes = (
"0 -495 LINE",
"0 818 LINE",
"764 818 LINE",
"764 -495 LINE"
);
}
);
};
components = (
{
alignment = -1;
name = _part.phlv.seen.alterform;
transform = "{1, 0, 0, 1, 307, 0}";
},
{
alignment = -1;
name = _part.phlv.right.connector;
transform = "{1, 0, 0, 1, -2, 0}";
},
{
alignment = -1;
name = _part.phlv.seen.alterform;
transform = "{1, 0, 0, 1, 2, 0}";
},
{
alignment = -1;
name = _part.phlv.part.phlv.keheh_ending;
transform = "{1, 0, 0, 1, 2, 0}";
}
);
layerId = "10A83A34-2C0B-4EA0-95B7-223E3205B8BF";
width = 764;
}
);
unicode = 062B;
},
{
glyphname = "theh-ar.fina";
layers = (
{
anchors = (
{
name = top;
position = "{460, 416}";
}
);
background = {
paths = (
{
closed = 1;
nodes = (
"628 87 LINE",
"650 25 OFFCURVE",
"700 0 OFFCURVE",
"756 0 CURVE",
"788 39 OFFCURVE",
"799 78 OFFCURVE",
"791 117 CURVE",
"733 117 OFFCURVE",
"693 129 OFFCURVE",
"675 158 CURVE"
);
},
{
closed = 1;
nodes = (
"168 39 OFFCURVE",
"179 78 OFFCURVE",
"181 117 CURVE",
"144 117 OFFCURVE",
"115 124 OFFCURVE",
"98 137 CURVE",
"50 43 LINE",
"58 15 OFFCURVE",
"91 0 OFFCURVE",
"146 0 CURVE"
);
},
{
closed = 1;
nodes = (
"323 87 LINE",
"345 25 OFFCURVE",
"395 0 OFFCURVE",
"451 0 CURVE",
"483 39 OFFCURVE",
"494 78 OFFCURVE",
"486 117 CURVE",
"428 117 OFFCURVE",
"388 129 OFFCURVE",
"370 158 CURVE"
);
},
{
closed = 1;
nodes = (
"146 0 LINE",
"239 0 OFFCURVE",
"325 31 OFFCURVE",
"368 98 CURVE SMOOTH",
"395 140 OFFCURVE",
"409 183 OFFCURVE",
"409 227 CURVE SMOOTH",
"409 317 OFFCURVE",
"350 416 OFFCURVE",
"294 416 CURVE SMOOTH",
"260 416 OFFCURVE",
"246 401 OFFCURVE",
"209 301 CURVE SMOOTH",
"195 263 OFFCURVE",
"209 208 OFFCURVE",
"262 208 CURVE SMOOTH",
"291 208 OFFCURVE",
"313 222 OFFCURVE",
"328 243 CURVE",
"352 222 OFFCURVE",
"373 191 OFFCURVE",
"364 150 CURVE",
"313 128 OFFCURVE",
"235 117 OFFCURVE",
"181 117 CURVE"
);
},
{
closed = 1;
nodes = (
"451 0 LINE",
"544 0 OFFCURVE",
"630 31 OFFCURVE",
"673 98 CURVE SMOOTH",
"700 140 OFFCURVE",
"714 183 OFFCURVE",
"714 227 CURVE SMOOTH",
"714 317 OFFCURVE",
"655 416 OFFCURVE",
"599 416 CURVE SMOOTH",
"565 416 OFFCURVE",
"551 401 OFFCURVE",
"514 301 CURVE SMOOTH",
"500 263 OFFCURVE",
"514 208 OFFCURVE",
"567 208 CURVE SMOOTH",
"596 208 OFFCURVE",
"618 222 OFFCURVE",
"633 243 CURVE",
"657 222 OFFCURVE",
"678 191 OFFCURVE",
"669 150 CURVE",
"618 128 OFFCURVE",
"540 117 OFFCURVE",
"486 117 CURVE"
);
},
{
closed = 1;
nodes = (
"0 -495 LINE",
"0 818 LINE",
"756 818 LINE",
"756 -495 LINE"
);
}
);
};
components = (
{
alignment = -1;
name = _part.phlv.right.connector;
transform = "{1, 0, 0, 1, 303, 0}";
},
{
alignment = -1;
name = "theh-ar";
}
);
layerId = "10A83A34-2C0B-4EA0-95B7-223E3205B8BF";
width = 756;
}
);
},
{
glyphname = "theh-ar.medi";
layers = (
{
anchors = (
{
name = top;
position = "{313, 416}";
}
);
background = {
paths = (
{
closed = 1;
nodes = (
"177 87 LINE",
"199 25 OFFCURVE",
"249 0 OFFCURVE",
"305 0 CURVE",
"337 39 OFFCURVE",
"348 78 OFFCURVE",
"340 117 CURVE",
"282 117 OFFCURVE",
"242 129 OFFCURVE",
"224 158 CURVE"
);
},
{
closed = 1;
nodes = (
"0 0 LINE",
"93 0 OFFCURVE",
"179 31 OFFCURVE",
"222 98 CURVE SMOOTH",
"249 140 OFFCURVE",
"263 183 OFFCURVE",
"263 227 CURVE SMOOTH",
"263 317 OFFCURVE",
"204 416 OFFCURVE",
"148 416 CURVE SMOOTH",
"114 416 OFFCURVE",
"100 401 OFFCURVE",
"63 301 CURVE SMOOTH",
"49 263 OFFCURVE",
"63 208 OFFCURVE",
"116 208 CURVE SMOOTH",
"145 208 OFFCURVE",
"167 222 OFFCURVE",
"182 243 CURVE",
"206 222 OFFCURVE",
"227 191 OFFCURVE",
"218 150 CURVE",
"167 128 OFFCURVE",
"89 117 OFFCURVE",
"35 117 CURVE"
);
},
{
closed = 1;
nodes = (
"305 0 LINE",
"398 0 OFFCURVE",
"484 31 OFFCURVE",
"527 98 CURVE SMOOTH",
"554 140 OFFCURVE",
"568 183 OFFCURVE",
"568 227 CURVE SMOOTH",
"568 317 OFFCURVE",
"509 416 OFFCURVE",
"453 416 CURVE SMOOTH",
"419 416 OFFCURVE",
"405 401 OFFCURVE",
"368 301 CURVE SMOOTH",
"354 263 OFFCURVE",
"368 208 OFFCURVE",
"421 208 CURVE SMOOTH",
"450 208 OFFCURVE",
"472 222 OFFCURVE",
"487 243 CURVE",
"511 222 OFFCURVE",
"532 191 OFFCURVE",
"523 150 CURVE",
"472 128 OFFCURVE",
"394 117 OFFCURVE",
"340 117 CURVE"
);
},
{
closed = 1;
nodes = (
"482 87 LINE",
"504 25 OFFCURVE",
"554 0 OFFCURVE",
"610 0 CURVE",
"642 39 OFFCURVE",
"653 78 OFFCURVE",
"645 117 CURVE",
"587 117 OFFCURVE",
"547 129 OFFCURVE",
"529 158 CURVE"
);
},
{
closed = 1;
nodes = (
"0 -495 LINE",
"0 818 LINE",
"610 818 LINE",
"610 -495 LINE"
);
}
);
};
components = (
{
alignment = -1;
name = _part.phlv.right.connector;
transform = "{1, 0, 0, 1, 157, 0}";
},
{
alignment = -1;
name = "theh-ar.init";
}
);
layerId = "10A83A34-2C0B-4EA0-95B7-223E3205B8BF";
width = 610;
}
);
},
{
glyphname = "theh-ar.init";
layers = (
{
anchors = (
{
name = "#entry";
position = "{456, 0}";
},
{
name = top;
position = "{290, 416}";
}
);
background = {
paths = (
{
closed = 1;
nodes = (
"177 87 LINE",
"199 25 OFFCURVE",
"249 0 OFFCURVE",
"305 0 CURVE",
"337 39 OFFCURVE",
"348 78 OFFCURVE",
"340 117 CURVE",
"282 117 OFFCURVE",
"242 129 OFFCURVE",
"224 158 CURVE"
);
},
{
closed = 1;
nodes = (
"0 0 LINE",
"93 0 OFFCURVE",
"179 31 OFFCURVE",
"222 98 CURVE SMOOTH",
"249 140 OFFCURVE",
"263 183 OFFCURVE",
"263 227 CURVE SMOOTH",
"263 317 OFFCURVE",
"204 416 OFFCURVE",
"148 416 CURVE SMOOTH",
"114 416 OFFCURVE",
"100 401 OFFCURVE",
"63 301 CURVE SMOOTH",
"49 263 OFFCURVE",
"63 208 OFFCURVE",
"116 208 CURVE SMOOTH",
"145 208 OFFCURVE",
"167 222 OFFCURVE",
"182 243 CURVE",
"206 222 OFFCURVE",
"227 191 OFFCURVE",
"218 150 CURVE",
"167 128 OFFCURVE",
"89 117 OFFCURVE",
"35 117 CURVE"
);
},
{
closed = 1;
nodes = (
"305 0 LINE",
"398 0 OFFCURVE",
"484 31 OFFCURVE",
"527 98 CURVE SMOOTH",
"554 140 OFFCURVE",
"568 183 OFFCURVE",
"568 227 CURVE SMOOTH",
"568 317 OFFCURVE",
"509 416 OFFCURVE",
"453 416 CURVE SMOOTH",
"419 416 OFFCURVE",
"405 401 OFFCURVE",
"368 301 CURVE SMOOTH",
"354 263 OFFCURVE",
"368 208 OFFCURVE",
"421 208 CURVE SMOOTH",
"450 208 OFFCURVE",
"472 222 OFFCURVE",
"487 243 CURVE",
"511 222 OFFCURVE",
"532 191 OFFCURVE",
"523 150 CURVE",
"472 128 OFFCURVE",
"394 117 OFFCURVE",
"340 117 CURVE"
);
},
{
closed = 1;
nodes = (
"0 -495 LINE",
"0 818 LINE",
"618 818 LINE",
"618 -495 LINE"
);
}
);
};
components = (
{
alignment = -1;
name = _part.phlv.seen.alterform;
transform = "{1, 0, 0, 1, 161, 0}";
},
{
alignment = -1;
name = _part.phlv.right.connector;
transform = "{1, 0, 0, 1, -148, 0}";
},
{
alignment = -1;
name = _part.phlv.seen.alterform;
transform = "{1, 0, 0, 1, -144, 0}";
}
);
layerId = "10A83A34-2C0B-4EA0-95B7-223E3205B8BF";
width = 618;
}
);
},
{
glyphname = "peh-ar";
layers = (
{
background = {
paths = (
{
closed = 1;
nodes = (
"50 -136 OFFCURVE",
"116 -231 OFFCURVE",
"282 -231 CURVE",
"304 -192 OFFCURVE",
"315 -153 OFFCURVE",
"317 -114 CURVE",
"174 -114 OFFCURVE",
"102 -56 OFFCURVE",
"102 41 CURVE",
"85 33 OFFCURVE",
"67 15 OFFCURVE",
"50 -13 CURVE"
);
},
{
closed = 1;
nodes = (
"102 41 LINE",
"102 142 OFFCURVE",
"202 279 OFFCURVE",
"263 279 CURVE SMOOTH",
"310 279 OFFCURVE",
"340 214 OFFCURVE",
"349 191 CURVE",
"326 168 OFFCURVE",
"264 144 OFFCURVE",
"197 144 CURVE SMOOTH",
"163 144 OFFCURVE",
"139 151 OFFCURVE",
"122 164 CURVE",
"74 70 LINE",
"82 42 OFFCURVE",
"122 27 OFFCURVE",
"162 27 CURVE SMOOTH",
"238 27 OFFCURVE",
"292 66 OFFCURVE",
"322 100 CURVE SMOOTH",
"351 134 OFFCURVE",
"391 194 OFFCURVE",
"391 248 CURVE SMOOTH",
"391 307 OFFCURVE",
"360 396 OFFCURVE",
"308 396 CURVE SMOOTH",
"234 396 OFFCURVE",
"50 134 OFFCURVE",
"50 -13 CURVE"
);
},
{
closed = 1;
nodes = (
"295 -153 OFFCURVE",
"284 -192 OFFCURVE",
"282 -231 CURVE",
"436 -231 OFFCURVE",
"560 -176 OFFCURVE",
"606 -96 CURVE SMOOTH",
"676 26 OFFCURVE",
"666 149 OFFCURVE",
"637 270 CURVE SMOOTH",
"602 416 LINE",
"590 416 LINE",
"535 307 LINE",
"571 174 LINE SMOOTH",
"599 71 OFFCURVE",
"613 4 OFFCURVE",
"590 -54 CURVE",
"518 -92 OFFCURVE",
"408 -114 OFFCURVE",
"317 -114 CURVE"
);
},
{
closed = 1;
nodes = (
"0 -495 LINE",
"0 818 LINE",
"709 818 LINE",
"709 -495 LINE"
);
}
);
};
components = (
{
name = _part.phlv.head.peh;
},
{
name = _part.phlv.peh.ending;
}
);
layerId = "10A83A34-2C0B-4EA0-95B7-223E3205B8BF";
width = 709;
}
);
unicode = 067E;
},
{
glyphname = "peh-ar.fina";
layers = (
{
background = {
paths = (
{
closed = 1;
nodes = (
"50 -136 OFFCURVE",
"116 -231 OFFCURVE",
"282 -231 CURVE",
"304 -192 OFFCURVE",
"315 -153 OFFCURVE",
"317 -114 CURVE",
"174 -114 OFFCURVE",
"102 -56 OFFCURVE",
"102 41 CURVE",
"85 33 OFFCURVE",
"67 15 OFFCURVE",
"50 -13 CURVE"
);
},
{
closed = 1;
nodes = (
"102 41 LINE",
"102 142 OFFCURVE",
"202 279 OFFCURVE",
"263 279 CURVE SMOOTH",
"310 279 OFFCURVE",
"340 214 OFFCURVE",
"349 191 CURVE",
"326 168 OFFCURVE",
"264 144 OFFCURVE",
"197 144 CURVE SMOOTH",
"163 144 OFFCURVE",
"139 151 OFFCURVE",
"122 164 CURVE",
"74 70 LINE",
"82 42 OFFCURVE",
"122 27 OFFCURVE",
"162 27 CURVE SMOOTH",
"238 27 OFFCURVE",
"292 66 OFFCURVE",
"322 100 CURVE SMOOTH",
"351 134 OFFCURVE",
"391 194 OFFCURVE",
"391 248 CURVE SMOOTH",
"391 307 OFFCURVE",
"360 396 OFFCURVE",
"308 396 CURVE SMOOTH",
"234 396 OFFCURVE",
"50 134 OFFCURVE",
"50 -13 CURVE"
);
},
{
closed = 1;
nodes = (
"575 121 OFFCURVE",
"617 30 OFFCURVE",
"590 -54 CURVE",
"518 -92 OFFCURVE",
"408 -114 OFFCURVE",
"317 -114 CURVE",
"282 -231 LINE",
"436 -231 OFFCURVE",
"559 -175 OFFCURVE",
"606 -96 CURVE SMOOTH",
"639 -41 OFFCURVE",
"650 20 OFFCURVE",
"658 66 CURVE",
"620 51 LINE",
"637 21 OFFCURVE",
"667 0 OFFCURVE",
"712 0 CURVE",
"744 39 OFFCURVE",
"755 78 OFFCURVE",
"747 117 CURVE",
"663 117 OFFCURVE",
"643 181 OFFCURVE",
"606 271 CURVE SMOOTH",
"568 362 LINE",
"556 362 LINE",
"508 269 LINE"
);
},
{
closed = 1;
nodes = (
"0 -495 LINE",
"0 818 LINE",
"712 818 LINE",
"712 -495 LINE"
);
}
);
};
components = (
{
alignment = -1;
name = _part.phlv.peh.vasl;
transform = "{1, 0, 0, 1, 282, 0}";
},
{
alignment = -1;
name = _part.phlv.peh.ending;
}
);
layerId = "10A83A34-2C0B-4EA0-95B7-223E3205B8BF";
width = 712;
}
);
},
{
glyphname = "tcheh-ar";
layers = (
{
anchors = (
{
name = "#entry";
position = "{446, 0}";
}
);
background = {
paths = (
{
closed = 1;
nodes = (
"50 78 LINE",
"50 42 OFFCURVE",
"56 -10 OFFCURVE",
"119 -67 CURVE SMOOTH",
"229 -167 OFFCURVE",
"302 -222 OFFCURVE",
"303 -288 CURVE SMOOTH",
"303 -300 OFFCURVE",
"299 -317 OFFCURVE",
"296 -330 CURVE",
"325 -339 LINE",
"333 -317 OFFCURVE",
"354 -256 OFFCURVE",
"354 -212 CURVE SMOOTH",
"354 -133 OFFCURVE",
"285 -86 OFFCURVE",
"197 -14 CURVE SMOOTH",
"145 28 OFFCURVE",
"82 79 OFFCURVE",
"93 128 CURVE"
);
},
{
closed = 1;
nodes = (
"87 109 LINE",
"123 177 OFFCURVE",
"292 299 OFFCURVE",
"395 299 CURVE SMOOTH",
"465 299 OFFCURVE",
"481 242 OFFCURVE",
"481 212 CURVE",
"467 184 OFFCURVE",
"431 149 OFFCURVE",
"378 149 CURVE SMOOTH",
"318 149 OFFCURVE",
"280 204 OFFCURVE",
"280 271 CURVE",
"224 250 LINE",
"224 108 OFFCURVE",
"271 32 OFFCURVE",
"343 32 CURVE SMOOTH",
"440 32 OFFCURVE",
"526 183 OFFCURVE",
"526 288 CURVE SMOOTH",
"526 347 OFFCURVE",
"494 416 OFFCURVE",
"424 416 CURVE SMOOTH",
"327 416 OFFCURVE",
"197 315 OFFCURVE",
"125 242 CURVE SMOOTH",
"81 198 OFFCURVE",
"50 119 OFFCURVE",
"50 78 CURVE"
);
},
{
closed = 1;
nodes = (
"0 -495 LINE",
"0 818 LINE",
"576 818 LINE",
"576 -495 LINE"
);
}
);
};
guideLines = (
{
position = "{1504, 648}";
},
{
position = "{1528, 0}";
}
);
layerId = "10A83A34-2C0B-4EA0-95B7-223E3205B8BF";
paths = (
{
closed = 1;
nodes = (
"50 78 LINE",
"50 42 OFFCURVE",
"56 -10 OFFCURVE",
"119 -67 CURVE SMOOTH",
"229 -167 OFFCURVE",
"302 -222 OFFCURVE",
"303 -288 CURVE SMOOTH",
"303 -300 OFFCURVE",
"299 -317 OFFCURVE",
"296 -330 CURVE",
"325 -339 LINE",
"333 -317 OFFCURVE",
"354 -256 OFFCURVE",
"354 -212 CURVE SMOOTH",
"354 -133 OFFCURVE",
"285 -86 OFFCURVE",
"197 -14 CURVE SMOOTH",
"145 28 OFFCURVE",
"82 79 OFFCURVE",
"93 128 CURVE"
);
},
{
closed = 1;
nodes = (
"87 109 LINE",
"123 177 OFFCURVE",
"292 299 OFFCURVE",
"395 299 CURVE SMOOTH",
"465 299 OFFCURVE",
"481 242 OFFCURVE",
"481 212 CURVE",
"467 184 OFFCURVE",
"431 149 OFFCURVE",
"378 149 CURVE SMOOTH",
"318 149 OFFCURVE",
"280 204 OFFCURVE",
"280 271 CURVE",
"224 250 LINE",
"224 108 OFFCURVE",
"271 32 OFFCURVE",
"343 32 CURVE SMOOTH",
"440 32 OFFCURVE",
"526 183 OFFCURVE",
"526 288 CURVE SMOOTH",
"526 347 OFFCURVE",
"494 416 OFFCURVE",
"424 416 CURVE SMOOTH",
"327 416 OFFCURVE",
"197 315 OFFCURVE",
"125 242 CURVE SMOOTH",
"81 198 OFFCURVE",
"50 119 OFFCURVE",
"50 78 CURVE"
);
}
);
width = 576;
}
);
unicode = 0686;
},
{
glyphname = "tcheh-ar.fina";
layers = (
{
background = {
paths = (
{
closed = 1;
nodes = (
"50 78 LINE",
"50 42 OFFCURVE",
"56 -10 OFFCURVE",
"119 -67 CURVE SMOOTH",
"229 -167 OFFCURVE",
"302 -222 OFFCURVE",
"303 -288 CURVE SMOOTH",
"303 -300 OFFCURVE",
"299 -317 OFFCURVE",
"296 -330 CURVE",
"325 -339 LINE",
"333 -317 OFFCURVE",
"354 -256 OFFCURVE",
"354 -212 CURVE SMOOTH",
"354 -133 OFFCURVE",
"285 -86 OFFCURVE",
"197 -14 CURVE SMOOTH",
"145 28 OFFCURVE",
"82 79 OFFCURVE",
"93 128 CURVE"
);
},
{
closed = 1;
nodes = (
"87 109 LINE",
"123 177 OFFCURVE",
"292 299 OFFCURVE",
"395 299 CURVE SMOOTH",
"465 299 OFFCURVE",
"481 242 OFFCURVE",
"481 212 CURVE",
"467 184 OFFCURVE",
"431 149 OFFCURVE",
"378 149 CURVE SMOOTH",
"318 149 OFFCURVE",
"280 204 OFFCURVE",
"280 271 CURVE",
"224 250 LINE",
"224 108 OFFCURVE",
"271 32 OFFCURVE",
"343 32 CURVE SMOOTH",
"440 32 OFFCURVE",
"526 183 OFFCURVE",
"526 288 CURVE SMOOTH",
"526 347 OFFCURVE",
"494 416 OFFCURVE",
"424 416 CURVE SMOOTH",
"327 416 OFFCURVE",
"197 315 OFFCURVE",
"125 242 CURVE SMOOTH",
"81 198 OFFCURVE",
"50 119 OFFCURVE",
"50 78 CURVE"
);
},
{
closed = 1;
nodes = (
"444 87 LINE",
"466 25 OFFCURVE",
"516 0 OFFCURVE",
"572 0 CURVE",
"604 39 OFFCURVE",
"615 78 OFFCURVE",
"607 117 CURVE",
"549 117 OFFCURVE",
"509 129 OFFCURVE",
"491 158 CURVE"
);
},
{
closed = 1;
nodes = (
"0 -495 LINE",
"0 818 LINE",
"572 818 LINE",
"572 -495 LINE"
);
}
);
};
components = (
{
alignment = -1;
name = _part.phlv.right.connector;
transform = "{1, 0, 0, 1, 119, 0}";
},
{
alignment = -1;
name = "tcheh-ar";
}
);
layerId = "10A83A34-2C0B-4EA0-95B7-223E3205B8BF";
width = 572;
}
);
},
{
glyphname = "sad-ar";
layers = (
{
anchors = (
{
name = "#entry";
position = "{1128, 0}";
}
);
background = {
paths = (
{
closed = 1;
nodes = (
"784 -153 OFFCURVE",
"773 -192 OFFCURVE",
"771 -231 CURVE",
"925 -231 OFFCURVE",
"1049 -176 OFFCURVE",
"1095 -96 CURVE SMOOTH",
"1165 26 OFFCURVE",
"1155 149 OFFCURVE",
"1126 270 CURVE SMOOTH",
"1091 416 LINE",
"1079 416 LINE",
"1024 307 LINE",
"1060 174 LINE SMOOTH",
"1088 71 OFFCURVE",
"1102 4 OFFCURVE",
"1079 -54 CURVE",
"1007 -92 OFFCURVE",
"897 -114 OFFCURVE",
"806 -114 CURVE"
);
},
{
closed = 1;
nodes = (
"168 39 OFFCURVE",
"179 78 OFFCURVE",
"181 117 CURVE",
"144 117 OFFCURVE",
"115 124 OFFCURVE",
"98 137 CURVE",
"50 43 LINE",
"58 15 OFFCURVE",
"91 0 OFFCURVE",
"146 0 CURVE"
);
},
{
closed = 1;
nodes = (
"278 87 LINE",
"300 25 OFFCURVE",
"350 0 OFFCURVE",
"406 0 CURVE",
"438 39 OFFCURVE",
"449 78 OFFCURVE",
"441 117 CURVE",
"383 117 OFFCURVE",
"343 129 OFFCURVE",
"325 158 CURVE"
);
},
{
closed = 1;
nodes = (
"149 78 OFFCURVE",
"146 29 OFFCURVE",
"146 0 CURVE",
"287 0 OFFCURVE",
"373 142 OFFCURVE",
"373 245 CURVE SMOOTH",
"373 297 OFFCURVE",
"353 348 OFFCURVE",
"325 416 CURVE",
"313 416 LINE",
"265 323 LINE",
"288 277 OFFCURVE",
"324 189 OFFCURVE",
"314 150 CURVE",
"280 129 OFFCURVE",
"225 117 OFFCURVE",
"181 117 CURVE"
);
},
{
closed = 1;
nodes = (
"803 -192 OFFCURVE",
"814 -153 OFFCURVE",
"806 -114 CURVE",
"663 -114 OFFCURVE",
"600 -56 OFFCURVE",
"600 41 CURVE SMOOTH",
"600 126 OFFCURVE",
"632 192 OFFCURVE",
"682 283 CURVE",
"653 292 LINE",
"589 193 OFFCURVE",
"539 87 OFFCURVE",
"539 -13 CURVE SMOOTH",
"539 -136 OFFCURVE",
"605 -231 OFFCURVE",
"771 -231 CURVE"
);
},
{
closed = 1;
nodes = (
"405 0 LINE",
"481 0 OFFCURVE",
"561 39 OFFCURVE",
"617 162 CURVE",
"614 176 LINE",
"556 128 OFFCURVE",
"484 117 OFFCURVE",
"440 117 CURVE"
);
},
{
closed = 1;
nodes = (
"0 -495 LINE",
"0 818 LINE",
"1198 818 LINE",
"1198 -495 LINE"
);
}
);
};
components = (
{
alignment = -1;
name = _part.phlv.head.peh;
transform = "{1, 0, 0, 1, 489, 0}";
},
{
alignment = -1;
name = "alef-ar.fina";
}
);
layerId = "10A83A34-2C0B-4EA0-95B7-223E3205B8BF";
width = 1198;
}
);
unicode = 0635;
},
{
glyphname = "sad-ar.fina";
layers = (
{
background = {
paths = (
{
closed = 1;
nodes = (
"168 39 OFFCURVE",
"179 78 OFFCURVE",
"181 117 CURVE",
"144 117 OFFCURVE",
"115 124 OFFCURVE",
"98 137 CURVE",
"50 43 LINE",
"58 15 OFFCURVE",
"91 0 OFFCURVE",
"146 0 CURVE"
);
},
{
closed = 1;
nodes = (
"278 87 LINE",
"300 25 OFFCURVE",
"350 0 OFFCURVE",
"406 0 CURVE",
"438 39 OFFCURVE",
"449 78 OFFCURVE",
"441 117 CURVE",
"383 117 OFFCURVE",
"343 129 OFFCURVE",
"325 158 CURVE"
);
},
{
closed = 1;
nodes = (
"149 78 OFFCURVE",
"146 29 OFFCURVE",
"146 0 CURVE",
"287 0 OFFCURVE",
"373 142 OFFCURVE",
"373 245 CURVE SMOOTH",
"373 297 OFFCURVE",
"353 348 OFFCURVE",
"325 416 CURVE",
"313 416 LINE",
"265 323 LINE",
"288 277 OFFCURVE",
"324 189 OFFCURVE",
"314 150 CURVE",
"280 129 OFFCURVE",
"225 117 OFFCURVE",
"181 117 CURVE"
);
},
{
closed = 1;
nodes = (
"803 -192 OFFCURVE",
"814 -153 OFFCURVE",
"806 -114 CURVE",
"663 -114 OFFCURVE",
"600 -56 OFFCURVE",
"600 41 CURVE SMOOTH",
"600 126 OFFCURVE",
"632 192 OFFCURVE",
"682 283 CURVE",
"653 292 LINE",
"589 193 OFFCURVE",
"539 87 OFFCURVE",
"539 -13 CURVE SMOOTH",
"539 -136 OFFCURVE",
"605 -231 OFFCURVE",
"771 -231 CURVE"
);
},
{
closed = 1;
nodes = (
"405 0 LINE",
"481 0 OFFCURVE",
"561 39 OFFCURVE",
"617 162 CURVE",
"614 176 LINE",
"556 128 OFFCURVE",
"484 117 OFFCURVE",
"440 117 CURVE"
);
},
{
closed = 1;
nodes = (
"1064 121 OFFCURVE",
"1106 30 OFFCURVE",
"1079 -54 CURVE",
"1007 -92 OFFCURVE",
"897 -114 OFFCURVE",
"806 -114 CURVE",
"771 -231 LINE",
"925 -231 OFFCURVE",
"1048 -175 OFFCURVE",
"1095 -96 CURVE SMOOTH",
"1128 -41 OFFCURVE",
"1139 20 OFFCURVE",
"1147 66 CURVE",
"1109 51 LINE",
"1126 21 OFFCURVE",
"1156 0 OFFCURVE",
"1201 0 CURVE",
"1233 39 OFFCURVE",
"1244 78 OFFCURVE",
"1236 117 CURVE",
"1152 117 OFFCURVE",
"1132 181 OFFCURVE",
"1095 271 CURVE SMOOTH",
"1057 362 LINE",
"1045 362 LINE",
"997 269 LINE"
);
},
{
closed = 1;
nodes = (
"0 -495 LINE",
"0 818 LINE",
"1201 818 LINE",
"1201 -495 LINE"
);
}
);
};
components = (
{
alignment = -1;
name = _part.phlv.peh.vasl;
transform = "{1, 0, 0, 1, 771, 0}";
},
{
alignment = -1;
name = "alef-ar.fina";
}
);
layerId = "10A83A34-2C0B-4EA0-95B7-223E3205B8BF";
width = 1201;
}
);
},
{
glyphname = "sad-ar.medi";
layers = (
{
anchors = (
{
name = "#entry";
position = "{132, 0}";
},
{
name = "#exit";
position = "{0, 0}";
}
);
background = {
paths = (
{
closed = 1;
nodes = (
"132 87 LINE",
"154 25 OFFCURVE",
"204 0 OFFCURVE",
"260 0 CURVE",
"292 39 OFFCURVE",
"303 78 OFFCURVE",
"295 117 CURVE",
"237 117 OFFCURVE",
"197 129 OFFCURVE",
"179 158 CURVE"
);
},
{
closed = 1;
nodes = (
"3 78 OFFCURVE",
"0 29 OFFCURVE",
"0 0 CURVE",
"141 0 OFFCURVE",
"227 142 OFFCURVE",
"227 245 CURVE SMOOTH",
"227 297 OFFCURVE",
"207 348 OFFCURVE",
"179 416 CURVE",
"167 416 LINE",
"119 323 LINE",
"142 277 OFFCURVE",
"178 189 OFFCURVE",
"168 150 CURVE",
"134 129 OFFCURVE",
"79 117 OFFCURVE",
"35 117 CURVE"
);
},
{
closed = 1;
nodes = (
"657 -192 OFFCURVE",
"668 -153 OFFCURVE",
"660 -114 CURVE",
"517 -114 OFFCURVE",
"454 -56 OFFCURVE",
"454 41 CURVE SMOOTH",
"454 126 OFFCURVE",
"486 192 OFFCURVE",
"536 283 CURVE",
"507 292 LINE",
"443 193 OFFCURVE",
"393 87 OFFCURVE",
"393 -13 CURVE SMOOTH",
"393 -136 OFFCURVE",
"459 -231 OFFCURVE",
"625 -231 CURVE"
);
},
{
closed = 1;
nodes = (
"259 0 LINE",
"335 0 OFFCURVE",
"415 39 OFFCURVE",
"471 162 CURVE",
"468 176 LINE",
"410 128 OFFCURVE",
"338 117 OFFCURVE",
"294 117 CURVE"
);
},
{
closed = 1;
nodes = (
"918 121 OFFCURVE",
"960 30 OFFCURVE",
"933 -54 CURVE",
"861 -92 OFFCURVE",
"751 -114 OFFCURVE",
"660 -114 CURVE",
"625 -231 LINE",
"779 -231 OFFCURVE",
"902 -175 OFFCURVE",
"949 -96 CURVE SMOOTH",
"982 -41 OFFCURVE",
"993 20 OFFCURVE",
"1001 66 CURVE",
"963 51 LINE",
"980 21 OFFCURVE",
"1010 0 OFFCURVE",
"1055 0 CURVE",
"1087 39 OFFCURVE",
"1098 78 OFFCURVE",
"1090 117 CURVE",
"1006 117 OFFCURVE",
"986 181 OFFCURVE",
"949 271 CURVE SMOOTH",
"911 362 LINE",
"899 362 LINE",
"851 269 LINE"
);
},
{
closed = 1;
nodes = (
"0 -495 LINE",
"0 818 LINE",
"1055 818 LINE",
"1055 -495 LINE"
);
}
);
};
components = (
{
alignment = -1;
name = _part.phlv.peh.vasl;
transform = "{1, 0, 0, 1, 625, 0}";
},
{
alignment = -1;
name = _part.phlv.belly.teeth;
transform = "{1, 0, 0, 1, 259, 0}";
},
{
alignment = -1;
name = _part.phlv.right.connector;
transform = "{1, 0, 0, 1, -193, 0}";
},
{
alignment = -1;
name = "ain-ar.init.BL";
}
);
layerId = "10A83A34-2C0B-4EA0-95B7-223E3205B8BF";
width = 1055;
}
);
},
{
glyphname = "sad-ar.init";
layers = (
{
anchors = (
{
name = "#entry";
position = "{982, 0}";
},
{
name = "#exit";
position = "{0, 0}";
}
);
background = {
paths = (
{
closed = 1;
nodes = (
"132 87 LINE",
"154 25 OFFCURVE",
"204 0 OFFCURVE",
"260 0 CURVE",
"292 39 OFFCURVE",
"303 78 OFFCURVE",
"295 117 CURVE",
"237 117 OFFCURVE",
"197 129 OFFCURVE",
"179 158 CURVE"
);
},
{
closed = 1;
nodes = (
"3 78 OFFCURVE",
"0 29 OFFCURVE",
"0 0 CURVE",
"141 0 OFFCURVE",
"227 142 OFFCURVE",
"227 245 CURVE SMOOTH",
"227 297 OFFCURVE",
"207 348 OFFCURVE",
"179 416 CURVE",
"167 416 LINE",
"119 323 LINE",
"142 277 OFFCURVE",
"178 189 OFFCURVE",
"168 150 CURVE",
"134 129 OFFCURVE",
"79 117 OFFCURVE",
"35 117 CURVE"
);
},
{
closed = 1;
nodes = (
"657 -192 OFFCURVE",
"668 -153 OFFCURVE",
"660 -114 CURVE",
"517 -114 OFFCURVE",
"454 -56 OFFCURVE",
"454 41 CURVE SMOOTH",
"454 126 OFFCURVE",
"486 192 OFFCURVE",
"536 283 CURVE",
"507 292 LINE",
"443 193 OFFCURVE",
"393 87 OFFCURVE",
"393 -13 CURVE SMOOTH",
"393 -136 OFFCURVE",
"459 -231 OFFCURVE",
"625 -231 CURVE"
);
},
{
closed = 1;
nodes = (
"259 0 LINE",
"335 0 OFFCURVE",
"415 39 OFFCURVE",
"471 162 CURVE",
"468 176 LINE",
"410 128 OFFCURVE",
"338 117 OFFCURVE",
"294 117 CURVE"
);
},
{
closed = 1;
nodes = (
"638 -153 OFFCURVE",
"627 -192 OFFCURVE",
"625 -231 CURVE",
"779 -231 OFFCURVE",
"903 -176 OFFCURVE",
"949 -96 CURVE SMOOTH",
"1019 26 OFFCURVE",
"1009 149 OFFCURVE",
"980 270 CURVE SMOOTH",
"945 416 LINE",
"933 416 LINE",
"878 307 LINE",
"914 174 LINE SMOOTH",
"942 71 OFFCURVE",
"956 4 OFFCURVE",
"933 -54 CURVE",
"861 -92 OFFCURVE",
"751 -114 OFFCURVE",
"660 -114 CURVE"
);
},
{
closed = 1;
nodes = (
"0 -495 LINE",
"0 818 LINE",
"1052 818 LINE",
"1052 -495 LINE"
);
}
);
};
components = (
{
alignment = -1;
name = _part.phlv.head.peh;
transform = "{1, 0, 0, 1, 343, 0}";
},
{
alignment = -1;
name = _part.phlv.belly.teeth;
transform = "{1, 0, 0, 1, 259, 0}";
},
{
alignment = -1;
name = _part.phlv.right.connector;
transform = "{1, 0, 0, 1, -193, 0}";
},
{
alignment = -1;
name = "ain-ar.init.BL";
}
);
layerId = "10A83A34-2C0B-4EA0-95B7-223E3205B8BF";
width = 1052;
}
);
},
{
glyphname = "teh-ar";
layers = (
{
anchors = (
{
name = "#entry";
position = "{550, 0}";
}
);
background = {
paths = (
{
closed = 1;
nodes = (
"165 100 LINE",
"196 47 OFFCURVE",
"230 0 OFFCURVE",
"327 0 CURVE SMOOTH",
"430 0 OFFCURVE",
"528 40 OFFCURVE",
"579 99 CURVE SMOOTH",
"609 132 OFFCURVE",
"636 184 OFFCURVE",
"636 238 CURVE SMOOTH",
"636 312 OFFCURVE",
"526 416 OFFCURVE",
"462 416 CURVE SMOOTH",
"360 416 OFFCURVE",
"302 213 OFFCURVE",
"271 110 CURVE",
"309 99 LINE",
"332 187 OFFCURVE",
"367 299 OFFCURVE",
"425 299 CURVE SMOOTH",
"477 299 OFFCURVE",
"556 235 OFFCURVE",
"594 191 CURVE",
"565 162 OFFCURVE",
"474 117 OFFCURVE",
"362 117 CURVE SMOOTH",
"257 117 OFFCURVE",
"214 146 OFFCURVE",
"171 226 CURVE"
);
},
{
closed = 1;
nodes = (
"171 226 LINE",
"153 261 OFFCURVE",
"133 306 OFFCURVE",
"110 362 CURVE",
"98 362 LINE",
"50 269 LINE",
"118 140 LINE SMOOTH",
"154 71 OFFCURVE",
"161 20 OFFCURVE",
"161 -45 CURVE SMOOTH",
"161 -100 OFFCURVE",
"150 -165 OFFCURVE",
"137 -235 CURVE",
"166 -244 LINE",
"199 -149 OFFCURVE",
"220 -70 OFFCURVE",
"218 0 CURVE SMOOTH",
"216 57 LINE"
);
},
{
closed = 1;
nodes = (
"0 -495 LINE",
"0 818 LINE",
"686 818 LINE",
"686 -495 LINE"
);
}
);
};
components = (
{
name = _part.phlv.reh.last;
}
);
layerId = "10A83A34-2C0B-4EA0-95B7-223E3205B8BF";
paths = (
{
closed = 1;
nodes = (
"165 100 LINE",
"196 47 OFFCURVE",
"230 0 OFFCURVE",
"327 0 CURVE SMOOTH",
"430 0 OFFCURVE",
"528 40 OFFCURVE",
"579 99 CURVE SMOOTH",
"609 132 OFFCURVE",
"636 184 OFFCURVE",
"636 238 CURVE SMOOTH",
"636 312 OFFCURVE",
"526 416 OFFCURVE",
"462 416 CURVE SMOOTH",
"360 416 OFFCURVE",
"302 213 OFFCURVE",
"271 110 CURVE",
"309 99 LINE",
"332 187 OFFCURVE",
"367 299 OFFCURVE",
"425 299 CURVE SMOOTH",
"477 299 OFFCURVE",
"556 235 OFFCURVE",
"594 191 CURVE",
"565 162 OFFCURVE",
"474 117 OFFCURVE",
"362 117 CURVE SMOOTH",
"257 117 OFFCURVE",
"214 146 OFFCURVE",
"171 226 CURVE"
);
}
);
width = 686;
}
);
unicode = 062A;
},
{
glyphname = "teh-ar.fina";
layers = (
{
background = {
paths = (
{
closed = 1;
nodes = (
"519 -192 OFFCURVE",
"530 -153 OFFCURVE",
"522 -114 CURVE",
"379 -114 OFFCURVE",
"309 -56 OFFCURVE",
"309 41 CURVE",
"269 62 LINE",
"262 36 OFFCURVE",
"258 10 OFFCURVE",
"258 -13 CURVE SMOOTH",
"258 -136 OFFCURVE",
"321 -231 OFFCURVE",
"487 -231 CURVE"
);
},
{
closed = 1;
nodes = (
"165 100 LINE",
"196 47 OFFCURVE",
"230 0 OFFCURVE",
"327 0 CURVE SMOOTH",
"430 0 OFFCURVE",
"528 40 OFFCURVE",
"579 99 CURVE SMOOTH",
"609 132 OFFCURVE",
"636 184 OFFCURVE",
"636 238 CURVE SMOOTH",
"636 312 OFFCURVE",
"526 416 OFFCURVE",
"462 416 CURVE SMOOTH",
"360 416 OFFCURVE",
"302 213 OFFCURVE",
"271 110 CURVE",
"309 99 LINE",
"332 187 OFFCURVE",
"367 299 OFFCURVE",
"425 299 CURVE SMOOTH",
"477 299 OFFCURVE",
"556 235 OFFCURVE",
"594 191 CURVE",
"565 162 OFFCURVE",
"474 117 OFFCURVE",
"362 117 CURVE SMOOTH",
"257 117 OFFCURVE",
"214 146 OFFCURVE",
"171 226 CURVE"
);
},
{
closed = 1;
nodes = (
"171 226 LINE",
"153 261 OFFCURVE",
"133 306 OFFCURVE",
"110 362 CURVE",
"98 362 LINE",
"50 269 LINE",
"118 140 LINE SMOOTH",
"154 71 OFFCURVE",
"161 20 OFFCURVE",
"161 -45 CURVE SMOOTH",
"161 -100 OFFCURVE",
"150 -165 OFFCURVE",
"137 -235 CURVE",
"166 -244 LINE",
"199 -149 OFFCURVE",
"220 -70 OFFCURVE",
"218 0 CURVE SMOOTH",
"216 57 LINE"
);
},
{
closed = 1;
nodes = (
"0 -495 LINE",
"0 818 LINE",
"487 818 LINE",
"487 -495 LINE"
);
}
);
};
components = (
{
alignment = -1;
name = "teh-ar";
}
);
layerId = "10A83A34-2C0B-4EA0-95B7-223E3205B8BF";
paths = (
{
closed = 1;
nodes = (
"519 -192 OFFCURVE",
"530 -153 OFFCURVE",
"522 -114 CURVE",
"379 -114 OFFCURVE",
"309 -56 OFFCURVE",
"309 41 CURVE",
"269 62 LINE",
"262 36 OFFCURVE",
"258 10 OFFCURVE",
"258 -13 CURVE SMOOTH",
"258 -136 OFFCURVE",
"321 -231 OFFCURVE",
"487 -231 CURVE"
);
}
);
width = 487;
}
);
},
{
glyphname = "jeem-ar";
layers = (
{
anchors = (
{
name = "#entry";
position = "{433, 0}";
},
{
name = "#exit";
position = "{104, 0}";
}
);
background = {
paths = (
{
closed = 1;
nodes = (
"146 0 LINE",
"275 0 OFFCURVE",
"360 34 OFFCURVE",
"408 98 CURVE SMOOTH",
"438 138 OFFCURVE",
"449 183 OFFCURVE",
"449 227 CURVE SMOOTH",
"449 317 OFFCURVE",
"390 416 OFFCURVE",
"334 416 CURVE SMOOTH",
"300 416 OFFCURVE",
"286 401 OFFCURVE",
"249 301 CURVE SMOOTH",
"235 263 OFFCURVE",
"249 208 OFFCURVE",
"302 208 CURVE SMOOTH",
"331 208 OFFCURVE",
"353 222 OFFCURVE",
"368 243 CURVE",
"392 222 OFFCURVE",
"413 191 OFFCURVE",
"404 150 CURVE",
"346 130 OFFCURVE",
"261 117 OFFCURVE",
"181 117 CURVE"
);
},
{
closed = 1;
nodes = (
"168 39 OFFCURVE",
"179 78 OFFCURVE",
"181 117 CURVE",
"144 117 OFFCURVE",
"115 124 OFFCURVE",
"98 137 CURVE",
"50 43 LINE",
"58 15 OFFCURVE",
"91 0 OFFCURVE",
"146 0 CURVE"
);
},
{
closed = 1;
nodes = (
"0 -495 LINE",
"0 818 LINE",
"499 818 LINE",
"499 -495 LINE"
);
}
);
};
components = (
{
alignment = -1;
name = "jeem-ar.init";
transform = "{1, 0, 0, 1, 146, 0}";
},
{
alignment = -1;
name = _part.phlv.part.phlv.keheh_ending;
transform = "{1, 0, 0, 1, 2, 0}";
}
);
layerId = "10A83A34-2C0B-4EA0-95B7-223E3205B8BF";
width = 487;
}
);
unicode = 062C;
},
{
glyphname = "jeem-ar.fina";
layers = (
{
background = {
paths = (
{
closed = 1;
nodes = (
"389 87 LINE",
"411 25 OFFCURVE",
"461 0 OFFCURVE",
"517 0 CURVE",
"549 39 OFFCURVE",
"560 78 OFFCURVE",
"552 117 CURVE",
"494 117 OFFCURVE",
"454 129 OFFCURVE",
"436 158 CURVE"
);
},
{
closed = 1;
nodes = (
"146 0 LINE",
"275 0 OFFCURVE",
"360 34 OFFCURVE",
"408 98 CURVE SMOOTH",
"438 138 OFFCURVE",
"449 183 OFFCURVE",
"449 227 CURVE SMOOTH",
"449 317 OFFCURVE",
"390 416 OFFCURVE",
"334 416 CURVE SMOOTH",
"300 416 OFFCURVE",
"286 401 OFFCURVE",
"249 301 CURVE SMOOTH",
"235 263 OFFCURVE",
"249 208 OFFCURVE",
"302 208 CURVE SMOOTH",
"331 208 OFFCURVE",
"353 222 OFFCURVE",
"368 243 CURVE",
"392 222 OFFCURVE",
"413 191 OFFCURVE",
"404 150 CURVE",
"346 130 OFFCURVE",
"261 117 OFFCURVE",
"181 117 CURVE"
);
},
{
closed = 1;
nodes = (
"168 39 OFFCURVE",
"179 78 OFFCURVE",
"181 117 CURVE",
"144 117 OFFCURVE",
"115 124 OFFCURVE",
"98 137 CURVE",
"50 43 LINE",
"58 15 OFFCURVE",
"91 0 OFFCURVE",
"146 0 CURVE"
);
},
{
closed = 1;
nodes = (
"0 -495 LINE",
"0 818 LINE",
"517 818 LINE",
"517 -495 LINE"
);
}
);
};
components = (
{
alignment = -1;
name = _part.phlv.right.connector;
transform = "{1, 0, 0, 1, 64, 0}";
},
{
alignment = -1;
name = "jeem-ar.init";
transform = "{1, 0, 0, 1, 146, 0}";
},
{
alignment = -1;
name = _part.phlv.part.phlv.keheh_ending;
transform = "{1, 0, 0, 1, 2, 0}";
}
);
layerId = "10A83A34-2C0B-4EA0-95B7-223E3205B8BF";
width = 517;
}
);
},
{
glyphname = "jeem-ar.medi";
layers = (
{
background = {
paths = (
{
closed = 1;
nodes = (
"243 87 LINE",
"265 25 OFFCURVE",
"315 0 OFFCURVE",
"371 0 CURVE",
"403 39 OFFCURVE",
"414 78 OFFCURVE",
"406 117 CURVE",
"348 117 OFFCURVE",
"308 129 OFFCURVE",
"290 158 CURVE"
);
},
{
closed = 1;
nodes = (
"0 0 LINE",
"129 0 OFFCURVE",
"214 34 OFFCURVE",
"262 98 CURVE SMOOTH",
"292 138 OFFCURVE",
"303 183 OFFCURVE",
"303 227 CURVE SMOOTH",
"303 317 OFFCURVE",
"244 416 OFFCURVE",
"188 416 CURVE SMOOTH",
"154 416 OFFCURVE",
"140 401 OFFCURVE",
"103 301 CURVE SMOOTH",
"89 263 OFFCURVE",
"103 208 OFFCURVE",
"156 208 CURVE SMOOTH",
"185 208 OFFCURVE",
"207 222 OFFCURVE",
"222 243 CURVE",
"246 222 OFFCURVE",
"267 191 OFFCURVE",
"258 150 CURVE",
"200 130 OFFCURVE",
"115 117 OFFCURVE",
"35 117 CURVE"
);
},
{
closed = 1;
nodes = (
"0 -495 LINE",
"0 818 LINE",
"371 818 LINE",
"371 -495 LINE"
);
}
);
};
components = (
{
alignment = -1;
name = _part.phlv.right.connector;
transform = "{1, 0, 0, 1, -82, 0}";
},
{
alignment = -1;
name = "jeem-ar.init";
}
);
layerId = "10A83A34-2C0B-4EA0-95B7-223E3205B8BF";
width = 371;
}
);
},
{
glyphname = "jeem-ar.init";
layers = (
{
anchors = (
{
name = "#entry";
position = "{245, 0}";
},
{
name = "#exit";
position = "{0, 0}";
}
);
background = {
paths = (
{
closed = 1;
nodes = (
"0 0 LINE",
"129 0 OFFCURVE",
"214 34 OFFCURVE",
"262 98 CURVE SMOOTH",
"292 138 OFFCURVE",
"303 183 OFFCURVE",
"303 227 CURVE SMOOTH",
"303 317 OFFCURVE",
"244 416 OFFCURVE",
"188 416 CURVE SMOOTH",
"154 416 OFFCURVE",
"140 401 OFFCURVE",
"103 301 CURVE SMOOTH",
"89 263 OFFCURVE",
"103 208 OFFCURVE",
"156 208 CURVE SMOOTH",
"185 208 OFFCURVE",
"207 222 OFFCURVE",
"222 243 CURVE",
"246 222 OFFCURVE",
"267 191 OFFCURVE",
"258 150 CURVE",
"200 130 OFFCURVE",
"115 117 OFFCURVE",
"35 117 CURVE"
);
},
{
closed = 1;
nodes = (
"0 -495 LINE",
"0 818 LINE",
"353 818 LINE",
"353 -495 LINE"
);
}
);
};
layerId = "10A83A34-2C0B-4EA0-95B7-223E3205B8BF";
paths = (
{
closed = 1;
nodes = (
"0 0 LINE",
"129 0 OFFCURVE",
"214 34 OFFCURVE",
"262 98 CURVE SMOOTH",
"292 138 OFFCURVE",
"303 183 OFFCURVE",
"303 227 CURVE SMOOTH",
"303 317 OFFCURVE",
"244 416 OFFCURVE",
"188 416 CURVE SMOOTH",
"154 416 OFFCURVE",
"140 401 OFFCURVE",
"103 301 CURVE SMOOTH",
"89 263 OFFCURVE",
"103 208 OFFCURVE",
"156 208 CURVE SMOOTH",
"185 208 OFFCURVE",
"207 222 OFFCURVE",
"222 243 CURVE",
"246 222 OFFCURVE",
"267 191 OFFCURVE",
"258 150 CURVE",
"200 130 OFFCURVE",
"115 117 OFFCURVE",
"35 117 CURVE"
);
}
);
width = 353;
}
);
},
{
glyphname = "kaf-ar";
layers = (
{
background = {
paths = (
{
closed = 1;
nodes = (
"76 170 OFFCURVE",
"63 160 OFFCURVE",
"50 140 CURVE",
"50 53 OFFCURVE",
"92 7 OFFCURVE",
"174 7 CURVE SMOOTH",
"228 7 OFFCURVE",
"279 27 OFFCURVE",
"320 56 CURVE",
"311 149 LINE",
"274 135 OFFCURVE",
"225 124 OFFCURVE",
"182 124 CURVE SMOOTH",
"128 124 OFFCURVE",
"101 138 OFFCURVE",
"89 170 CURVE"
);
},
{
closed = 1;
nodes = (
"190 299 LINE",
"239 299 OFFCURVE",
"278 164 OFFCURVE",
"265 69 CURVE SMOOTH",
"246 -73 OFFCURVE",
"123 -176 OFFCURVE",
"123 -273 CURVE SMOOTH",
"123 -347 OFFCURVE",
"193 -378 OFFCURVE",
"272 -378 CURVE SMOOTH",
"356 -378 OFFCURVE",
"430 -347 OFFCURVE",
"476 -346 CURVE SMOOTH",
"539 -345 OFFCURVE",
"525 -418 OFFCURVE",
"453 -486 CURVE",
"482 -495 LINE",
"525 -460 OFFCURVE",
"575 -382 OFFCURVE",
"577 -316 CURVE SMOOTH",
"578 -268 OFFCURVE",
"557 -229 OFFCURVE",
"503 -229 CURVE SMOOTH",
"461 -229 OFFCURVE",
"386 -261 OFFCURVE",
"299 -261 CURVE SMOOTH",
"230 -261 OFFCURVE",
"186 -245 OFFCURVE",
"176 -211 CURVE",
"222 -136 OFFCURVE",
"340 -8 OFFCURVE",
"340 158 CURVE SMOOTH",
"340 272 OFFCURVE",
"304 416 OFFCURVE",
"217 416 CURVE"
);
},
{
closed = 1;
nodes = (
"219 338 OFFCURVE",
"228 377 OFFCURVE",
"217 416 CURVE",
"139 416 OFFCURVE",
"50 229 OFFCURVE",
"50 140 CURVE",
"89 170 LINE",
"99 217 OFFCURVE",
"149 299 OFFCURVE",
"190 299 CURVE"
);
},
{
closed = 1;
nodes = (
"0 -495 LINE",
"0 818 LINE",
"527 818 LINE",
"527 -495 LINE"
);
}
);
};
components = (
{
name = _part.phlv.secondpart.kafalter;
}
);
layerId = "10A83A34-2C0B-4EA0-95B7-223E3205B8BF";
paths = (
{
closed = 1;
nodes = (
"76 170 OFFCURVE",
"63 160 OFFCURVE",
"50 140 CURVE",
"50 53 OFFCURVE",
"92 7 OFFCURVE",
"174 7 CURVE SMOOTH",
"228 7 OFFCURVE",
"279 27 OFFCURVE",
"320 56 CURVE",
"311 149 LINE",
"274 135 OFFCURVE",
"225 124 OFFCURVE",
"182 124 CURVE SMOOTH",
"128 124 OFFCURVE",
"101 138 OFFCURVE",
"89 170 CURVE"
);
}
);
width = 527;
}
);
unicode = 0643;
},
{
color = 4;
glyphname = "kaf-ar.fina";
layers = (
{
background = {
paths = (
{
closed = 1;
nodes = (
"50 140 LINE",
"89 170 LINE"
);
},
{
closed = 1;
nodes = (
"190 299 LINE",
"239 299 OFFCURVE",
"278 164 OFFCURVE",
"265 69 CURVE SMOOTH",
"246 -73 OFFCURVE",
"123 -176 OFFCURVE",
"123 -273 CURVE SMOOTH",
"123 -347 OFFCURVE",
"193 -378 OFFCURVE",
"272 -378 CURVE SMOOTH",
"356 -378 OFFCURVE",
"430 -347 OFFCURVE",
"476 -346 CURVE SMOOTH",
"539 -345 OFFCURVE",
"525 -418 OFFCURVE",
"453 -486 CURVE",
"482 -495 LINE",
"525 -460 OFFCURVE",
"575 -382 OFFCURVE",
"577 -316 CURVE SMOOTH",
"578 -268 OFFCURVE",
"557 -229 OFFCURVE",
"503 -229 CURVE SMOOTH",
"461 -229 OFFCURVE",
"386 -261 OFFCURVE",
"299 -261 CURVE SMOOTH",
"230 -261 OFFCURVE",
"186 -245 OFFCURVE",
"176 -211 CURVE",
"222 -136 OFFCURVE",
"340 -8 OFFCURVE",
"340 158 CURVE SMOOTH",
"340 272 OFFCURVE",
"304 416 OFFCURVE",
"217 416 CURVE"
);
},
{
closed = 1;
nodes = (
"219 338 OFFCURVE",
"228 377 OFFCURVE",
"217 416 CURVE",
"139 416 OFFCURVE",
"50 229 OFFCURVE",
"50 140 CURVE",
"89 170 LINE",
"99 217 OFFCURVE",
"149 299 OFFCURVE",
"190 299 CURVE"
);
},
{
closed = 1;
nodes = (
"76 170 OFFCURVE",
"63 160 OFFCURVE",
"50 140 CURVE",
"50 29 OFFCURVE",
"134 0 OFFCURVE",
"268 0 CURVE SMOOTH",
"352 0 LINE",
"384 29 OFFCURVE",
"395 78 OFFCURVE",
"387 117 CURVE",
"288 117 LINE SMOOTH",
"206 117 OFFCURVE",
"114 117 OFFCURVE",
"89 170 CURVE"
);
},
{
closed = 1;
nodes = (
"0 -495 LINE",
"0 818 LINE",
"352 818 LINE",
"352 -495 LINE"
);
}
);
};
components = (
{
name = _part.phlv.secondpart.kafalter;
}
);
layerId = "10A83A34-2C0B-4EA0-95B7-223E3205B8BF";
paths = (
{
closed = 1;
nodes = (
"50 140 LINE",
"89 170 LINE"
);
},
{
closed = 1;
nodes = (
"76 170 OFFCURVE",
"63 160 OFFCURVE",
"50 140 CURVE",
"50 29 OFFCURVE",
"134 0 OFFCURVE",
"268 0 CURVE SMOOTH",
"452 0 LINE",
"484 29 OFFCURVE",
"495 78 OFFCURVE",
"487 117 CURVE",
"288 117 LINE SMOOTH",
"206 117 OFFCURVE",
"114 117 OFFCURVE",
"89 170 CURVE"
);
}
);
width = 452;
}
);
},
{
glyphname = "seen-ar";
layers = (
{
anchors = (
{
name = top;
position = "{742, 416}";
}
);
background = {
paths = (
{
closed = 1;
nodes = (
"544 -192 OFFCURVE",
"555 -153 OFFCURVE",
"547 -114 CURVE",
"404 -114 OFFCURVE",
"341 -56 OFFCURVE",
"341 41 CURVE SMOOTH",
"341 126 OFFCURVE",
"373 192 OFFCURVE",
"423 283 CURVE",
"394 292 LINE",
"330 193 OFFCURVE",
"280 87 OFFCURVE",
"280 -13 CURVE SMOOTH",
"280 -136 OFFCURVE",
"346 -231 OFFCURVE",
"512 -231 CURVE"
);
},
{
closed = 1;
nodes = (
"146 0 LINE",
"222 0 OFFCURVE",
"302 39 OFFCURVE",
"358 162 CURVE",
"355 176 LINE",
"297 128 OFFCURVE",
"225 117 OFFCURVE",
"181 117 CURVE"
);
},
{
closed = 1;
nodes = (
"168 39 OFFCURVE",
"179 78 OFFCURVE",
"181 117 CURVE",
"144 117 OFFCURVE",
"115 124 OFFCURVE",
"98 137 CURVE",
"50 43 LINE",
"58 15 OFFCURVE",
"91 0 OFFCURVE",
"146 0 CURVE"
);
},
{
closed = 1;
nodes = (
"836 -96 LINE",
"906 26 OFFCURVE",
"899 160 OFFCURVE",
"848 293 CURVE SMOOTH",
"820 365 OFFCURVE",
"773 416 OFFCURVE",
"734 416 CURVE SMOOTH",
"700 416 OFFCURVE",
"686 401 OFFCURVE",
"649 301 CURVE SMOOTH",
"635 263 OFFCURVE",
"649 208 OFFCURVE",
"702 208 CURVE SMOOTH",
"731 208 OFFCURVE",
"753 222 OFFCURVE",
"768 243 CURVE",
"818 174 OFFCURVE",
"852 13 OFFCURVE",
"816 -62 CURVE"
);
},
{
closed = 1;
nodes = (
"828 -49 LINE",
"757 -90 OFFCURVE",
"642 -114 OFFCURVE",
"547 -114 CURVE",
"512 -231 LINE",
"666 -231 OFFCURVE",
"790 -176 OFFCURVE",
"836 -96 CURVE"
);
},
{
closed = 1;
nodes = (
"0 -495 LINE",
"0 818 LINE",
"937 818 LINE",
"937 -495 LINE"
);
}
);
};
components = (
{
alignment = -1;
name = _part.phlv.head.seen;
transform = "{1, 0, 0, 1, 512, 0}";
},
{
alignment = -1;
name = _part.phlv.belly.teeth;
transform = "{1, 0, 0, 1, 146, 0}";
},
{
alignment = -1;
name = _part.phlv.part.phlv.keheh_ending;
transform = "{1, 0, 0, 1, 2, 0}";
}
);
layerId = "10A83A34-2C0B-4EA0-95B7-223E3205B8BF";
width = 937;
}
);
unicode = 0633;
},
{
glyphname = "seen-ar.fina";
layers = (
{
anchors = (
{
name = top;
position = "{742, 416}";
}
);
background = {
paths = (
{
closed = 1;
nodes = (
"544 -192 OFFCURVE",
"555 -153 OFFCURVE",
"547 -114 CURVE",
"404 -114 OFFCURVE",
"341 -56 OFFCURVE",
"341 41 CURVE SMOOTH",
"341 126 OFFCURVE",
"373 192 OFFCURVE",
"423 283 CURVE",
"394 292 LINE",
"330 193 OFFCURVE",
"280 87 OFFCURVE",
"280 -13 CURVE SMOOTH",
"280 -136 OFFCURVE",
"346 -231 OFFCURVE",
"512 -231 CURVE"
);
},
{
closed = 1;
nodes = (
"146 0 LINE",
"222 0 OFFCURVE",
"302 39 OFFCURVE",
"358 162 CURVE",
"355 176 LINE",
"297 128 OFFCURVE",
"225 117 OFFCURVE",
"181 117 CURVE"
);
},
{
closed = 1;
nodes = (
"168 39 OFFCURVE",
"179 78 OFFCURVE",
"181 117 CURVE",
"144 117 OFFCURVE",
"115 124 OFFCURVE",
"98 137 CURVE",
"50 43 LINE",
"58 15 OFFCURVE",
"91 0 OFFCURVE",
"146 0 CURVE"
);
},
{
closed = 1;
nodes = (
"836 -96 LINE",
"906 26 OFFCURVE",
"899 160 OFFCURVE",
"848 293 CURVE SMOOTH",
"820 365 OFFCURVE",
"773 416 OFFCURVE",
"734 416 CURVE SMOOTH",
"700 416 OFFCURVE",
"686 401 OFFCURVE",
"649 301 CURVE SMOOTH",
"635 263 OFFCURVE",
"649 208 OFFCURVE",
"702 208 CURVE SMOOTH",
"731 208 OFFCURVE",
"753 222 OFFCURVE",
"768 243 CURVE",
"818 174 OFFCURVE",
"852 13 OFFCURVE",
"816 -62 CURVE"
);
},
{
closed = 1;
nodes = (
"828 -49 LINE",
"757 -90 OFFCURVE",
"642 -114 OFFCURVE",
"547 -114 CURVE",
"512 -231 LINE",
"666 -231 OFFCURVE",
"790 -176 OFFCURVE",
"836 -96 CURVE"
);
},
{
closed = 1;
nodes = (
"978 117 OFFCURVE",
"925 124 OFFCURVE",
"869 145 CURVE",
"869 87 LINE",
"891 25 OFFCURVE",
"941 0 OFFCURVE",
"997 0 CURVE",
"1029 39 OFFCURVE",
"1040 78 OFFCURVE",
"1032 117 CURVE"
);
},
{
closed = 1;
nodes = (
"0 -495 LINE",
"0 818 LINE",
"997 818 LINE",
"997 -495 LINE"
);
}
);
};
components = (
{
name = _part.phlv.seen.connector;
},
{
alignment = -1;
name = "seen-ar";
}
);
layerId = "10A83A34-2C0B-4EA0-95B7-223E3205B8BF";
width = 997;
}
);
},
{
glyphname = "seen-ar.medi";
layers = (
{
anchors = (
{
name = top;
position = "{596, 416}";
}
);
background = {
paths = (
{
closed = 1;
nodes = (
"832 117 OFFCURVE",
"779 124 OFFCURVE",
"723 145 CURVE",
"723 87 LINE",
"745 25 OFFCURVE",
"795 0 OFFCURVE",
"851 0 CURVE",
"883 39 OFFCURVE",
"894 78 OFFCURVE",
"886 117 CURVE"
);
},
{
closed = 1;
nodes = (
"398 -192 OFFCURVE",
"409 -153 OFFCURVE",
"401 -114 CURVE",
"258 -114 OFFCURVE",
"195 -56 OFFCURVE",
"195 41 CURVE SMOOTH",
"195 126 OFFCURVE",
"227 192 OFFCURVE",
"277 283 CURVE",
"248 292 LINE",
"184 193 OFFCURVE",
"134 87 OFFCURVE",
"134 -13 CURVE SMOOTH",
"134 -136 OFFCURVE",
"200 -231 OFFCURVE",
"366 -231 CURVE"
);
},
{
closed = 1;
nodes = (
"0 0 LINE",
"76 0 OFFCURVE",
"156 39 OFFCURVE",
"212 162 CURVE",
"209 176 LINE",
"151 128 OFFCURVE",
"79 117 OFFCURVE",
"35 117 CURVE"
);
},
{
closed = 1;
nodes = (
"690 -96 LINE",
"760 26 OFFCURVE",
"753 160 OFFCURVE",
"702 293 CURVE SMOOTH",
"674 365 OFFCURVE",
"627 416 OFFCURVE",
"588 416 CURVE SMOOTH",
"554 416 OFFCURVE",
"540 401 OFFCURVE",
"503 301 CURVE SMOOTH",
"489 263 OFFCURVE",
"503 208 OFFCURVE",
"556 208 CURVE SMOOTH",
"585 208 OFFCURVE",
"607 222 OFFCURVE",
"622 243 CURVE",
"672 174 OFFCURVE",
"706 13 OFFCURVE",
"670 -62 CURVE"
);
},
{
closed = 1;
nodes = (
"682 -49 LINE",
"611 -90 OFFCURVE",
"496 -114 OFFCURVE",
"401 -114 CURVE",
"366 -231 LINE",
"520 -231 OFFCURVE",
"644 -176 OFFCURVE",
"690 -96 CURVE"
);
},
{
closed = 1;
nodes = (
"0 -495 LINE",
"0 818 LINE",
"851 818 LINE",
"851 -495 LINE"
);
}
);
};
components = (
{
alignment = -1;
name = _part.phlv.seen.connector;
transform = "{1, 0, 0, 1, -146, 0}";
},
{
alignment = -1;
name = "seen-ar.init";
}
);
layerId = "10A83A34-2C0B-4EA0-95B7-223E3205B8BF";
width = 851;
}
);
},
{
glyphname = "seen-ar.init";
layers = (
{
anchors = (
{
name = "#entry";
position = "{722, 0}";
},
{
name = top;
position = "{596, 416}";
}
);
background = {
paths = (
{
closed = 1;
nodes = (
"398 -192 OFFCURVE",
"409 -153 OFFCURVE",
"401 -114 CURVE",
"258 -114 OFFCURVE",
"195 -56 OFFCURVE",
"195 41 CURVE SMOOTH",
"195 126 OFFCURVE",
"227 192 OFFCURVE",
"277 283 CURVE",
"248 292 LINE",
"184 193 OFFCURVE",
"134 87 OFFCURVE",
"134 -13 CURVE SMOOTH",
"134 -136 OFFCURVE",
"200 -231 OFFCURVE",
"366 -231 CURVE"
);
},
{
closed = 1;
nodes = (
"0 0 LINE",
"76 0 OFFCURVE",
"156 39 OFFCURVE",
"212 162 CURVE",
"209 176 LINE",
"151 128 OFFCURVE",
"79 117 OFFCURVE",
"35 117 CURVE"
);
},
{
closed = 1;
nodes = (
"690 -96 LINE",
"760 26 OFFCURVE",
"753 160 OFFCURVE",
"702 293 CURVE SMOOTH",
"674 365 OFFCURVE",
"627 416 OFFCURVE",
"588 416 CURVE SMOOTH",
"554 416 OFFCURVE",
"540 401 OFFCURVE",
"503 301 CURVE SMOOTH",
"489 263 OFFCURVE",
"503 208 OFFCURVE",
"556 208 CURVE SMOOTH",
"585 208 OFFCURVE",
"607 222 OFFCURVE",
"622 243 CURVE",
"672 174 OFFCURVE",
"706 13 OFFCURVE",
"670 -62 CURVE"
);
},
{
closed = 1;
nodes = (
"682 -49 LINE",
"611 -90 OFFCURVE",
"496 -114 OFFCURVE",
"401 -114 CURVE",
"366 -231 LINE",
"520 -231 OFFCURVE",
"644 -176 OFFCURVE",
"690 -96 CURVE"
);
},
{
closed = 1;
nodes = (
"0 -495 LINE",
"0 818 LINE",
"791 818 LINE",
"791 -495 LINE"
);
}
);
};
components = (
{
alignment = -1;
name = _part.phlv.head.seen;
transform = "{1, 0, 0, 1, 366, 0}";
},
{
alignment = -1;
name = _part.phlv.belly.teeth;
}
);
layerId = "10A83A34-2C0B-4EA0-95B7-223E3205B8BF";
width = 791;
}
);
},
{
glyphname = "sheen-ar";
layers = (
{
background = {
paths = (
{
closed = 1;
nodes = (
"168 39 OFFCURVE",
"179 78 OFFCURVE",
"181 117 CURVE",
"144 117 OFFCURVE",
"115 124 OFFCURVE",
"98 137 CURVE",
"50 43 LINE",
"58 15 OFFCURVE",
"91 0 OFFCURVE",
"146 0 CURVE"
);
},
{
closed = 1;
nodes = (
"278 87 LINE",
"300 25 OFFCURVE",
"350 0 OFFCURVE",
"406 0 CURVE",
"438 39 OFFCURVE",
"449 78 OFFCURVE",
"441 117 CURVE",
"383 117 OFFCURVE",
"343 129 OFFCURVE",
"325 158 CURVE"
);
},
{
closed = 1;
nodes = (
"149 78 OFFCURVE",
"146 29 OFFCURVE",
"146 0 CURVE",
"287 0 OFFCURVE",
"373 142 OFFCURVE",
"373 245 CURVE SMOOTH",
"373 297 OFFCURVE",
"353 348 OFFCURVE",
"325 416 CURVE",
"313 416 LINE",
"265 323 LINE",
"288 277 OFFCURVE",
"324 189 OFFCURVE",
"314 150 CURVE",
"280 129 OFFCURVE",
"225 117 OFFCURVE",
"181 117 CURVE"
);
},
{
closed = 1;
nodes = (
"803 -192 OFFCURVE",
"814 -153 OFFCURVE",
"806 -114 CURVE",
"663 -114 OFFCURVE",
"600 -56 OFFCURVE",
"600 41 CURVE SMOOTH",
"600 126 OFFCURVE",
"632 192 OFFCURVE",
"682 283 CURVE",
"653 292 LINE",
"589 193 OFFCURVE",
"539 87 OFFCURVE",
"539 -13 CURVE SMOOTH",
"539 -136 OFFCURVE",
"605 -231 OFFCURVE",
"771 -231 CURVE"
);
},
{
closed = 1;
nodes = (
"405 0 LINE",
"481 0 OFFCURVE",
"561 39 OFFCURVE",
"617 162 CURVE",
"614 176 LINE",
"556 128 OFFCURVE",
"484 117 OFFCURVE",
"440 117 CURVE"
);
},
{
closed = 1;
nodes = (
"1095 -96 LINE",
"1165 26 OFFCURVE",
"1158 160 OFFCURVE",
"1107 293 CURVE SMOOTH",
"1079 365 OFFCURVE",
"1032 416 OFFCURVE",
"993 416 CURVE SMOOTH",
"959 416 OFFCURVE",
"945 401 OFFCURVE",
"908 301 CURVE SMOOTH",
"894 263 OFFCURVE",
"908 208 OFFCURVE",
"961 208 CURVE SMOOTH",
"990 208 OFFCURVE",
"1012 222 OFFCURVE",
"1027 243 CURVE",
"1077 174 OFFCURVE",
"1111 13 OFFCURVE",
"1075 -62 CURVE"
);
},
{
closed = 1;
nodes = (
"1087 -49 LINE",
"1016 -90 OFFCURVE",
"901 -114 OFFCURVE",
"806 -114 CURVE",
"771 -231 LINE",
"925 -231 OFFCURVE",
"1049 -176 OFFCURVE",
"1095 -96 CURVE"
);
},
{
closed = 1;
nodes = (
"0 -495 LINE",
"0 818 LINE",
"1196 818 LINE",
"1196 -495 LINE"
);
}
);
};
components = (
{
alignment = -1;
name = _part.phlv.head.seen;
transform = "{1, 0, 0, 1, 771, 0}";
},
{
alignment = -1;
name = "alef-ar.fina";
}
);
layerId = "10A83A34-2C0B-4EA0-95B7-223E3205B8BF";
width = 1196;
}
);
unicode = 0634;
},
{
glyphname = "sheen-ar.fina";
layers = (
{
background = {
paths = (
{
closed = 1;
nodes = (
"1237 117 OFFCURVE",
"1184 124 OFFCURVE",
"1128 145 CURVE",
"1128 87 LINE",
"1150 25 OFFCURVE",
"1200 0 OFFCURVE",
"1256 0 CURVE",
"1288 39 OFFCURVE",
"1299 78 OFFCURVE",
"1291 117 CURVE"
);
},
{
closed = 1;
nodes = (
"168 39 OFFCURVE",
"179 78 OFFCURVE",
"181 117 CURVE",
"144 117 OFFCURVE",
"115 124 OFFCURVE",
"98 137 CURVE",
"50 43 LINE",
"58 15 OFFCURVE",
"91 0 OFFCURVE",
"146 0 CURVE"
);
},
{
closed = 1;
nodes = (
"278 87 LINE",
"300 25 OFFCURVE",
"350 0 OFFCURVE",
"406 0 CURVE",
"438 39 OFFCURVE",
"449 78 OFFCURVE",
"441 117 CURVE",
"383 117 OFFCURVE",
"343 129 OFFCURVE",
"325 158 CURVE"
);
},
{
closed = 1;
nodes = (
"149 78 OFFCURVE",
"146 29 OFFCURVE",
"146 0 CURVE",
"287 0 OFFCURVE",
"373 142 OFFCURVE",
"373 245 CURVE SMOOTH",
"373 297 OFFCURVE",
"353 348 OFFCURVE",
"325 416 CURVE",
"313 416 LINE",
"265 323 LINE",
"288 277 OFFCURVE",
"324 189 OFFCURVE",
"314 150 CURVE",
"280 129 OFFCURVE",
"225 117 OFFCURVE",
"181 117 CURVE"
);
},
{
closed = 1;
nodes = (
"803 -192 OFFCURVE",
"814 -153 OFFCURVE",
"806 -114 CURVE",
"663 -114 OFFCURVE",
"600 -56 OFFCURVE",
"600 41 CURVE SMOOTH",
"600 126 OFFCURVE",
"632 192 OFFCURVE",
"682 283 CURVE",
"653 292 LINE",
"589 193 OFFCURVE",
"539 87 OFFCURVE",
"539 -13 CURVE SMOOTH",
"539 -136 OFFCURVE",
"605 -231 OFFCURVE",
"771 -231 CURVE"
);
},
{
closed = 1;
nodes = (
"405 0 LINE",
"481 0 OFFCURVE",
"561 39 OFFCURVE",
"617 162 CURVE",
"614 176 LINE",
"556 128 OFFCURVE",
"484 117 OFFCURVE",
"440 117 CURVE"
);
},
{
closed = 1;
nodes = (
"1095 -96 LINE",
"1165 26 OFFCURVE",
"1158 160 OFFCURVE",
"1107 293 CURVE SMOOTH",
"1079 365 OFFCURVE",
"1032 416 OFFCURVE",
"993 416 CURVE SMOOTH",
"959 416 OFFCURVE",
"945 401 OFFCURVE",
"908 301 CURVE SMOOTH",
"894 263 OFFCURVE",
"908 208 OFFCURVE",
"961 208 CURVE SMOOTH",
"990 208 OFFCURVE",
"1012 222 OFFCURVE",
"1027 243 CURVE",
"1077 174 OFFCURVE",
"1111 13 OFFCURVE",
"1075 -62 CURVE"
);
},
{
closed = 1;
nodes = (
"1087 -49 LINE",
"1016 -90 OFFCURVE",
"901 -114 OFFCURVE",
"806 -114 CURVE",
"771 -231 LINE",
"925 -231 OFFCURVE",
"1049 -176 OFFCURVE",
"1095 -96 CURVE"
);
},
{
closed = 1;
nodes = (
"0 -495 LINE",
"0 818 LINE",
"1256 818 LINE",
"1256 -495 LINE"
);
}
);
};
components = (
{
alignment = -1;
name = _part.phlv.seen.connector;
transform = "{1, 0, 0, 1, 259, 0}";
},
{
alignment = -1;
name = "sheen-ar";
}
);
layerId = "10A83A34-2C0B-4EA0-95B7-223E3205B8BF";
width = 1256;
}
);
},
{
glyphname = "sheen-ar.medi";
layers = (
{
background = {
paths = (
{
closed = 1;
nodes = (
"1091 117 OFFCURVE",
"1038 124 OFFCURVE",
"982 145 CURVE",
"982 87 LINE",
"1004 25 OFFCURVE",
"1054 0 OFFCURVE",
"1110 0 CURVE",
"1142 39 OFFCURVE",
"1153 78 OFFCURVE",
"1145 117 CURVE"
);
},
{
closed = 1;
nodes = (
"132 87 LINE",
"154 25 OFFCURVE",
"204 0 OFFCURVE",
"260 0 CURVE",
"292 39 OFFCURVE",
"303 78 OFFCURVE",
"295 117 CURVE",
"237 117 OFFCURVE",
"197 129 OFFCURVE",
"179 158 CURVE"
);
},
{
closed = 1;
nodes = (
"3 78 OFFCURVE",
"0 29 OFFCURVE",
"0 0 CURVE",
"141 0 OFFCURVE",
"227 142 OFFCURVE",
"227 245 CURVE SMOOTH",
"227 297 OFFCURVE",
"207 348 OFFCURVE",
"179 416 CURVE",
"167 416 LINE",
"119 323 LINE",
"142 277 OFFCURVE",
"178 189 OFFCURVE",
"168 150 CURVE",
"134 129 OFFCURVE",
"79 117 OFFCURVE",
"35 117 CURVE"
);
},
{
closed = 1;
nodes = (
"657 -192 OFFCURVE",
"668 -153 OFFCURVE",
"660 -114 CURVE",
"517 -114 OFFCURVE",
"454 -56 OFFCURVE",
"454 41 CURVE SMOOTH",
"454 126 OFFCURVE",
"486 192 OFFCURVE",
"536 283 CURVE",
"507 292 LINE",
"443 193 OFFCURVE",
"393 87 OFFCURVE",
"393 -13 CURVE SMOOTH",
"393 -136 OFFCURVE",
"459 -231 OFFCURVE",
"625 -231 CURVE"
);
},
{
closed = 1;
nodes = (
"259 0 LINE",
"335 0 OFFCURVE",
"415 39 OFFCURVE",
"471 162 CURVE",
"468 176 LINE",
"410 128 OFFCURVE",
"338 117 OFFCURVE",
"294 117 CURVE"
);
},
{
closed = 1;
nodes = (
"949 -96 LINE",
"1019 26 OFFCURVE",
"1012 160 OFFCURVE",
"961 293 CURVE SMOOTH",
"933 365 OFFCURVE",
"886 416 OFFCURVE",
"847 416 CURVE SMOOTH",
"813 416 OFFCURVE",
"799 401 OFFCURVE",
"762 301 CURVE SMOOTH",
"748 263 OFFCURVE",
"762 208 OFFCURVE",
"815 208 CURVE SMOOTH",
"844 208 OFFCURVE",
"866 222 OFFCURVE",
"881 243 CURVE",
"931 174 OFFCURVE",
"965 13 OFFCURVE",
"929 -62 CURVE"
);
},
{
closed = 1;
nodes = (
"941 -49 LINE",
"870 -90 OFFCURVE",
"755 -114 OFFCURVE",
"660 -114 CURVE",
"625 -231 LINE",
"779 -231 OFFCURVE",
"903 -176 OFFCURVE",
"949 -96 CURVE"
);
},
{
closed = 1;
nodes = (
"0 -495 LINE",
"0 818 LINE",
"1110 818 LINE",
"1110 -495 LINE"
);
}
);
};
components = (
{
alignment = -1;
name = _part.phlv.seen.connector;
transform = "{1, 0, 0, 1, 113, 0}";
},
{
alignment = -1;
name = "sheen-ar.init";
}
);
layerId = "10A83A34-2C0B-4EA0-95B7-223E3205B8BF";
width = 1110;
}
);
},
{
glyphname = "sheen-ar.init";
layers = (
{
anchors = (
{
name = "#entry";
position = "{984, 0}";
},
{
name = "#exit";
position = "{0, 0}";
}
);
background = {
paths = (
{
closed = 1;
nodes = (
"132 87 LINE",
"154 25 OFFCURVE",
"204 0 OFFCURVE",
"260 0 CURVE",
"292 39 OFFCURVE",
"303 78 OFFCURVE",
"295 117 CURVE",
"237 117 OFFCURVE",
"197 129 OFFCURVE",
"179 158 CURVE"
);
},
{
closed = 1;
nodes = (
"3 78 OFFCURVE",
"0 29 OFFCURVE",
"0 0 CURVE",
"141 0 OFFCURVE",
"227 142 OFFCURVE",
"227 245 CURVE SMOOTH",
"227 297 OFFCURVE",
"207 348 OFFCURVE",
"179 416 CURVE",
"167 416 LINE",
"119 323 LINE",
"142 277 OFFCURVE",
"178 189 OFFCURVE",
"168 150 CURVE",
"134 129 OFFCURVE",
"79 117 OFFCURVE",
"35 117 CURVE"
);
},
{
closed = 1;
nodes = (
"657 -192 OFFCURVE",
"668 -153 OFFCURVE",
"660 -114 CURVE",
"517 -114 OFFCURVE",
"454 -56 OFFCURVE",
"454 41 CURVE SMOOTH",
"454 126 OFFCURVE",
"486 192 OFFCURVE",
"536 283 CURVE",
"507 292 LINE",
"443 193 OFFCURVE",
"393 87 OFFCURVE",
"393 -13 CURVE SMOOTH",
"393 -136 OFFCURVE",
"459 -231 OFFCURVE",
"625 -231 CURVE"
);
},
{
closed = 1;
nodes = (
"259 0 LINE",
"335 0 OFFCURVE",
"415 39 OFFCURVE",
"471 162 CURVE",
"468 176 LINE",
"410 128 OFFCURVE",
"338 117 OFFCURVE",
"294 117 CURVE"
);
},
{
closed = 1;
nodes = (
"949 -96 LINE",
"1019 26 OFFCURVE",
"1012 160 OFFCURVE",
"961 293 CURVE SMOOTH",
"933 365 OFFCURVE",
"886 416 OFFCURVE",
"847 416 CURVE SMOOTH",
"813 416 OFFCURVE",
"799 401 OFFCURVE",
"762 301 CURVE SMOOTH",
"748 263 OFFCURVE",
"762 208 OFFCURVE",
"815 208 CURVE SMOOTH",
"844 208 OFFCURVE",
"866 222 OFFCURVE",
"881 243 CURVE",
"931 174 OFFCURVE",
"965 13 OFFCURVE",
"929 -62 CURVE"
);
},
{
closed = 1;
nodes = (
"941 -49 LINE",
"870 -90 OFFCURVE",
"755 -114 OFFCURVE",
"660 -114 CURVE",
"625 -231 LINE",
"779 -231 OFFCURVE",
"903 -176 OFFCURVE",
"949 -96 CURVE"
);
},
{
closed = 1;
nodes = (
"0 -495 LINE",
"0 818 LINE",
"1050 818 LINE",
"1050 -495 LINE"
);
}
);
};
components = (
{
alignment = -1;
name = "seen-ar.init";
transform = "{1, 0, 0, 1, 259, 0}";
},
{
alignment = -1;
name = _part.phlv.right.connector;
transform = "{1, 0, 0, 1, -193, 0}";
},
{
alignment = -1;
name = "ain-ar.init.BL";
}
);
layerId = "10A83A34-2C0B-4EA0-95B7-223E3205B8BF";
width = 1050;
}
);
},
{
glyphname = "alef_meem-ar";
layers = (
{
anchors = (
{
name = "#entry";
position = "{468, 217}";
},
{
name = "#exit";
position = "{336, 217}";
}
);
background = {
paths = (
{
closed = 1;
nodes = (
"556 37 LINE",
"562 99 OFFCURVE",
"544 134 OFFCURVE",
"477 134 CURVE SMOOTH",
"426 134 OFFCURVE",
"300 117 OFFCURVE",
"241 117 CURVE",
"206 0 LINE",
"284 0 OFFCURVE",
"414 17 OFFCURVE",
"464 17 CURVE SMOOTH",
"500 17 OFFCURVE",
"515 4 OFFCURVE",
"520 -16 CURVE"
);
},
{
closed = 1;
nodes = (
"165 7 LINE",
"165 -89 OFFCURVE",
"193 -231 OFFCURVE",
"321 -231 CURVE SMOOTH",
"474 -231 OFFCURVE",
"546 -62 OFFCURVE",
"556 37 CURVE",
"544 29 OFFCURVE",
"532 12 OFFCURVE",
"520 -16 CURVE",
"500 -70 OFFCURVE",
"418 -114 OFFCURVE",
"343 -114 CURVE SMOOTH",
"244 -114 OFFCURVE",
"208 -44 OFFCURVE",
"208 46 CURVE"
);
},
{
closed = 1;
nodes = (
"228 39 OFFCURVE",
"239 78 OFFCURVE",
"241 117 CURVE",
"170 117 OFFCURVE",
"125 134 OFFCURVE",
"98 157 CURVE",
"50 63 LINE",
"68 25 OFFCURVE",
"121 0 OFFCURVE",
"206 0 CURVE"
);
},
{
closed = 1;
nodes = (
"468 304 LINE",
"490 242 OFFCURVE",
"540 217 OFFCURVE",
"596 217 CURVE",
"628 256 OFFCURVE",
"639 295 OFFCURVE",
"631 334 CURVE",
"573 334 OFFCURVE",
"533 346 OFFCURVE",
"515 375 CURVE"
);
},
{
closed = 1;
nodes = (
"339 295 OFFCURVE",
"336 246 OFFCURVE",
"336 217 CURVE",
"477 217 OFFCURVE",
"563 359 OFFCURVE",
"563 462 CURVE SMOOTH",
"563 514 OFFCURVE",
"543 565 OFFCURVE",
"515 633 CURVE",
"503 633 LINE",
"455 540 LINE",
"478 494 OFFCURVE",
"514 406 OFFCURVE",
"504 367 CURVE",
"470 346 OFFCURVE",
"415 334 OFFCURVE",
"371 334 CURVE"
);
},
{
closed = 1;
nodes = (
"599 295 OFFCURVE",
"596 246 OFFCURVE",
"596 217 CURVE",
"737 217 OFFCURVE",
"823 359 OFFCURVE",
"823 462 CURVE SMOOTH",
"823 514 OFFCURVE",
"803 565 OFFCURVE",
"775 633 CURVE",
"763 633 LINE",
"715 540 LINE",
"738 494 OFFCURVE",
"774 406 OFFCURVE",
"764 367 CURVE",
"730 346 OFFCURVE",
"675 334 OFFCURVE",
"631 334 CURVE"
);
},
{
closed = 1;
nodes = (
"208 46 LINE",
"208 133 OFFCURVE",
"244 221 OFFCURVE",
"244 317 CURVE",
"231 321 LINE",
"241 255 OFFCURVE",
"291 217 OFFCURVE",
"336 217 CURVE",
"368 246 OFFCURVE",
"379 295 OFFCURVE",
"371 334 CURVE",
"280 334 OFFCURVE",
"250 411 OFFCURVE",
"200 579 CURVE",
"188 579 LINE",
"140 486 LINE",
"175 399 OFFCURVE",
"195 318 OFFCURVE",
"195 275 CURVE SMOOTH",
"195 193 OFFCURVE",
"165 109 OFFCURVE",
"165 7 CURVE"
);
},
{
closed = 1;
nodes = (
"0 -495 LINE",
"0 818 LINE",
"873 818 LINE",
"873 -495 LINE"
);
}
);
};
components = (
{
alignment = -1;
name = _part.phlv.right.connector;
transform = "{1, 0, 0, 1, 143, 217}";
},
{
alignment = -1;
name = _part.phlv.meem;
},
{
alignment = -1;
name = "ain-ar.init.BL";
transform = "{1, 0, 0, 1, 336, 217}";
},
{
alignment = -1;
name = "ain-ar.init.BL";
transform = "{1, 0, 0, 1, 596, 217}";
}
);
layerId = "10A83A34-2C0B-4EA0-95B7-223E3205B8BF";
width = 873;
}
);
},
{
glyphname = "alef_meem-ar.fina";
layers = (
{
anchors = (
{
name = "#entry";
position = "{468, 217}";
},
{
name = "#exit";
position = "{336, 217}";
}
);
background = {
paths = (
{
closed = 1;
nodes = (
"556 37 LINE",
"562 99 OFFCURVE",
"544 134 OFFCURVE",
"477 134 CURVE SMOOTH",
"426 134 OFFCURVE",
"300 117 OFFCURVE",
"241 117 CURVE",
"206 0 LINE",
"284 0 OFFCURVE",
"414 17 OFFCURVE",
"464 17 CURVE SMOOTH",
"500 17 OFFCURVE",
"515 4 OFFCURVE",
"520 -16 CURVE"
);
},
{
closed = 1;
nodes = (
"165 7 LINE",
"165 -89 OFFCURVE",
"193 -231 OFFCURVE",
"321 -231 CURVE SMOOTH",
"474 -231 OFFCURVE",
"546 -62 OFFCURVE",
"556 37 CURVE",
"544 29 OFFCURVE",
"532 12 OFFCURVE",
"520 -16 CURVE",
"500 -70 OFFCURVE",
"418 -114 OFFCURVE",
"343 -114 CURVE SMOOTH",
"244 -114 OFFCURVE",
"208 -44 OFFCURVE",
"208 46 CURVE"
);
},
{
closed = 1;
nodes = (
"228 39 OFFCURVE",
"239 78 OFFCURVE",
"241 117 CURVE",
"170 117 OFFCURVE",
"125 134 OFFCURVE",
"98 157 CURVE",
"50 63 LINE",
"68 25 OFFCURVE",
"121 0 OFFCURVE",
"206 0 CURVE"
);
},
{
closed = 1;
nodes = (
"468 304 LINE",
"490 242 OFFCURVE",
"540 217 OFFCURVE",
"596 217 CURVE",
"628 256 OFFCURVE",
"639 295 OFFCURVE",
"631 334 CURVE",
"573 334 OFFCURVE",
"533 346 OFFCURVE",
"515 375 CURVE"
);
},
{
closed = 1;
nodes = (
"339 295 OFFCURVE",
"336 246 OFFCURVE",
"336 217 CURVE",
"477 217 OFFCURVE",
"563 359 OFFCURVE",
"563 462 CURVE SMOOTH",
"563 514 OFFCURVE",
"543 565 OFFCURVE",
"515 633 CURVE",
"503 633 LINE",
"455 540 LINE",
"478 494 OFFCURVE",
"514 406 OFFCURVE",
"504 367 CURVE",
"470 346 OFFCURVE",
"415 334 OFFCURVE",
"371 334 CURVE"
);
},
{
closed = 1;
nodes = (
"208 46 LINE",
"208 133 OFFCURVE",
"244 221 OFFCURVE",
"244 317 CURVE",
"231 321 LINE",
"241 255 OFFCURVE",
"291 217 OFFCURVE",
"336 217 CURVE",
"368 246 OFFCURVE",
"379 295 OFFCURVE",
"371 334 CURVE",
"280 334 OFFCURVE",
"250 411 OFFCURVE",
"200 579 CURVE",
"188 579 LINE",
"140 486 LINE",
"175 399 OFFCURVE",
"195 318 OFFCURVE",
"195 275 CURVE SMOOTH",
"195 193 OFFCURVE",
"165 109 OFFCURVE",
"165 7 CURVE"
);
},
{
closed = 1;
nodes = (
"931 39 OFFCURVE",
"942 78 OFFCURVE",
"934 117 CURVE",
"831 117 OFFCURVE",
"779 151 OFFCURVE",
"779 228 CURVE SMOOTH",
"779 301 OFFCURVE",
"825 370 OFFCURVE",
"859 430 CURVE",
"830 439 LINE",
"766 340 OFFCURVE",
"718 264 OFFCURVE",
"718 184 CURVE SMOOTH",
"718 71 OFFCURVE",
"783 0 OFFCURVE",
"899 0 CURVE"
);
},
{
closed = 1;
nodes = (
"596 217 LINE",
"672 217 OFFCURVE",
"752 256 OFFCURVE",
"808 379 CURVE",
"805 393 LINE",
"747 345 OFFCURVE",
"675 334 OFFCURVE",
"631 334 CURVE"
);
},
{
closed = 1;
nodes = (
"0 -495 LINE",
"0 818 LINE",
"899 818 LINE",
"899 -495 LINE"
);
}
);
};
components = (
{
alignment = -1;
name = _part.phlv.right.connector;
transform = "{1, 0, 0, 1, 143, 217}";
},
{
name = _part.phlv.shortbelly.teeth;
transform = "{1, 0, 0, 1, 97, 0}";
},
{
name = _part.phlv.componentteeth.medi;
},
{
alignment = -1;
name = _part.phlv.meem;
},
{
alignment = -1;
name = "ain-ar.init.BL";
transform = "{1, 0, 0, 1, 336, 217}";
}
);
layerId = "10A83A34-2C0B-4EA0-95B7-223E3205B8BF";
width = 899;
}
);
},
{
glyphname = "alef_meem-ar.medi";
layers = (
{
anchors = (
{
name = "#entry";
position = "{371, 217}";
},
{
name = "#exit";
position = "{239, 217}";
}
);
background = {
paths = (
{
closed = 1;
nodes = (
"371 304 LINE",
"393 242 OFFCURVE",
"443 217 OFFCURVE",
"499 217 CURVE",
"531 256 OFFCURVE",
"542 295 OFFCURVE",
"534 334 CURVE",
"476 334 OFFCURVE",
"436 346 OFFCURVE",
"418 375 CURVE"
);
},
{
closed = 1;
nodes = (
"242 295 OFFCURVE",
"239 246 OFFCURVE",
"239 217 CURVE",
"380 217 OFFCURVE",
"466 359 OFFCURVE",
"466 462 CURVE SMOOTH",
"466 514 OFFCURVE",
"446 565 OFFCURVE",
"418 633 CURVE",
"406 633 LINE",
"358 540 LINE",
"381 494 OFFCURVE",
"417 406 OFFCURVE",
"407 367 CURVE",
"373 346 OFFCURVE",
"318 334 OFFCURVE",
"274 334 CURVE"
);
},
{
closed = 1;
nodes = (
"111 46 LINE",
"111 133 OFFCURVE",
"147 221 OFFCURVE",
"147 317 CURVE",
"134 321 LINE",
"144 255 OFFCURVE",
"194 217 OFFCURVE",
"239 217 CURVE",
"271 246 OFFCURVE",
"282 295 OFFCURVE",
"274 334 CURVE",
"183 334 OFFCURVE",
"153 411 OFFCURVE",
"103 579 CURVE",
"91 579 LINE",
"43 486 LINE",
"78 399 OFFCURVE",
"98 318 OFFCURVE",
"98 275 CURVE SMOOTH",
"98 193 OFFCURVE",
"68 109 OFFCURVE",
"68 7 CURVE"
);
},
{
closed = 1;
nodes = (
"68 7 LINE",
"68 -89 OFFCURVE",
"96 -231 OFFCURVE",
"224 -231 CURVE SMOOTH",
"377 -231 OFFCURVE",
"449 -62 OFFCURVE",
"459 37 CURVE SMOOTH",
"465 99 OFFCURVE",
"447 134 OFFCURVE",
"380 134 CURVE SMOOTH",
"303 134 OFFCURVE",
"149 117 OFFCURVE",
"35 117 CURVE",
"13 78 OFFCURVE",
"2 39 OFFCURVE",
"0 0 CURVE",
"102 0 OFFCURVE",
"277 17 OFFCURVE",
"367 17 CURVE SMOOTH",
"403 17 OFFCURVE",
"418 4 OFFCURVE",
"423 -16 CURVE",
"403 -70 OFFCURVE",
"321 -114 OFFCURVE",
"246 -114 CURVE SMOOTH",
"147 -114 OFFCURVE",
"111 -44 OFFCURVE",
"111 46 CURVE"
);
},
{
closed = 1;
nodes = (
"834 39 OFFCURVE",
"845 78 OFFCURVE",
"837 117 CURVE",
"734 117 OFFCURVE",
"682 151 OFFCURVE",
"682 228 CURVE SMOOTH",
"682 301 OFFCURVE",
"728 370 OFFCURVE",
"762 430 CURVE",
"733 439 LINE",
"669 340 OFFCURVE",
"621 264 OFFCURVE",
"621 184 CURVE SMOOTH",
"621 71 OFFCURVE",
"686 0 OFFCURVE",
"802 0 CURVE"
);
},
{
closed = 1;
nodes = (
"499 217 LINE",
"575 217 OFFCURVE",
"655 256 OFFCURVE",
"711 379 CURVE",
"708 393 LINE",
"650 345 OFFCURVE",
"578 334 OFFCURVE",
"534 334 CURVE"
);
},
{
closed = 1;
nodes = (
"0 -495 LINE",
"0 818 LINE",
"802 818 LINE",
"802 -495 LINE"
);
}
);
};
components = (
{
alignment = -1;
name = _part.phlv.right.connector;
transform = "{1, 0, 0, 1, 46, 217}";
},
{
name = _part.phlv.meem.saghkot;
transform = "{1, 0, 0, 1, -97, 0}";
},
{
alignment = -1;
name = _part.phlv.meemdowr.leftjoining;
transform = "{1, 0, 0, 1, -97, 0}";
},
{
name = _part.phlv.shortbelly.teeth;
},
{
name = _part.phlv.componentteeth.medi;
transform = "{1, 0, 0, 1, -97, 0}";
},
{
alignment = -1;
name = "ain-ar.init.BL";
transform = "{1, 0, 0, 1, 239, 217}";
}
);
layerId = "10A83A34-2C0B-4EA0-95B7-223E3205B8BF";
width = 802;
}
);
leftMetricsKey = "meem-ar.init";
},
{
glyphname = "alef_meem-ar.init";
layers = (
{
anchors = (
{
name = "#entry";
position = "{631, 217}";
},
{
name = "#exit";
position = "{499, 217}";
}
);
background = {
paths = (
{
closed = 1;
nodes = (
"371 304 LINE",
"393 242 OFFCURVE",
"443 217 OFFCURVE",
"499 217 CURVE",
"531 256 OFFCURVE",
"542 295 OFFCURVE",
"534 334 CURVE",
"476 334 OFFCURVE",
"436 346 OFFCURVE",
"418 375 CURVE"
);
},
{
closed = 1;
nodes = (
"242 295 OFFCURVE",
"239 246 OFFCURVE",
"239 217 CURVE",
"380 217 OFFCURVE",
"466 359 OFFCURVE",
"466 462 CURVE SMOOTH",
"466 514 OFFCURVE",
"446 565 OFFCURVE",
"418 633 CURVE",
"406 633 LINE",
"358 540 LINE",
"381 494 OFFCURVE",
"417 406 OFFCURVE",
"407 367 CURVE",
"373 346 OFFCURVE",
"318 334 OFFCURVE",
"274 334 CURVE"
);
},
{
closed = 1;
nodes = (
"502 295 OFFCURVE",
"499 246 OFFCURVE",
"499 217 CURVE",
"640 217 OFFCURVE",
"726 359 OFFCURVE",
"726 462 CURVE SMOOTH",
"726 514 OFFCURVE",
"706 565 OFFCURVE",
"678 633 CURVE",
"666 633 LINE",
"618 540 LINE",
"641 494 OFFCURVE",
"677 406 OFFCURVE",
"667 367 CURVE",
"633 346 OFFCURVE",
"578 334 OFFCURVE",
"534 334 CURVE"
);
},
{
closed = 1;
nodes = (
"111 46 LINE",
"111 133 OFFCURVE",
"147 221 OFFCURVE",
"147 317 CURVE",
"134 321 LINE",
"144 255 OFFCURVE",
"194 217 OFFCURVE",
"239 217 CURVE",
"271 246 OFFCURVE",
"282 295 OFFCURVE",
"274 334 CURVE",
"183 334 OFFCURVE",
"153 411 OFFCURVE",
"103 579 CURVE",
"91 579 LINE",
"43 486 LINE",
"78 399 OFFCURVE",
"98 318 OFFCURVE",
"98 275 CURVE SMOOTH",
"98 193 OFFCURVE",
"68 109 OFFCURVE",
"68 7 CURVE"
);
},
{
closed = 1;
nodes = (
"68 7 LINE",
"68 -89 OFFCURVE",
"96 -231 OFFCURVE",
"224 -231 CURVE SMOOTH",
"377 -231 OFFCURVE",
"449 -62 OFFCURVE",
"459 37 CURVE SMOOTH",
"465 99 OFFCURVE",
"447 134 OFFCURVE",
"380 134 CURVE SMOOTH",
"303 134 OFFCURVE",
"149 117 OFFCURVE",
"35 117 CURVE",
"13 78 OFFCURVE",
"2 39 OFFCURVE",
"0 0 CURVE",
"102 0 OFFCURVE",
"277 17 OFFCURVE",
"367 17 CURVE SMOOTH",
"403 17 OFFCURVE",
"418 4 OFFCURVE",
"423 -16 CURVE",
"403 -70 OFFCURVE",
"321 -114 OFFCURVE",
"246 -114 CURVE SMOOTH",
"147 -114 OFFCURVE",
"111 -44 OFFCURVE",
"111 46 CURVE"
);
},
{
closed = 1;
nodes = (
"0 -495 LINE",
"0 818 LINE",
"776 818 LINE",
"776 -495 LINE"
);
}
);
};
components = (
{
alignment = -1;
name = _part.phlv.right.connector;
transform = "{1, 0, 0, 1, 46, 217}";
},
{
name = _part.phlv.meem.saghkot;
transform = "{1, 0, 0, 1, -97, 0}";
},
{
alignment = -1;
name = _part.phlv.meemdowr.leftjoining;
transform = "{1, 0, 0, 1, -97, 0}";
},
{
alignment = -1;
name = "ain-ar.init.BL";
transform = "{1, 0, 0, 1, 239, 217}";
},
{
alignment = -1;
name = "ain-ar.init.BL";
transform = "{1, 0, 0, 1, 499, 217}";
}
);
layerId = "10A83A34-2C0B-4EA0-95B7-223E3205B8BF";
width = 776;
}
);
leftMetricsKey = "meem-ar.medi";
},
{
glyphname = "ain_meem-ar";
layers = (
{
anchors = (
{
name = "#entry";
position = "{468, 217}";
},
{
name = "#exit";
position = "{336, 217}";
}
);
background = {
paths = (
{
closed = 1;
nodes = (
"556 37 LINE",
"562 99 OFFCURVE",
"544 134 OFFCURVE",
"477 134 CURVE SMOOTH",
"426 134 OFFCURVE",
"300 117 OFFCURVE",
"241 117 CURVE",
"206 0 LINE",
"284 0 OFFCURVE",
"414 17 OFFCURVE",
"464 17 CURVE SMOOTH",
"500 17 OFFCURVE",
"515 4 OFFCURVE",
"520 -16 CURVE"
);
},
{
closed = 1;
nodes = (
"165 7 LINE",
"165 -89 OFFCURVE",
"193 -231 OFFCURVE",
"321 -231 CURVE SMOOTH",
"474 -231 OFFCURVE",
"546 -62 OFFCURVE",
"556 37 CURVE",
"544 29 OFFCURVE",
"532 12 OFFCURVE",
"520 -16 CURVE",
"500 -70 OFFCURVE",
"418 -114 OFFCURVE",
"343 -114 CURVE SMOOTH",
"244 -114 OFFCURVE",
"208 -44 OFFCURVE",
"208 46 CURVE"
);
},
{
closed = 1;
nodes = (
"228 39 OFFCURVE",
"239 78 OFFCURVE",
"241 117 CURVE",
"170 117 OFFCURVE",
"125 134 OFFCURVE",
"98 157 CURVE",
"50 63 LINE",
"68 25 OFFCURVE",
"121 0 OFFCURVE",
"206 0 CURVE"
);
},
{
closed = 1;
nodes = (
"339 295 OFFCURVE",
"336 246 OFFCURVE",
"336 217 CURVE",
"477 217 OFFCURVE",
"563 359 OFFCURVE",
"563 462 CURVE SMOOTH",
"563 514 OFFCURVE",
"543 565 OFFCURVE",
"515 633 CURVE",
"503 633 LINE",
"455 540 LINE",
"478 494 OFFCURVE",
"514 406 OFFCURVE",
"504 367 CURVE",
"470 346 OFFCURVE",
"415 334 OFFCURVE",
"371 334 CURVE"
);
},
{
closed = 1;
nodes = (
"208 46 LINE",
"208 133 OFFCURVE",
"244 221 OFFCURVE",
"244 317 CURVE",
"231 321 LINE",
"241 255 OFFCURVE",
"291 217 OFFCURVE",
"336 217 CURVE",
"368 246 OFFCURVE",
"379 295 OFFCURVE",
"371 334 CURVE",
"280 334 OFFCURVE",
"250 411 OFFCURVE",
"200 579 CURVE",
"188 579 LINE",
"140 486 LINE",
"175 399 OFFCURVE",
"195 318 OFFCURVE",
"195 275 CURVE SMOOTH",
"195 193 OFFCURVE",
"165 109 OFFCURVE",
"165 7 CURVE"
);
},
{
closed = 1;
nodes = (
"0 -495 LINE",
"0 818 LINE",
"613 818 LINE",
"613 -495 LINE"
);
}
);
};
components = (
{
alignment = -1;
name = _part.phlv.meem;
},
{
alignment = -1;
name = "ain-ar.init.BL";
transform = "{1, 0, 0, 1, 336, 217}";
}
);
layerId = "10A83A34-2C0B-4EA0-95B7-223E3205B8BF";
width = 613;
}
);
},
{
glyphname = "ain_meem-ar.fina";
layers = (
{
background = {
paths = (
{
closed = 1;
nodes = (
"228 39 OFFCURVE",
"239 78 OFFCURVE",
"241 117 CURVE",
"170 117 OFFCURVE",
"125 134 OFFCURVE",
"98 157 CURVE",
"50 63 LINE",
"68 25 OFFCURVE",
"121 0 OFFCURVE",
"206 0 CURVE"
);
},
{
closed = 1;
nodes = (
"556 37 LINE",
"562 99 OFFCURVE",
"544 134 OFFCURVE",
"477 134 CURVE SMOOTH",
"426 134 OFFCURVE",
"300 117 OFFCURVE",
"241 117 CURVE",
"206 0 LINE",
"284 0 OFFCURVE",
"414 17 OFFCURVE",
"464 17 CURVE SMOOTH",
"500 17 OFFCURVE",
"515 4 OFFCURVE",
"520 -16 CURVE"
);
},
{
closed = 1;
nodes = (
"165 7 LINE",
"165 -89 OFFCURVE",
"193 -231 OFFCURVE",
"321 -231 CURVE SMOOTH",
"474 -231 OFFCURVE",
"546 -62 OFFCURVE",
"556 37 CURVE",
"544 29 OFFCURVE",
"532 12 OFFCURVE",
"520 -16 CURVE",
"500 -70 OFFCURVE",
"418 -114 OFFCURVE",
"343 -114 CURVE SMOOTH",
"244 -114 OFFCURVE",
"208 -44 OFFCURVE",
"208 46 CURVE"
);
},
{
closed = 1;
nodes = (
"255 255 OFFCURVE",
"311 217 OFFCURVE",
"386 217 CURVE",
"418 246 OFFCURVE",
"429 295 OFFCURVE",
"421 334 CURVE",
"270 334 OFFCURVE",
"250 421 OFFCURVE",
"200 579 CURVE",
"188 579 LINE",
"140 486 LINE",
"175 399 OFFCURVE",
"195 318 OFFCURVE",
"195 275 CURVE SMOOTH",
"195 193 OFFCURVE",
"165 109 OFFCURVE",
"165 7 CURVE",
"208 46 LINE",
"208 133 OFFCURVE",
"244 221 OFFCURVE",
"244 317 CURVE",
"231 317 LINE"
);
},
{
closed = 1;
nodes = (
"796 360 LINE",
"666 348 OFFCURVE",
"515 334 OFFCURVE",
"421 334 CURVE",
"386 217 LINE",
"502 217 OFFCURVE",
"648 259 OFFCURVE",
"768 289 CURVE"
);
},
{
closed = 1;
nodes = (
"931 39 OFFCURVE",
"942 78 OFFCURVE",
"934 117 CURVE",
"831 117 OFFCURVE",
"779 151 OFFCURVE",
"779 228 CURVE SMOOTH",
"779 301 OFFCURVE",
"825 370 OFFCURVE",
"859 430 CURVE",
"830 439 LINE",
"766 340 OFFCURVE",
"718 264 OFFCURVE",
"718 184 CURVE SMOOTH",
"718 71 OFFCURVE",
"783 0 OFFCURVE",
"899 0 CURVE"
);
},
{
closed = 1;
nodes = (
"0 -495 LINE",
"0 818 LINE",
"899 818 LINE",
"899 -495 LINE"
);
}
);
};
components = (
{
alignment = -1;
name = _part.phlv.conector.ladhsecond;
},
{
alignment = -1;
name = _part.phlv.dowr.meem;
transform = "{1, 0, 0, 1, 20, 0}";
},
{
name = _part.phlv.dadmeem.connector;
},
{
name = _part.phlv.bridge.ainmeem;
},
{
name = _part.phlv.shortbelly.teeth;
transform = "{1, 0, 0, 1, 97, 0}";
}
);
layerId = "10A83A34-2C0B-4EA0-95B7-223E3205B8BF";
width = 899;
}
);
},
{
glyphname = "ain_meem-ar.medi";
layers = (
{
background = {
paths = (
{
closed = 1;
nodes = (
"158 255 OFFCURVE",
"214 217 OFFCURVE",
"289 217 CURVE",
"321 246 OFFCURVE",
"332 295 OFFCURVE",
"324 334 CURVE",
"173 334 OFFCURVE",
"153 421 OFFCURVE",
"103 579 CURVE",
"91 579 LINE",
"43 486 LINE",
"78 399 OFFCURVE",
"98 318 OFFCURVE",
"98 275 CURVE SMOOTH",
"98 193 OFFCURVE",
"68 109 OFFCURVE",
"68 7 CURVE",
"111 46 LINE",
"111 133 OFFCURVE",
"147 221 OFFCURVE",
"147 317 CURVE",
"134 317 LINE"
);
},
{
closed = 1;
nodes = (
"68 7 LINE",
"68 -89 OFFCURVE",
"96 -231 OFFCURVE",
"224 -231 CURVE SMOOTH",
"377 -231 OFFCURVE",
"449 -62 OFFCURVE",
"459 37 CURVE SMOOTH",
"465 99 OFFCURVE",
"447 134 OFFCURVE",
"380 134 CURVE SMOOTH",
"303 134 OFFCURVE",
"149 117 OFFCURVE",
"35 117 CURVE",
"13 78 OFFCURVE",
"2 39 OFFCURVE",
"0 0 CURVE",
"102 0 OFFCURVE",
"277 17 OFFCURVE",
"367 17 CURVE SMOOTH",
"403 17 OFFCURVE",
"418 4 OFFCURVE",
"423 -16 CURVE",
"403 -70 OFFCURVE",
"321 -114 OFFCURVE",
"246 -114 CURVE SMOOTH",
"147 -114 OFFCURVE",
"111 -44 OFFCURVE",
"111 46 CURVE"
);
},
{
closed = 1;
nodes = (
"699 360 LINE",
"569 348 OFFCURVE",
"418 334 OFFCURVE",
"324 334 CURVE",
"289 217 LINE",
"405 217 OFFCURVE",
"551 259 OFFCURVE",
"671 289 CURVE"
);
},
{
closed = 1;
nodes = (
"834 39 OFFCURVE",
"845 78 OFFCURVE",
"837 117 CURVE",
"734 117 OFFCURVE",
"682 151 OFFCURVE",
"682 228 CURVE SMOOTH",
"682 301 OFFCURVE",
"728 370 OFFCURVE",
"762 430 CURVE",
"733 439 LINE",
"669 340 OFFCURVE",
"621 264 OFFCURVE",
"621 184 CURVE SMOOTH",
"621 71 OFFCURVE",
"686 0 OFFCURVE",
"802 0 CURVE"
);
},
{
closed = 1;
nodes = (
"0 -495 LINE",
"0 818 LINE",
"802 818 LINE",
"802 -495 LINE"
);
}
);
};
components = (
{
alignment = -1;
name = _part.phlv.dadmeem.connector;
transform = "{1, 0, 0, 1, -97, 0}";
},
{
name = _part.phlv.meemdowr.leftjoining;
transform = "{1, 0, 0, 1, -97, 0}";
},
{
name = _part.phlv.bridge.ainmeem;
transform = "{1, 0, 0, 1, -97, 0}";
},
{
name = _part.phlv.shortbelly.teeth;
}
);
layerId = "10A83A34-2C0B-4EA0-95B7-223E3205B8BF";
width = 802;
}
);
leftMetricsKey = "meem-ar.medi";
},
{
glyphname = "ain_meem-ar.init";
layers = (
{
anchors = (
{
name = "#entry";
position = "{371, 217}";
},
{
name = "#exit";
position = "{239, 217}";
}
);
background = {
paths = (
{
closed = 1;
nodes = (
"242 295 OFFCURVE",
"239 246 OFFCURVE",
"239 217 CURVE",
"380 217 OFFCURVE",
"466 359 OFFCURVE",
"466 462 CURVE SMOOTH",
"466 514 OFFCURVE",
"446 565 OFFCURVE",
"418 633 CURVE",
"406 633 LINE",
"358 540 LINE",
"381 494 OFFCURVE",
"417 406 OFFCURVE",
"407 367 CURVE",
"373 346 OFFCURVE",
"318 334 OFFCURVE",
"274 334 CURVE"
);
},
{
closed = 1;
nodes = (
"111 46 LINE",
"111 133 OFFCURVE",
"147 221 OFFCURVE",
"147 317 CURVE",
"134 321 LINE",
"144 255 OFFCURVE",
"194 217 OFFCURVE",
"239 217 CURVE",
"271 246 OFFCURVE",
"282 295 OFFCURVE",
"274 334 CURVE",
"183 334 OFFCURVE",
"153 411 OFFCURVE",
"103 579 CURVE",
"91 579 LINE",
"43 486 LINE",
"78 399 OFFCURVE",
"98 318 OFFCURVE",
"98 275 CURVE SMOOTH",
"98 193 OFFCURVE",
"68 109 OFFCURVE",
"68 7 CURVE"
);
},
{
closed = 1;
nodes = (
"68 7 LINE",
"68 -89 OFFCURVE",
"96 -231 OFFCURVE",
"224 -231 CURVE SMOOTH",
"377 -231 OFFCURVE",
"449 -62 OFFCURVE",
"459 37 CURVE SMOOTH",
"465 99 OFFCURVE",
"447 134 OFFCURVE",
"380 134 CURVE SMOOTH",
"303 134 OFFCURVE",
"149 117 OFFCURVE",
"35 117 CURVE",
"13 78 OFFCURVE",
"2 39 OFFCURVE",
"0 0 CURVE",
"102 0 OFFCURVE",
"277 17 OFFCURVE",
"367 17 CURVE SMOOTH",
"403 17 OFFCURVE",
"418 4 OFFCURVE",
"423 -16 CURVE",
"403 -70 OFFCURVE",
"321 -114 OFFCURVE",
"246 -114 CURVE SMOOTH",
"147 -114 OFFCURVE",
"111 -44 OFFCURVE",
"111 46 CURVE"
);
},
{
closed = 1;
nodes = (
"0 -495 LINE",
"0 818 LINE",
"516 818 LINE",
"516 -495 LINE"
);
}
);
};
components = (
{
alignment = -1;
name = _part.phlv.meem.saghkot;
transform = "{1, 0, 0, 1, -97, 0}";
},
{
alignment = -1;
name = _part.phlv.meemdowr.leftjoining;
transform = "{1, 0, 0, 1, -97, 0}";
},
{
alignment = -1;
name = "ain-ar.init.BL";
transform = "{1, 0, 0, 1, 239, 217}";
}
);
layerId = "10A83A34-2C0B-4EA0-95B7-223E3205B8BF";
width = 516;
}
);
leftMetricsKey = "meem-ar.medi";
},
{
glyphname = "dad_meem-ar";
layers = (
{
background = {
paths = (
{
closed = 1;
nodes = (
"556 37 LINE",
"562 99 OFFCURVE",
"544 134 OFFCURVE",
"477 134 CURVE SMOOTH",
"426 134 OFFCURVE",
"300 117 OFFCURVE",
"241 117 CURVE",
"206 0 LINE",
"284 0 OFFCURVE",
"414 17 OFFCURVE",
"464 17 CURVE SMOOTH",
"500 17 OFFCURVE",
"515 4 OFFCURVE",
"520 -16 CURVE"
);
},
{
closed = 1;
nodes = (
"165 7 LINE",
"165 -89 OFFCURVE",
"193 -231 OFFCURVE",
"321 -231 CURVE SMOOTH",
"474 -231 OFFCURVE",
"546 -62 OFFCURVE",
"556 37 CURVE",
"544 29 OFFCURVE",
"532 12 OFFCURVE",
"520 -16 CURVE",
"500 -70 OFFCURVE",
"418 -114 OFFCURVE",
"343 -114 CURVE SMOOTH",
"244 -114 OFFCURVE",
"208 -44 OFFCURVE",
"208 46 CURVE"
);
},
{
closed = 1;
nodes = (
"228 39 OFFCURVE",
"239 78 OFFCURVE",
"241 117 CURVE",
"170 117 OFFCURVE",
"125 134 OFFCURVE",
"98 157 CURVE",
"50 63 LINE",
"68 25 OFFCURVE",
"121 0 OFFCURVE",
"206 0 CURVE"
);
},
{
closed = 1;
nodes = (
"626 413 LINE",
"565 361 OFFCURVE",
"492 334 OFFCURVE",
"421 334 CURVE",
"386 217 LINE",
"459 217 OFFCURVE",
"562 252 OFFCURVE",
"609 325 CURVE"
);
},
{
closed = 1;
nodes = (
"609 325 LINE",
"633 362 OFFCURVE",
"649 418 OFFCURVE",
"649 455 CURVE SMOOTH",
"649 533 OFFCURVE",
"617 562 OFFCURVE",
"527 582 CURVE SMOOTH",
"362 618 LINE",
"355 556 OFFCURVE",
"384 505 OFFCURVE",
"455 486 CURVE SMOOTH",
"537 464 OFFCURVE",
"629 449 OFFCURVE",
"613 380 CURVE"
);
},
{
closed = 1;
nodes = (
"391 606 LINE",
"403 657 OFFCURVE",
"506 747 OFFCURVE",
"587 747 CURVE SMOOTH",
"615 747 OFFCURVE",
"622 734 OFFCURVE",
"622 713 CURVE",
"634 713 LINE",
"669 778 OFFCURVE",
"685 864 OFFCURVE",
"614 864 CURVE SMOOTH",
"524 864 OFFCURVE",
"407 760 OFFCURVE",
"376 673 CURVE SMOOTH",
"370 656 OFFCURVE",
"364 635 OFFCURVE",
"362 618 CURVE"
);
},
{
closed = 1;
nodes = (
"255 255 OFFCURVE",
"311 217 OFFCURVE",
"386 217 CURVE",
"418 246 OFFCURVE",
"429 295 OFFCURVE",
"421 334 CURVE",
"270 334 OFFCURVE",
"250 421 OFFCURVE",
"200 579 CURVE",
"188 579 LINE",
"140 486 LINE",
"175 399 OFFCURVE",
"195 318 OFFCURVE",
"195 275 CURVE SMOOTH",
"195 193 OFFCURVE",
"165 109 OFFCURVE",
"165 7 CURVE",
"208 46 LINE",
"208 133 OFFCURVE",
"244 221 OFFCURVE",
"244 317 CURVE",
"231 317 LINE"
);
},
{
closed = 1;
nodes = (
"0 -495 LINE",
"0 818 LINE",
"714 818 LINE",
"714 -495 LINE"
);
}
);
};
components = (
{
alignment = -1;
name = _part.phlv.dowr.meem;
transform = "{1, 0, 0, 1, 20, 0}";
},
{
alignment = -1;
name = _part.phlv.conector.ladhsecond;
},
{
alignment = -1;
name = "_part.phlv.keheh-ar.transition";
transform = "{1, 0, 0, 1, 240, 448}";
},
{
alignment = -1;
name = _part.phlv.head.zeh;
transform = "{1, 0, 0, 1, 240, 448}";
},
{
name = _part.phlv.dadmeem.connector;
}
);
layerId = "10A83A34-2C0B-4EA0-95B7-223E3205B8BF";
width = 714;
}
);
},
{
glyphname = "dad_meem-ar.init";
layers = (
{
background = {
paths = (
{
closed = 1;
nodes = (
"529 413 LINE",
"468 361 OFFCURVE",
"395 334 OFFCURVE",
"324 334 CURVE",
"289 217 LINE",
"362 217 OFFCURVE",
"465 252 OFFCURVE",
"512 325 CURVE"
);
},
{
closed = 1;
nodes = (
"512 325 LINE",
"536 362 OFFCURVE",
"552 418 OFFCURVE",
"552 455 CURVE SMOOTH",
"552 533 OFFCURVE",
"520 562 OFFCURVE",
"430 582 CURVE SMOOTH",
"265 618 LINE",
"258 556 OFFCURVE",
"287 505 OFFCURVE",
"358 486 CURVE SMOOTH",
"440 464 OFFCURVE",
"532 449 OFFCURVE",
"516 380 CURVE"
);
},
{
closed = 1;
nodes = (
"294 606 LINE",
"306 657 OFFCURVE",
"409 747 OFFCURVE",
"490 747 CURVE SMOOTH",
"518 747 OFFCURVE",
"525 734 OFFCURVE",
"525 713 CURVE",
"537 713 LINE",
"572 778 OFFCURVE",
"588 864 OFFCURVE",
"517 864 CURVE SMOOTH",
"427 864 OFFCURVE",
"310 760 OFFCURVE",
"279 673 CURVE SMOOTH",
"273 656 OFFCURVE",
"267 635 OFFCURVE",
"265 618 CURVE"
);
},
{
closed = 1;
nodes = (
"158 255 OFFCURVE",
"214 217 OFFCURVE",
"289 217 CURVE",
"321 246 OFFCURVE",
"332 295 OFFCURVE",
"324 334 CURVE",
"173 334 OFFCURVE",
"153 421 OFFCURVE",
"103 579 CURVE",
"91 579 LINE",
"43 486 LINE",
"78 399 OFFCURVE",
"98 318 OFFCURVE",
"98 275 CURVE SMOOTH",
"98 193 OFFCURVE",
"68 109 OFFCURVE",
"68 7 CURVE",
"111 46 LINE",
"111 133 OFFCURVE",
"147 221 OFFCURVE",
"147 317 CURVE",
"134 317 LINE"
);
},
{
closed = 1;
nodes = (
"68 7 LINE",
"68 -89 OFFCURVE",
"96 -231 OFFCURVE",
"224 -231 CURVE SMOOTH",
"377 -231 OFFCURVE",
"449 -62 OFFCURVE",
"459 37 CURVE SMOOTH",
"465 99 OFFCURVE",
"447 134 OFFCURVE",
"380 134 CURVE SMOOTH",
"303 134 OFFCURVE",
"149 117 OFFCURVE",
"35 117 CURVE",
"13 78 OFFCURVE",
"2 39 OFFCURVE",
"0 0 CURVE",
"102 0 OFFCURVE",
"277 17 OFFCURVE",
"367 17 CURVE SMOOTH",
"403 17 OFFCURVE",
"418 4 OFFCURVE",
"423 -16 CURVE",
"403 -70 OFFCURVE",
"321 -114 OFFCURVE",
"246 -114 CURVE SMOOTH",
"147 -114 OFFCURVE",
"111 -44 OFFCURVE",
"111 46 CURVE"
);
},
{
closed = 1;
nodes = (
"0 -495 LINE",
"0 818 LINE",
"617 818 LINE",
"617 -495 LINE"
);
}
);
};
components = (
{
alignment = -1;
name = "_part.phlv.keheh-ar.transition";
transform = "{1, 0, 0, 1, 143, 448}";
},
{
alignment = -1;
name = _part.phlv.head.zeh;
transform = "{1, 0, 0, 1, 143, 448}";
},
{
name = _part.phlv.dadmeem.connector;
transform = "{1, 0, 0, 1, -97, 0}";
},
{
alignment = -1;
name = _part.phlv.meemdowr.leftjoining;
transform = "{1, 0, 0, 1, -97, 0}";
}
);
layerId = "10A83A34-2C0B-4EA0-95B7-223E3205B8BF";
width = 617;
}
);
},
{
glyphname = "dad_peh-ar";
layers = (
{
anchors = (
{
name = "#entry";
position = "{783, 0}";
}
);
background = {
paths = (
{
closed = 1;
nodes = (
"722 -86 LINE",
"742 -54 OFFCURVE",
"759 -10 OFFCURVE",
"759 27 CURVE SMOOTH",
"759 85 OFFCURVE",
"727 114 OFFCURVE",
"637 134 CURVE SMOOTH",
"472 170 LINE",
"465 108 OFFCURVE",
"494 57 OFFCURVE",
"565 38 CURVE SMOOTH",
"647 16 OFFCURVE",
"729 11 OFFCURVE",
"713 -58 CURVE"
);
},
{
closed = 1;
nodes = (
"501 158 LINE",
"513 209 OFFCURVE",
"616 299 OFFCURVE",
"697 299 CURVE SMOOTH",
"725 299 OFFCURVE",
"732 286 OFFCURVE",
"732 265 CURVE",
"744 265 LINE",
"779 330 OFFCURVE",
"795 416 OFFCURVE",
"724 416 CURVE SMOOTH",
"634 416 OFFCURVE",
"517 312 OFFCURVE",
"486 225 CURVE SMOOTH",
"480 208 OFFCURVE",
"474 187 OFFCURVE",
"472 170 CURVE"
);
},
{
closed = 1;
nodes = (
"102 41 LINE",
"102 142 OFFCURVE",
"202 279 OFFCURVE",
"263 279 CURVE SMOOTH",
"310 279 OFFCURVE",
"340 214 OFFCURVE",
"349 191 CURVE",
"326 168 OFFCURVE",
"264 144 OFFCURVE",
"197 144 CURVE SMOOTH",
"163 144 OFFCURVE",
"139 151 OFFCURVE",
"122 164 CURVE",
"74 70 LINE",
"82 42 OFFCURVE",
"122 27 OFFCURVE",
"162 27 CURVE SMOOTH",
"238 27 OFFCURVE",
"292 66 OFFCURVE",
"322 100 CURVE SMOOTH",
"351 134 OFFCURVE",
"391 194 OFFCURVE",
"391 248 CURVE SMOOTH",
"391 307 OFFCURVE",
"360 396 OFFCURVE",
"308 396 CURVE SMOOTH",
"234 396 OFFCURVE",
"50 134 OFFCURVE",
"50 -13 CURVE"
);
},
{
closed = 1;
nodes = (
"726 -31 LINE",
"645 -81 OFFCURVE",
"475 -114 OFFCURVE",
"352 -114 CURVE",
"323 -150 OFFCURVE",
"317 -192 OFFCURVE",
"317 -231 CURVE",
"518 -231 OFFCURVE",
"681 -158 OFFCURVE",
"722 -86 CURVE"
);
},
{
closed = 1;
nodes = (
"85 33 OFFCURVE",
"67 15 OFFCURVE",
"50 -13 CURVE",
"50 -136 OFFCURVE",
"131 -231 OFFCURVE",
"317 -231 CURVE",
"339 -192 OFFCURVE",
"350 -153 OFFCURVE",
"352 -114 CURVE",
"189 -114 OFFCURVE",
"102 -56 OFFCURVE",
"102 41 CURVE"
);
},
{
closed = 1;
nodes = (
"0 -495 LINE",
"0 818 LINE",
"824 818 LINE",
"824 -495 LINE"
);
}
);
};
components = (
{
name = _part.phlv.torreh.zeh;
transform = "{1, 0, 0, 1, 350, 0}";
},
{
name = _part.phlv.gereh.peh;
},
{
name = _part.phlv.peh.keshidehbridge;
}
);
layerId = "10A83A34-2C0B-4EA0-95B7-223E3205B8BF";
paths = (
{
closed = 1;
nodes = (
"722 -86 LINE",
"742 -54 OFFCURVE",
"759 -10 OFFCURVE",
"759 27 CURVE SMOOTH",
"759 85 OFFCURVE",
"727 114 OFFCURVE",
"637 134 CURVE SMOOTH",
"472 170 LINE",
"465 108 OFFCURVE",
"494 57 OFFCURVE",
"565 38 CURVE SMOOTH",
"647 16 OFFCURVE",
"729 11 OFFCURVE",
"713 -58 CURVE"
);
}
);
width = 824;
}
);
},
{
glyphname = "dad_peh-ar.fina";
layers = (
{
background = {
paths = (
{
closed = 1;
nodes = (
"647 -134 LINE",
"680 -193 OFFCURVE",
"745 -231 OFFCURVE",
"850 -231 CURVE",
"886 -192 OFFCURVE",
"894 -153 OFFCURVE",
"885 -114 CURVE",
"807 -114 OFFCURVE",
"750 -97 OFFCURVE",
"714 -65 CURVE"
);
},
{
closed = 1;
nodes = (
"722 -86 LINE",
"742 -54 OFFCURVE",
"759 -10 OFFCURVE",
"759 27 CURVE SMOOTH",
"759 85 OFFCURVE",
"727 114 OFFCURVE",
"637 134 CURVE SMOOTH",
"472 170 LINE",
"465 108 OFFCURVE",
"494 57 OFFCURVE",
"565 38 CURVE SMOOTH",
"647 16 OFFCURVE",
"729 11 OFFCURVE",
"713 -58 CURVE"
);
},
{
closed = 1;
nodes = (
"501 158 LINE",
"513 209 OFFCURVE",
"616 299 OFFCURVE",
"697 299 CURVE SMOOTH",
"725 299 OFFCURVE",
"732 286 OFFCURVE",
"732 265 CURVE",
"744 265 LINE",
"779 330 OFFCURVE",
"795 416 OFFCURVE",
"724 416 CURVE SMOOTH",
"634 416 OFFCURVE",
"517 312 OFFCURVE",
"486 225 CURVE SMOOTH",
"480 208 OFFCURVE",
"474 187 OFFCURVE",
"472 170 CURVE"
);
},
{
closed = 1;
nodes = (
"102 41 LINE",
"102 142 OFFCURVE",
"202 279 OFFCURVE",
"263 279 CURVE SMOOTH",
"310 279 OFFCURVE",
"340 214 OFFCURVE",
"349 191 CURVE",
"326 168 OFFCURVE",
"264 144 OFFCURVE",
"197 144 CURVE SMOOTH",
"163 144 OFFCURVE",
"139 151 OFFCURVE",
"122 164 CURVE",
"74 70 LINE",
"82 42 OFFCURVE",
"122 27 OFFCURVE",
"162 27 CURVE SMOOTH",
"238 27 OFFCURVE",
"292 66 OFFCURVE",
"322 100 CURVE SMOOTH",
"351 134 OFFCURVE",
"391 194 OFFCURVE",
"391 248 CURVE SMOOTH",
"391 307 OFFCURVE",
"360 396 OFFCURVE",
"308 396 CURVE SMOOTH",
"234 396 OFFCURVE",
"50 134 OFFCURVE",
"50 -13 CURVE"
);
},
{
closed = 1;
nodes = (
"726 -31 LINE",
"645 -81 OFFCURVE",
"475 -114 OFFCURVE",
"352 -114 CURVE",
"323 -150 OFFCURVE",
"317 -192 OFFCURVE",
"317 -231 CURVE",
"518 -231 OFFCURVE",
"681 -158 OFFCURVE",
"722 -86 CURVE"
);
},
{
closed = 1;
nodes = (
"85 33 OFFCURVE",
"67 15 OFFCURVE",
"50 -13 CURVE",
"50 -136 OFFCURVE",
"131 -231 OFFCURVE",
"317 -231 CURVE",
"339 -192 OFFCURVE",
"350 -153 OFFCURVE",
"352 -114 CURVE",
"189 -114 OFFCURVE",
"102 -56 OFFCURVE",
"102 41 CURVE"
);
},
{
closed = 1;
nodes = (
"0 -495 LINE",
"0 818 LINE",
"850 818 LINE",
"850 -495 LINE"
);
}
);
};
components = (
{
alignment = -1;
name = _part.phlv.lower.connector;
transform = "{1, 0, 0, 1, 784, 0}";
},
{
alignment = -1;
name = "dad_peh-ar";
}
);
layerId = "10A83A34-2C0B-4EA0-95B7-223E3205B8BF";
width = 850;
}
);
},
{
glyphname = "lam_meem-ar";
layers = (
{
background = {
paths = (
{
closed = 1;
nodes = (
"255 255 OFFCURVE",
"311 217 OFFCURVE",
"386 217 CURVE",
"418 246 OFFCURVE",
"429 295 OFFCURVE",
"421 334 CURVE",
"270 334 OFFCURVE",
"250 421 OFFCURVE",
"200 579 CURVE",
"188 579 LINE",
"140 486 LINE",
"175 399 OFFCURVE",
"195 318 OFFCURVE",
"195 275 CURVE SMOOTH",
"195 193 OFFCURVE",
"165 109 OFFCURVE",
"165 7 CURVE",
"208 46 LINE",
"208 133 OFFCURVE",
"244 221 OFFCURVE",
"244 317 CURVE",
"231 317 LINE"
);
},
{
closed = 1;
nodes = (
"399 295 OFFCURVE",
"388 256 OFFCURVE",
"386 217 CURVE",
"469 217 OFFCURVE",
"545 259 OFFCURVE",
"588 325 CURVE SMOOTH",
"622 377 OFFCURVE",
"639 430 OFFCURVE",
"639 474 CURVE SMOOTH",
"639 553 OFFCURVE",
"618 589 OFFCURVE",
"536 696 CURVE SMOOTH",
"459 797 OFFCURVE",
"374 921 OFFCURVE",
"374 1035 CURVE",
"346 1035 LINE",
"337 958 LINE SMOOTH",
"324 845 OFFCURVE",
"377 762 OFFCURVE",
"454 659 CURVE SMOOTH",
"536 550 OFFCURVE",
"618 471 OFFCURVE",
"591 387 CURVE",
"540 352 OFFCURVE",
"475 334 OFFCURVE",
"421 334 CURVE"
);
},
{
closed = 1;
nodes = (
"556 37 LINE",
"562 99 OFFCURVE",
"544 134 OFFCURVE",
"477 134 CURVE SMOOTH",
"426 134 OFFCURVE",
"300 117 OFFCURVE",
"241 117 CURVE",
"206 0 LINE",
"284 0 OFFCURVE",
"414 17 OFFCURVE",
"464 17 CURVE SMOOTH",
"500 17 OFFCURVE",
"515 4 OFFCURVE",
"520 -16 CURVE"
);
},
{
closed = 1;
nodes = (
"165 7 LINE",
"165 -89 OFFCURVE",
"193 -231 OFFCURVE",
"321 -231 CURVE SMOOTH",
"474 -231 OFFCURVE",
"546 -62 OFFCURVE",
"556 37 CURVE",
"544 29 OFFCURVE",
"532 12 OFFCURVE",
"520 -16 CURVE",
"500 -70 OFFCURVE",
"418 -114 OFFCURVE",
"343 -114 CURVE SMOOTH",
"244 -114 OFFCURVE",
"208 -44 OFFCURVE",
"208 46 CURVE"
);
},
{
closed = 1;
nodes = (
"228 39 OFFCURVE",
"239 78 OFFCURVE",
"241 117 CURVE",
"170 117 OFFCURVE",
"125 134 OFFCURVE",
"98 157 CURVE",
"50 63 LINE",
"68 25 OFFCURVE",
"121 0 OFFCURVE",
"206 0 CURVE"
);
},
{
closed = 1;
nodes = (
"0 -495 LINE",
"0 818 LINE",
"689 818 LINE",
"689 -495 LINE"
);
}
);
};
components = (
{
alignment = -1;
name = _part.phlv.conector.ladhsecond;
},
{
alignment = -1;
name = _part.phlv.dowr.meem;
transform = "{1, 0, 0, 1, 20, 0}";
},
{
name = _part.phlv.dadmeem.connector;
},
{
alignment = -1;
name = _part.phlv.lamedh.tail;
transform = "{1, 0, 0, 1, 386, 217}";
}
);
layerId = "10A83A34-2C0B-4EA0-95B7-223E3205B8BF";
width = 689;
}
);
},
{
glyphname = "lam_meem-ar.init";
layers = (
{
anchors = (
{
name = "#exit";
position = "{289, 217}";
}
);
background = {
paths = (
{
closed = 1;
nodes = (
"158 255 OFFCURVE",
"214 217 OFFCURVE",
"289 217 CURVE",
"321 246 OFFCURVE",
"332 295 OFFCURVE",
"324 334 CURVE",
"173 334 OFFCURVE",
"153 421 OFFCURVE",
"103 579 CURVE",
"91 579 LINE",
"43 486 LINE",
"78 399 OFFCURVE",
"98 318 OFFCURVE",
"98 275 CURVE SMOOTH",
"98 193 OFFCURVE",
"68 109 OFFCURVE",
"68 7 CURVE",
"111 46 LINE",
"111 133 OFFCURVE",
"147 221 OFFCURVE",
"147 317 CURVE",
"134 317 LINE"
);
},
{
closed = 1;
nodes = (
"68 7 LINE",
"68 -89 OFFCURVE",
"96 -231 OFFCURVE",
"224 -231 CURVE SMOOTH",
"377 -231 OFFCURVE",
"449 -62 OFFCURVE",
"459 37 CURVE SMOOTH",
"465 99 OFFCURVE",
"447 134 OFFCURVE",
"380 134 CURVE SMOOTH",
"303 134 OFFCURVE",
"149 117 OFFCURVE",
"35 117 CURVE",
"13 78 OFFCURVE",
"2 39 OFFCURVE",
"0 0 CURVE",
"102 0 OFFCURVE",
"277 17 OFFCURVE",
"367 17 CURVE SMOOTH",
"403 17 OFFCURVE",
"418 4 OFFCURVE",
"423 -16 CURVE",
"403 -70 OFFCURVE",
"321 -114 OFFCURVE",
"246 -114 CURVE SMOOTH",
"147 -114 OFFCURVE",
"111 -44 OFFCURVE",
"111 46 CURVE"
);
},
{
closed = 1;
nodes = (
"302 295 OFFCURVE",
"291 256 OFFCURVE",
"289 217 CURVE",
"372 217 OFFCURVE",
"448 259 OFFCURVE",
"491 325 CURVE SMOOTH",
"525 377 OFFCURVE",
"542 430 OFFCURVE",
"542 474 CURVE SMOOTH",
"542 553 OFFCURVE",
"521 589 OFFCURVE",
"439 696 CURVE SMOOTH",
"362 797 OFFCURVE",
"277 921 OFFCURVE",
"277 1035 CURVE",
"249 1035 LINE",
"240 958 LINE SMOOTH",
"227 845 OFFCURVE",
"280 762 OFFCURVE",
"357 659 CURVE SMOOTH",
"439 550 OFFCURVE",
"521 471 OFFCURVE",
"494 387 CURVE",
"443 352 OFFCURVE",
"378 334 OFFCURVE",
"324 334 CURVE"
);
},
{
closed = 1;
nodes = (
"0 -495 LINE",
"0 818 LINE",
"592 818 LINE",
"592 -495 LINE"
);
}
);
};
components = (
{
alignment = -1;
name = _part.phlv.meemdowr.leftjoining;
transform = "{1, 0, 0, 1, -97, 0}";
},
{
name = _part.phlv.dadmeem.connector;
transform = "{1, 0, 0, 1, -97, 0}";
},
{
alignment = -1;
name = _part.phlv.lamedh.tail;
transform = "{1, 0, 0, 1, 289, 217}";
}
);
layerId = "10A83A34-2C0B-4EA0-95B7-223E3205B8BF";
width = 592;
}
);
leftMetricsKey = "meem-ar.medi";
},
{
glyphname = "meem_meem-ar";
layers = (
{
background = {
paths = (
{
closed = 1;
nodes = (
"228 39 OFFCURVE",
"239 78 OFFCURVE",
"241 117 CURVE",
"170 117 OFFCURVE",
"125 134 OFFCURVE",
"98 157 CURVE",
"50 63 LINE",
"68 25 OFFCURVE",
"121 0 OFFCURVE",
"206 0 CURVE"
);
},
{
closed = 1;
nodes = (
"556 37 LINE",
"562 99 OFFCURVE",
"544 134 OFFCURVE",
"477 134 CURVE SMOOTH",
"426 134 OFFCURVE",
"300 117 OFFCURVE",
"241 117 CURVE",
"206 0 LINE",
"284 0 OFFCURVE",
"414 17 OFFCURVE",
"464 17 CURVE SMOOTH",
"500 17 OFFCURVE",
"515 4 OFFCURVE",
"520 -16 CURVE"
);
},
{
closed = 1;
nodes = (
"165 7 LINE",
"165 -89 OFFCURVE",
"193 -231 OFFCURVE",
"321 -231 CURVE SMOOTH",
"474 -231 OFFCURVE",
"546 -62 OFFCURVE",
"556 37 CURVE",
"544 29 OFFCURVE",
"532 12 OFFCURVE",
"520 -16 CURVE",
"500 -70 OFFCURVE",
"418 -114 OFFCURVE",
"343 -114 CURVE SMOOTH",
"244 -114 OFFCURVE",
"208 -44 OFFCURVE",
"208 46 CURVE"
);
},
{
closed = 1;
nodes = (
"255 255 OFFCURVE",
"311 217 OFFCURVE",
"386 217 CURVE",
"418 246 OFFCURVE",
"429 295 OFFCURVE",
"421 334 CURVE",
"270 334 OFFCURVE",
"250 421 OFFCURVE",
"200 579 CURVE",
"188 579 LINE",
"140 486 LINE",
"175 399 OFFCURVE",
"195 318 OFFCURVE",
"195 275 CURVE SMOOTH",
"195 193 OFFCURVE",
"165 109 OFFCURVE",
"165 7 CURVE",
"208 46 LINE",
"208 133 OFFCURVE",
"244 221 OFFCURVE",
"244 317 CURVE",
"231 317 LINE"
);
},
{
closed = 1;
nodes = (
"662 258 LINE",
"662 375 OFFCURVE",
"816 511 OFFCURVE",
"904 511 CURVE SMOOTH",
"932 511 OFFCURVE",
"939 498 OFFCURVE",
"939 477 CURVE",
"951 477 LINE",
"986 542 OFFCURVE",
"999 628 OFFCURVE",
"931 628 CURVE SMOOTH",
"823 628 OFFCURVE",
"619 411 OFFCURVE",
"619 219 CURVE"
);
},
{
closed = 1;
nodes = (
"618 219 LINE",
"618 123 OFFCURVE",
"646 -19 OFFCURVE",
"774 -19 CURVE SMOOTH",
"927 -19 OFFCURVE",
"999 150 OFFCURVE",
"1009 249 CURVE SMOOTH",
"1015 311 OFFCURVE",
"997 346 OFFCURVE",
"930 346 CURVE SMOOTH",
"808 346 OFFCURVE",
"493 334 OFFCURVE",
"421 334 CURVE",
"386 217 LINE",
"455 217 OFFCURVE",
"804 229 OFFCURVE",
"917 229 CURVE SMOOTH",
"953 229 OFFCURVE",
"968 216 OFFCURVE",
"973 196 CURVE",
"953 142 OFFCURVE",
"871 98 OFFCURVE",
"796 98 CURVE SMOOTH",
"697 98 OFFCURVE",
"661 168 OFFCURVE",
"661 258 CURVE"
);
},
{
closed = 1;
nodes = (
"0 -495 LINE",
"0 818 LINE",
"1060 818 LINE",
"1060 -495 LINE"
);
}
);
};
components = (
{
alignment = -1;
name = _part.phlv.conector.ladhsecond;
},
{
alignment = -1;
name = _part.phlv.dowr.meem;
transform = "{1, 0, 0, 1, 20, 0}";
},
{
name = _part.phlv.dadmeem.connector;
},
{
alignment = -1;
name = _part.phlv.head.meeminit;
transform = "{1, 0, 0, 1, 474, 212}";
},
{
name = _part.phlv.longmeem.keshideh;
transform = "{1, 0, 0, 1, 2, 0}";
}
);
layerId = "10A83A34-2C0B-4EA0-95B7-223E3205B8BF";
width = 1060;
}
);
},
{
glyphname = "meem_meem-ar.init";
layers = (
{
background = {
paths = (
{
closed = 1;
nodes = (
"158 255 OFFCURVE",
"214 217 OFFCURVE",
"289 217 CURVE",
"321 246 OFFCURVE",
"332 295 OFFCURVE",
"324 334 CURVE",
"173 334 OFFCURVE",
"153 421 OFFCURVE",
"103 579 CURVE",
"91 579 LINE",
"43 486 LINE",
"78 399 OFFCURVE",
"98 318 OFFCURVE",
"98 275 CURVE SMOOTH",
"98 193 OFFCURVE",
"68 109 OFFCURVE",
"68 7 CURVE",
"111 46 LINE",
"111 133 OFFCURVE",
"147 221 OFFCURVE",
"147 317 CURVE",
"134 317 LINE"
);
},
{
closed = 1;
nodes = (
"565 258 LINE",
"565 375 OFFCURVE",
"719 511 OFFCURVE",
"807 511 CURVE SMOOTH",
"835 511 OFFCURVE",
"842 498 OFFCURVE",
"842 477 CURVE",
"854 477 LINE",
"889 542 OFFCURVE",
"902 628 OFFCURVE",
"834 628 CURVE SMOOTH",
"726 628 OFFCURVE",
"522 411 OFFCURVE",
"522 219 CURVE"
);
},
{
closed = 1;
nodes = (
"521 219 LINE",
"521 123 OFFCURVE",
"549 -19 OFFCURVE",
"677 -19 CURVE SMOOTH",
"830 -19 OFFCURVE",
"902 150 OFFCURVE",
"912 249 CURVE SMOOTH",
"918 311 OFFCURVE",
"900 346 OFFCURVE",
"833 346 CURVE SMOOTH",
"711 346 OFFCURVE",
"396 334 OFFCURVE",
"324 334 CURVE",
"289 217 LINE",
"358 217 OFFCURVE",
"707 229 OFFCURVE",
"820 229 CURVE SMOOTH",
"856 229 OFFCURVE",
"871 216 OFFCURVE",
"876 196 CURVE",
"856 142 OFFCURVE",
"774 98 OFFCURVE",
"699 98 CURVE SMOOTH",
"600 98 OFFCURVE",
"564 168 OFFCURVE",
"564 258 CURVE"
);
},
{
closed = 1;
nodes = (
"68 7 LINE",
"68 -89 OFFCURVE",
"96 -231 OFFCURVE",
"224 -231 CURVE SMOOTH",
"377 -231 OFFCURVE",
"449 -62 OFFCURVE",
"459 37 CURVE SMOOTH",
"465 99 OFFCURVE",
"447 134 OFFCURVE",
"380 134 CURVE SMOOTH",
"303 134 OFFCURVE",
"149 117 OFFCURVE",
"35 117 CURVE",
"13 78 OFFCURVE",
"2 39 OFFCURVE",
"0 0 CURVE",
"102 0 OFFCURVE",
"277 17 OFFCURVE",
"367 17 CURVE SMOOTH",
"403 17 OFFCURVE",
"418 4 OFFCURVE",
"423 -16 CURVE",
"403 -70 OFFCURVE",
"321 -114 OFFCURVE",
"246 -114 CURVE SMOOTH",
"147 -114 OFFCURVE",
"111 -44 OFFCURVE",
"111 46 CURVE"
);
},
{
closed = 1;
nodes = (
"0 -495 LINE",
"0 818 LINE",
"963 818 LINE",
"963 -495 LINE"
);
}
);
};
components = (
{
alignment = -1;
name = _part.phlv.dadmeem.connector;
transform = "{1, 0, 0, 1, -97, 0}";
},
{
alignment = -1;
name = _part.phlv.head.meeminit;
transform = "{1, 0, 0, 1, 377, 212}";
},
{
alignment = -1;
name = _part.phlv.longmeem.keshideh;
transform = "{1, 0, 0, 1, -97, 0}";
},
{
alignment = -1;
name = _part.phlv.meemdowr.leftjoining;
transform = "{1, 0, 0, 1, -97, 0}";
}
);
layerId = "10A83A34-2C0B-4EA0-95B7-223E3205B8BF";
width = 963;
}
);
leftMetricsKey = "meem-ar.medi";
},
{
glyphname = "meem_peh-ar";
layers = (
{
background = {
paths = (
{
closed = 1;
nodes = (
"615 46 LINE",
"615 163 OFFCURVE",
"769 299 OFFCURVE",
"857 299 CURVE SMOOTH",
"885 299 OFFCURVE",
"892 286 OFFCURVE",
"892 265 CURVE",
"904 265 LINE",
"939 330 OFFCURVE",
"952 416 OFFCURVE",
"884 416 CURVE SMOOTH",
"776 416 OFFCURVE",
"572 199 OFFCURVE",
"572 7 CURVE"
);
},
{
closed = 1;
nodes = (
"50 -136 OFFCURVE",
"116 -231 OFFCURVE",
"282 -231 CURVE",
"304 -192 OFFCURVE",
"315 -153 OFFCURVE",
"317 -114 CURVE",
"174 -114 OFFCURVE",
"102 -56 OFFCURVE",
"102 41 CURVE",
"85 33 OFFCURVE",
"67 15 OFFCURVE",
"50 -13 CURVE"
);
},
{
closed = 1;
nodes = (
"102 41 LINE",
"102 142 OFFCURVE",
"202 279 OFFCURVE",
"263 279 CURVE SMOOTH",
"310 279 OFFCURVE",
"340 214 OFFCURVE",
"349 191 CURVE",
"326 168 OFFCURVE",
"264 144 OFFCURVE",
"197 144 CURVE SMOOTH",
"163 144 OFFCURVE",
"139 151 OFFCURVE",
"122 164 CURVE",
"74 70 LINE",
"82 42 OFFCURVE",
"122 27 OFFCURVE",
"162 27 CURVE SMOOTH",
"238 27 OFFCURVE",
"292 66 OFFCURVE",
"322 100 CURVE SMOOTH",
"351 134 OFFCURVE",
"391 194 OFFCURVE",
"391 248 CURVE SMOOTH",
"391 307 OFFCURVE",
"360 396 OFFCURVE",
"308 396 CURVE SMOOTH",
"234 396 OFFCURVE",
"50 134 OFFCURVE",
"50 -13 CURVE"
);
},
{
closed = 1;
nodes = (
"572 7 LINE",
"572 -89 OFFCURVE",
"600 -231 OFFCURVE",
"728 -231 CURVE SMOOTH",
"881 -231 OFFCURVE",
"953 -62 OFFCURVE",
"963 37 CURVE",
"951 29 OFFCURVE",
"939 12 OFFCURVE",
"927 -16 CURVE",
"907 -70 OFFCURVE",
"825 -114 OFFCURVE",
"750 -114 CURVE SMOOTH",
"651 -114 OFFCURVE",
"615 -44 OFFCURVE",
"615 46 CURVE"
);
},
{
closed = 1;
nodes = (
"963 37 LINE",
"969 99 OFFCURVE",
"926 138 OFFCURVE",
"866 138 CURVE SMOOTH",
"718 138 OFFCURVE",
"572 -114 OFFCURVE",
"316 -114 CURVE",
"287 -150 OFFCURVE",
"281 -192 OFFCURVE",
"281 -231 CURVE",
"560 -231 OFFCURVE",
"707 21 OFFCURVE",
"853 21 CURVE SMOOTH",
"907 21 OFFCURVE",
"924 -11 OFFCURVE",
"929 -31 CURVE"
);
},
{
closed = 1;
nodes = (
"0 -495 LINE",
"0 818 LINE",
"1014 818 LINE",
"1014 -495 LINE"
);
}
);
};
components = (
{
alignment = -1;
name = _part.phlv.head.meeminit;
transform = "{1, 0, 0, 1, 427, 0}";
},
{
alignment = -1;
name = _part.phlv.peh.ending;
},
{
name = _part.phlv.butt.meem;
transform = "{1, 0, 0, 1, 427, 0}";
},
{
name = _part.phlv.meempeh.transition;
}
);
layerId = "10A83A34-2C0B-4EA0-95B7-223E3205B8BF";
width = 1014;
}
);
},
{
glyphname = "meem_peh-ar.fina";
layers = (
{
background = {
paths = (
{
closed = 1;
nodes = (
"50 -136 OFFCURVE",
"116 -231 OFFCURVE",
"282 -231 CURVE",
"304 -192 OFFCURVE",
"315 -153 OFFCURVE",
"317 -114 CURVE",
"174 -114 OFFCURVE",
"102 -56 OFFCURVE",
"102 41 CURVE",
"85 33 OFFCURVE",
"67 15 OFFCURVE",
"50 -13 CURVE"
);
},
{
closed = 1;
nodes = (
"102 41 LINE",
"102 142 OFFCURVE",
"202 279 OFFCURVE",
"263 279 CURVE SMOOTH",
"310 279 OFFCURVE",
"340 214 OFFCURVE",
"349 191 CURVE",
"326 168 OFFCURVE",
"264 144 OFFCURVE",
"197 144 CURVE SMOOTH",
"163 144 OFFCURVE",
"139 151 OFFCURVE",
"122 164 CURVE",
"74 70 LINE",
"82 42 OFFCURVE",
"122 27 OFFCURVE",
"162 27 CURVE SMOOTH",
"238 27 OFFCURVE",
"292 66 OFFCURVE",
"322 100 CURVE SMOOTH",
"351 134 OFFCURVE",
"391 194 OFFCURVE",
"391 248 CURVE SMOOTH",
"391 307 OFFCURVE",
"360 396 OFFCURVE",
"308 396 CURVE SMOOTH",
"234 396 OFFCURVE",
"50 134 OFFCURVE",
"50 -13 CURVE"
);
},
{
closed = 1;
nodes = (
"572 7 LINE",
"572 -89 OFFCURVE",
"600 -231 OFFCURVE",
"728 -231 CURVE SMOOTH",
"881 -231 OFFCURVE",
"953 -62 OFFCURVE",
"963 37 CURVE",
"951 29 OFFCURVE",
"939 12 OFFCURVE",
"927 -16 CURVE",
"907 -70 OFFCURVE",
"825 -114 OFFCURVE",
"750 -114 CURVE SMOOTH",
"651 -114 OFFCURVE",
"615 -44 OFFCURVE",
"615 46 CURVE"
);
},
{
closed = 1;
nodes = (
"963 37 LINE",
"969 99 OFFCURVE",
"926 138 OFFCURVE",
"866 138 CURVE SMOOTH",
"718 138 OFFCURVE",
"572 -114 OFFCURVE",
"316 -114 CURVE",
"287 -150 OFFCURVE",
"281 -192 OFFCURVE",
"281 -231 CURVE",
"560 -231 OFFCURVE",
"707 21 OFFCURVE",
"853 21 CURVE SMOOTH",
"907 21 OFFCURVE",
"924 -11 OFFCURVE",
"929 -31 CURVE"
);
},
{
closed = 1;
nodes = (
"786 416 OFFCURVE",
"572 199 OFFCURVE",
"572 7 CURVE",
"615 46 LINE",
"615 163 OFFCURVE",
"769 318 OFFCURVE",
"867 318 CURVE SMOOTH",
"914 318 OFFCURVE",
"944 283 OFFCURVE",
"982 186 CURVE SMOOTH",
"1028 69 OFFCURVE",
"1070 0 OFFCURVE",
"1168 0 CURVE",
"1200 39 OFFCURVE",
"1211 78 OFFCURVE",
"1203 117 CURVE",
"1101 117 OFFCURVE",
"1074 179 OFFCURVE",
"1029 280 CURVE SMOOTH",
"992 364 OFFCURVE",
"957 416 OFFCURVE",
"894 416 CURVE SMOOTH"
);
},
{
closed = 1;
nodes = (
"0 -495 LINE",
"0 818 LINE",
"1168 818 LINE",
"1168 -495 LINE"
);
}
);
};
components = (
{
name = _part.phlv.peh.ending;
},
{
alignment = -1;
name = _part.phlv.butt.meem;
transform = "{1, 0, 0, 1, 427, 0}";
},
{
alignment = -1;
name = _part.phlv.meempeh.transition;
},
{
alignment = -1;
name = _part.phlv.head.meemmedi;
transform = "{1, 0, 0, 1, 427, 0}";
}
);
layerId = "10A83A34-2C0B-4EA0-95B7-223E3205B8BF";
width = 1168;
}
);
},
{
glyphname = "jeem_theh-ar";
layers = (
{
background = {
paths = (
{
closed = 1;
nodes = (
"168 39 OFFCURVE",
"179 78 OFFCURVE",
"181 117 CURVE",
"144 117 OFFCURVE",
"115 124 OFFCURVE",
"98 137 CURVE",
"50 43 LINE",
"58 15 OFFCURVE",
"91 0 OFFCURVE",
"146 0 CURVE"
);
},
{
closed = 1;
nodes = (
"544 -192 OFFCURVE",
"555 -153 OFFCURVE",
"547 -114 CURVE",
"404 -114 OFFCURVE",
"341 -56 OFFCURVE",
"341 41 CURVE SMOOTH",
"341 126 OFFCURVE",
"373 192 OFFCURVE",
"423 283 CURVE",
"394 292 LINE",
"330 193 OFFCURVE",
"280 87 OFFCURVE",
"280 -13 CURVE SMOOTH",
"280 -136 OFFCURVE",
"346 -231 OFFCURVE",
"512 -231 CURVE"
);
},
{
closed = 1;
nodes = (
"146 0 LINE",
"222 0 OFFCURVE",
"302 39 OFFCURVE",
"358 162 CURVE",
"355 176 LINE",
"297 128 OFFCURVE",
"225 117 OFFCURVE",
"181 117 CURVE"
);
},
{
closed = 1;
nodes = (
"805 121 OFFCURVE",
"847 30 OFFCURVE",
"820 -54 CURVE",
"748 -92 OFFCURVE",
"638 -114 OFFCURVE",
"547 -114 CURVE",
"512 -231 LINE",
"666 -231 OFFCURVE",
"789 -175 OFFCURVE",
"836 -96 CURVE SMOOTH",
"869 -41 OFFCURVE",
"880 20 OFFCURVE",
"888 66 CURVE",
"850 51 LINE",
"867 21 OFFCURVE",
"897 0 OFFCURVE",
"942 0 CURVE",
"974 39 OFFCURVE",
"985 78 OFFCURVE",
"977 117 CURVE",
"893 117 OFFCURVE",
"873 181 OFFCURVE",
"836 271 CURVE SMOOTH",
"798 362 LINE",
"786 362 LINE",
"738 269 LINE"
);
},
{
closed = 1;
nodes = (
"942 0 LINE",
"1071 0 OFFCURVE",
"1156 34 OFFCURVE",
"1204 98 CURVE SMOOTH",
"1234 138 OFFCURVE",
"1245 183 OFFCURVE",
"1245 227 CURVE SMOOTH",
"1245 317 OFFCURVE",
"1186 416 OFFCURVE",
"1130 416 CURVE SMOOTH",
"1096 416 OFFCURVE",
"1082 401 OFFCURVE",
"1045 301 CURVE SMOOTH",
"1031 263 OFFCURVE",
"1045 208 OFFCURVE",
"1098 208 CURVE SMOOTH",
"1127 208 OFFCURVE",
"1149 222 OFFCURVE",
"1164 243 CURVE",
"1188 222 OFFCURVE",
"1209 191 OFFCURVE",
"1200 150 CURVE",
"1142 130 OFFCURVE",
"1057 117 OFFCURVE",
"977 117 CURVE"
);
},
{
closed = 1;
nodes = (
"0 -495 LINE",
"0 818 LINE",
"1295 818 LINE",
"1295 -495 LINE"
);
}
);
};
components = (
{
alignment = -1;
name = _part.phlv.part.phlv.keheh_ending;
transform = "{1, 0, 0, 1, 2, 0}";
},
{
alignment = -1;
name = _part.phlv.eem_theh;
transform = "{1, 0, 0, 1, 146, 0}";
}
);
layerId = "10A83A34-2C0B-4EA0-95B7-223E3205B8BF";
width = 1295;
}
);
},
{
glyphname = "jeem_theh-ar.fina";
layers = (
{
background = {
paths = (
{
closed = 1;
nodes = (
"398 -192 OFFCURVE",
"409 -153 OFFCURVE",
"401 -114 CURVE",
"258 -114 OFFCURVE",
"195 -56 OFFCURVE",
"195 41 CURVE SMOOTH",
"195 126 OFFCURVE",
"227 192 OFFCURVE",
"277 283 CURVE",
"248 292 LINE",
"184 193 OFFCURVE",
"134 87 OFFCURVE",
"134 -13 CURVE SMOOTH",
"134 -136 OFFCURVE",
"200 -231 OFFCURVE",
"366 -231 CURVE"
);
},
{
closed = 1;
nodes = (
"0 0 LINE",
"76 0 OFFCURVE",
"156 39 OFFCURVE",
"212 162 CURVE",
"209 176 LINE",
"151 128 OFFCURVE",
"79 117 OFFCURVE",
"35 117 CURVE"
);
},
{
closed = 1;
nodes = (
"659 121 OFFCURVE",
"701 30 OFFCURVE",
"674 -54 CURVE",
"602 -92 OFFCURVE",
"492 -114 OFFCURVE",
"401 -114 CURVE",
"366 -231 LINE",
"520 -231 OFFCURVE",
"643 -175 OFFCURVE",
"690 -96 CURVE SMOOTH",
"723 -41 OFFCURVE",
"734 20 OFFCURVE",
"742 66 CURVE",
"704 51 LINE",
"721 21 OFFCURVE",
"751 0 OFFCURVE",
"796 0 CURVE",
"828 39 OFFCURVE",
"839 78 OFFCURVE",
"831 117 CURVE",
"747 117 OFFCURVE",
"727 181 OFFCURVE",
"690 271 CURVE SMOOTH",
"652 362 LINE",
"640 362 LINE",
"592 269 LINE"
);
},
{
closed = 1;
nodes = (
"796 0 LINE",
"925 0 OFFCURVE",
"1010 34 OFFCURVE",
"1058 98 CURVE SMOOTH",
"1088 138 OFFCURVE",
"1099 183 OFFCURVE",
"1099 227 CURVE SMOOTH",
"1099 317 OFFCURVE",
"1040 416 OFFCURVE",
"984 416 CURVE SMOOTH",
"950 416 OFFCURVE",
"936 401 OFFCURVE",
"899 301 CURVE SMOOTH",
"885 263 OFFCURVE",
"899 208 OFFCURVE",
"952 208 CURVE SMOOTH",
"981 208 OFFCURVE",
"1003 222 OFFCURVE",
"1018 243 CURVE",
"1042 222 OFFCURVE",
"1063 191 OFFCURVE",
"1054 150 CURVE",
"996 130 OFFCURVE",
"911 117 OFFCURVE",
"831 117 CURVE"
);
},
{
closed = 1;
nodes = (
"0 -495 LINE",
"0 818 LINE",
"1149 818 LINE",
"1149 -495 LINE"
);
}
);
};
components = (
{
alignment = -1;
name = _part.phlv.part.phlv.keheh_ending;
transform = "{1, 0, 0, 1, 2, 0}";
},
{
alignment = -1;
name = _part.phlv.eem_theh;
transform = "{1, 0, 0, 1, 146, 0}";
},
{
alignment = -1;
name = _part.phlv.right.connector;
transform = "{1, 0, 0, 1, 860, 0}";
}
);
layerId = "10A83A34-2C0B-4EA0-95B7-223E3205B8BF";
width = 1313;
}
);
},
{
glyphname = "jeem_theh-ar.medi";
layers = (
{
background = {
paths = (
{
closed = 1;
nodes = (
"398 -192 OFFCURVE",
"409 -153 OFFCURVE",
"401 -114 CURVE",
"258 -114 OFFCURVE",
"195 -56 OFFCURVE",
"195 41 CURVE SMOOTH",
"195 126 OFFCURVE",
"227 192 OFFCURVE",
"277 283 CURVE",
"248 292 LINE",
"184 193 OFFCURVE",
"134 87 OFFCURVE",
"134 -13 CURVE SMOOTH",
"134 -136 OFFCURVE",
"200 -231 OFFCURVE",
"366 -231 CURVE"
);
},
{
closed = 1;
nodes = (
"0 0 LINE",
"76 0 OFFCURVE",
"156 39 OFFCURVE",
"212 162 CURVE",
"209 176 LINE",
"151 128 OFFCURVE",
"79 117 OFFCURVE",
"35 117 CURVE"
);
},
{
closed = 1;
nodes = (
"659 121 OFFCURVE",
"701 30 OFFCURVE",
"674 -54 CURVE",
"602 -92 OFFCURVE",
"492 -114 OFFCURVE",
"401 -114 CURVE",
"366 -231 LINE",
"520 -231 OFFCURVE",
"643 -175 OFFCURVE",
"690 -96 CURVE SMOOTH",
"723 -41 OFFCURVE",
"734 20 OFFCURVE",
"742 66 CURVE",
"704 51 LINE",
"721 21 OFFCURVE",
"751 0 OFFCURVE",
"796 0 CURVE",
"828 39 OFFCURVE",
"839 78 OFFCURVE",
"831 117 CURVE",
"747 117 OFFCURVE",
"727 181 OFFCURVE",
"690 271 CURVE SMOOTH",
"652 362 LINE",
"640 362 LINE",
"592 269 LINE"
);
},
{
closed = 1;
nodes = (
"796 0 LINE",
"925 0 OFFCURVE",
"1010 34 OFFCURVE",
"1058 98 CURVE SMOOTH",
"1088 138 OFFCURVE",
"1099 183 OFFCURVE",
"1099 227 CURVE SMOOTH",
"1099 317 OFFCURVE",
"1040 416 OFFCURVE",
"984 416 CURVE SMOOTH",
"950 416 OFFCURVE",
"936 401 OFFCURVE",
"899 301 CURVE SMOOTH",
"885 263 OFFCURVE",
"899 208 OFFCURVE",
"952 208 CURVE SMOOTH",
"981 208 OFFCURVE",
"1003 222 OFFCURVE",
"1018 243 CURVE",
"1042 222 OFFCURVE",
"1063 191 OFFCURVE",
"1054 150 CURVE",
"996 130 OFFCURVE",
"911 117 OFFCURVE",
"831 117 CURVE"
);
},
{
closed = 1;
nodes = (
"1039 87 LINE",
"1061 25 OFFCURVE",
"1111 0 OFFCURVE",
"1167 0 CURVE",
"1199 39 OFFCURVE",
"1210 78 OFFCURVE",
"1202 117 CURVE",
"1144 117 OFFCURVE",
"1104 129 OFFCURVE",
"1086 158 CURVE"
);
},
{
closed = 1;
nodes = (
"0 -495 LINE",
"0 818 LINE",
"1167 818 LINE",
"1167 -495 LINE"
);
}
);
};
components = (
{
alignment = -1;
name = _part.phlv.right.connector;
transform = "{1, 0, 0, 1, 714, 0}";
},
{
alignment = -1;
name = _part.phlv.eem_theh;
}
);
layerId = "10A83A34-2C0B-4EA0-95B7-223E3205B8BF";
width = 1167;
}
);
},
{
glyphname = "jeem_theh-ar.init";
layers = (
{
background = {
paths = (
{
closed = 1;
nodes = (
"1039 87 LINE",
"1061 25 OFFCURVE",
"1111 0 OFFCURVE",
"1167 0 CURVE",
"1199 39 OFFCURVE",
"1210 78 OFFCURVE",
"1202 117 CURVE",
"1144 117 OFFCURVE",
"1104 129 OFFCURVE",
"1086 158 CURVE"
);
},
{
closed = 1;
nodes = (
"398 -192 OFFCURVE",
"409 -153 OFFCURVE",
"401 -114 CURVE",
"258 -114 OFFCURVE",
"195 -56 OFFCURVE",
"195 41 CURVE SMOOTH",
"195 126 OFFCURVE",
"227 192 OFFCURVE",
"277 283 CURVE",
"248 292 LINE",
"184 193 OFFCURVE",
"134 87 OFFCURVE",
"134 -13 CURVE SMOOTH",
"134 -136 OFFCURVE",
"200 -231 OFFCURVE",
"366 -231 CURVE"
);
},
{
closed = 1;
nodes = (
"0 0 LINE",
"76 0 OFFCURVE",
"156 39 OFFCURVE",
"212 162 CURVE",
"209 176 LINE",
"151 128 OFFCURVE",
"79 117 OFFCURVE",
"35 117 CURVE"
);
},
{
closed = 1;
nodes = (
"659 121 OFFCURVE",
"701 30 OFFCURVE",
"674 -54 CURVE",
"602 -92 OFFCURVE",
"492 -114 OFFCURVE",
"401 -114 CURVE",
"366 -231 LINE",
"520 -231 OFFCURVE",
"643 -175 OFFCURVE",
"690 -96 CURVE SMOOTH",
"723 -41 OFFCURVE",
"734 20 OFFCURVE",
"742 66 CURVE",
"704 51 LINE",
"721 21 OFFCURVE",
"751 0 OFFCURVE",
"796 0 CURVE",
"828 39 OFFCURVE",
"839 78 OFFCURVE",
"831 117 CURVE",
"747 117 OFFCURVE",
"727 181 OFFCURVE",
"690 271 CURVE SMOOTH",
"652 362 LINE",
"640 362 LINE",
"592 269 LINE"
);
},
{
closed = 1;
nodes = (
"796 0 LINE",
"925 0 OFFCURVE",
"1010 34 OFFCURVE",
"1058 98 CURVE SMOOTH",
"1088 138 OFFCURVE",
"1099 183 OFFCURVE",
"1099 227 CURVE SMOOTH",
"1099 317 OFFCURVE",
"1040 416 OFFCURVE",
"984 416 CURVE SMOOTH",
"950 416 OFFCURVE",
"936 401 OFFCURVE",
"899 301 CURVE SMOOTH",
"885 263 OFFCURVE",
"899 208 OFFCURVE",
"952 208 CURVE SMOOTH",
"981 208 OFFCURVE",
"1003 222 OFFCURVE",
"1018 243 CURVE",
"1042 222 OFFCURVE",
"1063 191 OFFCURVE",
"1054 150 CURVE",
"996 130 OFFCURVE",
"911 117 OFFCURVE",
"831 117 CURVE"
);
},
{
closed = 1;
nodes = (
"0 -495 LINE",
"0 818 LINE",
"1167 818 LINE",
"1167 -495 LINE"
);
}
);
};
components = (
{
alignment = -1;
name = _part.phlv.eem_theh;
}
);
layerId = "10A83A34-2C0B-4EA0-95B7-223E3205B8BF";
width = 1167;
}
);
},
{
glyphname = "seen_peh-ar";
layers = (
{
anchors = (
{
name = "#entry";
position = "{748, 0}";
},
{
name = top;
position = "{622, 416}";
}
);
background = {
paths = (
{
closed = 1;
nodes = (
"722 -86 LINE",
"787 18 OFFCURVE",
"779 160 OFFCURVE",
"728 293 CURVE SMOOTH",
"700 365 OFFCURVE",
"653 416 OFFCURVE",
"614 416 CURVE SMOOTH",
"580 416 OFFCURVE",
"566 401 OFFCURVE",
"529 301 CURVE SMOOTH",
"515 263 OFFCURVE",
"529 208 OFFCURVE",
"582 208 CURVE SMOOTH",
"611 208 OFFCURVE",
"633 222 OFFCURVE",
"648 243 CURVE",
"698 174 OFFCURVE",
"732 13 OFFCURVE",
"696 -62 CURVE"
);
},
{
closed = 1;
nodes = (
"102 41 LINE",
"102 142 OFFCURVE",
"202 279 OFFCURVE",
"263 279 CURVE SMOOTH",
"310 279 OFFCURVE",
"340 214 OFFCURVE",
"349 191 CURVE",
"326 168 OFFCURVE",
"264 144 OFFCURVE",
"197 144 CURVE SMOOTH",
"163 144 OFFCURVE",
"139 151 OFFCURVE",
"122 164 CURVE",
"74 70 LINE",
"82 42 OFFCURVE",
"122 27 OFFCURVE",
"162 27 CURVE SMOOTH",
"238 27 OFFCURVE",
"292 66 OFFCURVE",
"322 100 CURVE SMOOTH",
"351 134 OFFCURVE",
"391 194 OFFCURVE",
"391 248 CURVE SMOOTH",
"391 307 OFFCURVE",
"360 396 OFFCURVE",
"308 396 CURVE SMOOTH",
"234 396 OFFCURVE",
"50 134 OFFCURVE",
"50 -13 CURVE"
);
},
{
closed = 1;
nodes = (
"726 -31 LINE",
"645 -81 OFFCURVE",
"475 -114 OFFCURVE",
"352 -114 CURVE",
"323 -150 OFFCURVE",
"317 -192 OFFCURVE",
"317 -231 CURVE",
"518 -231 OFFCURVE",
"681 -158 OFFCURVE",
"722 -86 CURVE"
);
},
{
closed = 1;
nodes = (
"85 33 OFFCURVE",
"67 15 OFFCURVE",
"50 -13 CURVE",
"50 -136 OFFCURVE",
"131 -231 OFFCURVE",
"317 -231 CURVE",
"339 -192 OFFCURVE",
"350 -153 OFFCURVE",
"352 -114 CURVE",
"189 -114 OFFCURVE",
"102 -56 OFFCURVE",
"102 41 CURVE"
);
},
{
closed = 1;
nodes = (
"0 -495 LINE",
"0 818 LINE",
"819 818 LINE",
"819 -495 LINE"
);
}
);
};
components = (
{
name = _part.phlv.gereh.peh;
},
{
name = _part.phlv.peh.keshidehbridge;
}
);
layerId = "10A83A34-2C0B-4EA0-95B7-223E3205B8BF";
paths = (
{
closed = 1;
nodes = (
"722 -86 LINE",
"787 18 OFFCURVE",
"779 160 OFFCURVE",
"728 293 CURVE SMOOTH",
"700 365 OFFCURVE",
"653 416 OFFCURVE",
"614 416 CURVE SMOOTH",
"580 416 OFFCURVE",
"566 401 OFFCURVE",
"529 301 CURVE SMOOTH",
"515 263 OFFCURVE",
"529 208 OFFCURVE",
"582 208 CURVE SMOOTH",
"611 208 OFFCURVE",
"633 222 OFFCURVE",
"648 243 CURVE",
"698 174 OFFCURVE",
"732 13 OFFCURVE",
"696 -62 CURVE"
);
}
);
width = 819;
}
);
},
{
glyphname = "seen_peh-ar.fina";
layers = (
{
anchors = (
{
name = top;
position = "{622, 416}";
}
);
background = {
paths = (
{
closed = 1;
nodes = (
"722 -86 LINE",
"787 18 OFFCURVE",
"779 160 OFFCURVE",
"728 293 CURVE SMOOTH",
"700 365 OFFCURVE",
"653 416 OFFCURVE",
"614 416 CURVE SMOOTH",
"580 416 OFFCURVE",
"566 401 OFFCURVE",
"529 301 CURVE SMOOTH",
"515 263 OFFCURVE",
"529 208 OFFCURVE",
"582 208 CURVE SMOOTH",
"611 208 OFFCURVE",
"633 222 OFFCURVE",
"648 243 CURVE",
"698 174 OFFCURVE",
"732 13 OFFCURVE",
"696 -62 CURVE"
);
},
{
closed = 1;
nodes = (
"102 41 LINE",
"102 142 OFFCURVE",
"202 279 OFFCURVE",
"263 279 CURVE SMOOTH",
"310 279 OFFCURVE",
"340 214 OFFCURVE",
"349 191 CURVE",
"326 168 OFFCURVE",
"264 144 OFFCURVE",
"197 144 CURVE SMOOTH",
"163 144 OFFCURVE",
"139 151 OFFCURVE",
"122 164 CURVE",
"74 70 LINE",
"82 42 OFFCURVE",
"122 27 OFFCURVE",
"162 27 CURVE SMOOTH",
"238 27 OFFCURVE",
"292 66 OFFCURVE",
"322 100 CURVE SMOOTH",
"351 134 OFFCURVE",
"391 194 OFFCURVE",
"391 248 CURVE SMOOTH",
"391 307 OFFCURVE",
"360 396 OFFCURVE",
"308 396 CURVE SMOOTH",
"234 396 OFFCURVE",
"50 134 OFFCURVE",
"50 -13 CURVE"
);
},
{
closed = 1;
nodes = (
"726 -31 LINE",
"645 -81 OFFCURVE",
"475 -114 OFFCURVE",
"352 -114 CURVE",
"323 -150 OFFCURVE",
"317 -192 OFFCURVE",
"317 -231 CURVE",
"518 -231 OFFCURVE",
"681 -158 OFFCURVE",
"722 -86 CURVE"
);
},
{
closed = 1;
nodes = (
"85 33 OFFCURVE",
"67 15 OFFCURVE",
"50 -13 CURVE",
"50 -136 OFFCURVE",
"131 -231 OFFCURVE",
"317 -231 CURVE",
"339 -192 OFFCURVE",
"350 -153 OFFCURVE",
"352 -114 CURVE",
"189 -114 OFFCURVE",
"102 -56 OFFCURVE",
"102 41 CURVE"
);
},
{
closed = 1;
nodes = (
"858 117 OFFCURVE",
"805 124 OFFCURVE",
"749 145 CURVE",
"749 87 LINE",
"771 25 OFFCURVE",
"821 0 OFFCURVE",
"877 0 CURVE",
"909 39 OFFCURVE",
"920 78 OFFCURVE",
"912 117 CURVE"
);
},
{
closed = 1;
nodes = (
"0 -495 LINE",
"0 818 LINE",
"877 818 LINE",
"877 -495 LINE"
);
}
);
};
components = (
{
name = "seen_peh-ar";
},
{
alignment = -1;
name = _part.phlv.seen.connector;
transform = "{1, 0, 0, 1, -120, 0}";
}
);
layerId = "10A83A34-2C0B-4EA0-95B7-223E3205B8BF";
width = 877;
}
);
},
{
glyphname = "alef-ar.fina.BR";
layers = (
{
anchors = (
{
name = "#entry";
position = "{537, 0}";
},
{
name = "#exit";
position = "{405, 0}";
}
);
background = {
paths = (
{
closed = 1;
nodes = (
"168 39 OFFCURVE",
"179 78 OFFCURVE",
"181 117 CURVE",
"144 117 OFFCURVE",
"115 124 OFFCURVE",
"98 137 CURVE",
"50 43 LINE",
"58 15 OFFCURVE",
"91 0 OFFCURVE",
"146 0 CURVE"
);
},
{
closed = 1;
nodes = (
"278 87 LINE",
"300 25 OFFCURVE",
"350 0 OFFCURVE",
"406 0 CURVE",
"438 39 OFFCURVE",
"449 78 OFFCURVE",
"441 117 CURVE",
"383 117 OFFCURVE",
"343 129 OFFCURVE",
"325 158 CURVE"
);
},
{
closed = 1;
nodes = (
"149 78 OFFCURVE",
"146 29 OFFCURVE",
"146 0 CURVE",
"287 0 OFFCURVE",
"373 142 OFFCURVE",
"373 245 CURVE SMOOTH",
"373 297 OFFCURVE",
"353 348 OFFCURVE",
"325 416 CURVE",
"313 416 LINE",
"265 323 LINE",
"288 277 OFFCURVE",
"324 189 OFFCURVE",
"314 150 CURVE",
"280 129 OFFCURVE",
"225 117 OFFCURVE",
"181 117 CURVE"
);
},
{
closed = 1;
nodes = (
"537 87 LINE",
"559 25 OFFCURVE",
"609 0 OFFCURVE",
"665 0 CURVE",
"697 39 OFFCURVE",
"708 78 OFFCURVE",
"700 117 CURVE",
"642 117 OFFCURVE",
"602 129 OFFCURVE",
"584 158 CURVE"
);
},
{
closed = 1;
nodes = (
"408 78 OFFCURVE",
"405 29 OFFCURVE",
"405 0 CURVE",
"546 0 OFFCURVE",
"632 142 OFFCURVE",
"632 245 CURVE SMOOTH",
"632 297 OFFCURVE",
"612 348 OFFCURVE",
"584 416 CURVE",
"572 416 LINE",
"524 323 LINE",
"547 277 OFFCURVE",
"583 189 OFFCURVE",
"573 150 CURVE",
"539 129 OFFCURVE",
"484 117 OFFCURVE",
"440 117 CURVE"
);
},
{
closed = 1;
nodes = (
"0 -495 LINE",
"0 818 LINE",
"665 818 LINE",
"665 -495 LINE"
);
}
);
};
components = (
{
alignment = -1;
name = _part.phlv.right.connector;
transform = "{1, 0, 0, 1, 212, 0}";
},
{
alignment = -1;
name = _part.phlv.right.connector;
transform = "{1, 0, 0, 1, -47, 0}";
},
{
alignment = -1;
name = _part.phlv.part.phlv.keheh_ending;
transform = "{1, 0, 0, 1, 2, 0}";
},
{
alignment = -1;
name = "ain-ar.init.BL";
transform = "{1, 0, 0, 1, 146, 0}";
},
{
alignment = -1;
name = "ain-ar.init.BL";
transform = "{1, 0, 0, 1, 405, 0}";
}
);
layerId = "10A83A34-2C0B-4EA0-95B7-223E3205B8BF";
width = 665;
}
);
},
{
glyphname = "alef-ar.medi.BR";
layers = (
{
anchors = (
{
name = "#entry";
position = "{391, 0}";
},
{
name = "#exit";
position = "{259, 0}";
}
);
background = {
paths = (
{
closed = 1;
nodes = (
"132 87 LINE",
"154 25 OFFCURVE",
"204 0 OFFCURVE",
"260 0 CURVE",
"292 39 OFFCURVE",
"303 78 OFFCURVE",
"295 117 CURVE",
"237 117 OFFCURVE",
"197 129 OFFCURVE",
"179 158 CURVE"
);
},
{
closed = 1;
nodes = (
"3 78 OFFCURVE",
"0 29 OFFCURVE",
"0 0 CURVE",
"141 0 OFFCURVE",
"227 142 OFFCURVE",
"227 245 CURVE SMOOTH",
"227 297 OFFCURVE",
"207 348 OFFCURVE",
"179 416 CURVE",
"167 416 LINE",
"119 323 LINE",
"142 277 OFFCURVE",
"178 189 OFFCURVE",
"168 150 CURVE",
"134 129 OFFCURVE",
"79 117 OFFCURVE",
"35 117 CURVE"
);
},
{
closed = 1;
nodes = (
"391 87 LINE",
"413 25 OFFCURVE",
"463 0 OFFCURVE",
"519 0 CURVE",
"551 39 OFFCURVE",
"562 78 OFFCURVE",
"554 117 CURVE",
"496 117 OFFCURVE",
"456 129 OFFCURVE",
"438 158 CURVE"
);
},
{
closed = 1;
nodes = (
"262 78 OFFCURVE",
"259 29 OFFCURVE",
"259 0 CURVE",
"400 0 OFFCURVE",
"486 142 OFFCURVE",
"486 245 CURVE SMOOTH",
"486 297 OFFCURVE",
"466 348 OFFCURVE",
"438 416 CURVE",
"426 416 LINE",
"378 323 LINE",
"401 277 OFFCURVE",
"437 189 OFFCURVE",
"427 150 CURVE",
"393 129 OFFCURVE",
"338 117 OFFCURVE",
"294 117 CURVE"
);
},
{
closed = 1;
nodes = (
"0 -495 LINE",
"0 818 LINE",
"519 818 LINE",
"519 -495 LINE"
);
}
);
};
components = (
{
alignment = -1;
name = _part.phlv.right.connector;
transform = "{1, 0, 0, 1, 66, 0}";
},
{
alignment = -1;
name = _part.phlv.right.connector;
transform = "{1, 0, 0, 1, -193, 0}";
},
{
alignment = -1;
name = "ain-ar.init.BL";
},
{
alignment = -1;
name = "ain-ar.init.BL";
transform = "{1, 0, 0, 1, 259, 0}";
}
);
layerId = "10A83A34-2C0B-4EA0-95B7-223E3205B8BF";
width = 519;
}
);
},
{
glyphname = "alef-ar.medi.LL";
layers = (
{
background = {
paths = (
{
closed = 1;
nodes = (
"828 -192 OFFCURVE",
"839 -153 OFFCURVE",
"831 -114 CURVE",
"688 -114 OFFCURVE",
"625 -56 OFFCURVE",
"625 41 CURVE SMOOTH",
"625 126 OFFCURVE",
"657 192 OFFCURVE",
"707 283 CURVE",
"678 292 LINE",
"614 193 OFFCURVE",
"564 87 OFFCURVE",
"564 -13 CURVE SMOOTH",
"564 -136 OFFCURVE",
"630 -231 OFFCURVE",
"796 -231 CURVE"
);
},
{
closed = 1;
nodes = (
"430 0 LINE",
"506 0 OFFCURVE",
"586 39 OFFCURVE",
"642 162 CURVE",
"639 176 LINE",
"581 128 OFFCURVE",
"509 117 OFFCURVE",
"465 117 CURVE"
);
},
{
closed = 1;
nodes = (
"293 121 OFFCURVE",
"335 30 OFFCURVE",
"308 -54 CURVE",
"236 -92 OFFCURVE",
"126 -114 OFFCURVE",
"35 -114 CURVE",
"0 -231 LINE",
"154 -231 OFFCURVE",
"277 -175 OFFCURVE",
"324 -96 CURVE SMOOTH",
"357 -41 OFFCURVE",
"368 20 OFFCURVE",
"376 66 CURVE",
"338 51 LINE",
"355 21 OFFCURVE",
"385 0 OFFCURVE",
"430 0 CURVE",
"462 39 OFFCURVE",
"473 78 OFFCURVE",
"465 117 CURVE",
"381 117 OFFCURVE",
"361 181 OFFCURVE",
"324 271 CURVE SMOOTH",
"286 362 LINE",
"274 362 LINE",
"226 269 LINE"
);
},
{
closed = 1;
nodes = (
"0 -495 LINE",
"0 818 LINE",
"796 818 LINE",
"796 -495 LINE"
);
}
);
};
components = (
{
alignment = -1;
name = _part.phlv.belly.teeth;
transform = "{1, 0, 0, 1, 430, 0}";
},
{
alignment = -1;
name = _part.phlv.peh.vasl;
}
);
layerId = "10A83A34-2C0B-4EA0-95B7-223E3205B8BF";
width = 796;
}
);
},
{
glyphname = "alef-ar.init.BL";
layers = (
{
anchors = (
{
name = "#entry";
position = "{391, 0}";
},
{
name = "#exit";
position = "{259, 0}";
}
);
background = {
paths = (
{
closed = 1;
nodes = (
"132 87 LINE",
"154 25 OFFCURVE",
"204 0 OFFCURVE",
"260 0 CURVE",
"292 39 OFFCURVE",
"303 78 OFFCURVE",
"295 117 CURVE",
"237 117 OFFCURVE",
"197 129 OFFCURVE",
"179 158 CURVE"
);
},
{
closed = 1;
nodes = (
"3 78 OFFCURVE",
"0 29 OFFCURVE",
"0 0 CURVE",
"141 0 OFFCURVE",
"227 142 OFFCURVE",
"227 245 CURVE SMOOTH",
"227 297 OFFCURVE",
"207 348 OFFCURVE",
"179 416 CURVE",
"167 416 LINE",
"119 323 LINE",
"142 277 OFFCURVE",
"178 189 OFFCURVE",
"168 150 CURVE",
"134 129 OFFCURVE",
"79 117 OFFCURVE",
"35 117 CURVE"
);
},
{
closed = 1;
nodes = (
"262 78 OFFCURVE",
"259 29 OFFCURVE",
"259 0 CURVE",
"400 0 OFFCURVE",
"486 142 OFFCURVE",
"486 245 CURVE SMOOTH",
"486 297 OFFCURVE",
"466 348 OFFCURVE",
"438 416 CURVE",
"426 416 LINE",
"378 323 LINE",
"401 277 OFFCURVE",
"437 189 OFFCURVE",
"427 150 CURVE",
"393 129 OFFCURVE",
"338 117 OFFCURVE",
"294 117 CURVE"
);
},
{
closed = 1;
nodes = (
"0 -495 LINE",
"0 818 LINE",
"536 818 LINE",
"536 -495 LINE"
);
}
);
};
components = (
{
alignment = -1;
name = _part.phlv.right.connector;
transform = "{1, 0, 0, 1, -193, 0}";
},
{
alignment = -1;
name = "ain-ar.init.BL";
},
{
alignment = -1;
name = "ain-ar.init.BL";
transform = "{1, 0, 0, 1, 259, 0}";
}
);
layerId = "10A83A34-2C0B-4EA0-95B7-223E3205B8BF";
width = 536;
}
);
},
{
glyphname = "ain-ar.fina.LR";
layers = (
{
background = {
paths = (
{
closed = 1;
nodes = (
"544 -192 OFFCURVE",
"555 -153 OFFCURVE",
"547 -114 CURVE",
"404 -114 OFFCURVE",
"341 -56 OFFCURVE",
"341 41 CURVE SMOOTH",
"341 126 OFFCURVE",
"373 192 OFFCURVE",
"423 283 CURVE",
"394 292 LINE",
"330 193 OFFCURVE",
"280 87 OFFCURVE",
"280 -13 CURVE SMOOTH",
"280 -136 OFFCURVE",
"346 -231 OFFCURVE",
"512 -231 CURVE"
);
},
{
closed = 1;
nodes = (
"146 0 LINE",
"222 0 OFFCURVE",
"302 39 OFFCURVE",
"358 162 CURVE",
"355 176 LINE",
"297 128 OFFCURVE",
"225 117 OFFCURVE",
"181 117 CURVE"
);
},
{
closed = 1;
nodes = (
"168 39 OFFCURVE",
"179 78 OFFCURVE",
"181 117 CURVE",
"144 117 OFFCURVE",
"115 124 OFFCURVE",
"98 137 CURVE",
"50 43 LINE",
"58 15 OFFCURVE",
"91 0 OFFCURVE",
"146 0 CURVE"
);
},
{
closed = 1;
nodes = (
"0 -495 LINE",
"0 818 LINE",
"512 818 LINE",
"512 -495 LINE"
);
}
);
};
components = (
{
alignment = -1;
name = _part.phlv.belly.teeth;
transform = "{1, 0, 0, 1, 146, 0}";
},
{
alignment = -1;
name = _part.phlv.part.phlv.keheh_ending;
transform = "{1, 0, 0, 1, 2, 0}";
}
);
layerId = "10A83A34-2C0B-4EA0-95B7-223E3205B8BF";
width = 512;
}
);
},
{
glyphname = "ain-ar.init.BL";
layers = (
{
anchors = (
{
name = "#entry";
position = "{132, 0}";
},
{
name = "#exit";
position = "{0, 0}";
}
);
background = {
paths = (
{
closed = 1;
nodes = (
"3 78 OFFCURVE",
"0 29 OFFCURVE",
"0 0 CURVE",
"141 0 OFFCURVE",
"227 142 OFFCURVE",
"227 245 CURVE SMOOTH",
"227 297 OFFCURVE",
"207 348 OFFCURVE",
"179 416 CURVE",
"167 416 LINE",
"119 323 LINE",
"142 277 OFFCURVE",
"178 189 OFFCURVE",
"168 150 CURVE",
"134 129 OFFCURVE",
"79 117 OFFCURVE",
"35 117 CURVE"
);
},
{
closed = 1;
nodes = (
"0 -495 LINE",
"0 818 LINE",
"277 818 LINE",
"277 -495 LINE"
);
}
);
};
layerId = "10A83A34-2C0B-4EA0-95B7-223E3205B8BF";
paths = (
{
closed = 1;
nodes = (
"3 78 OFFCURVE",
"0 29 OFFCURVE",
"0 0 CURVE",
"141 0 OFFCURVE",
"227 142 OFFCURVE",
"227 245 CURVE SMOOTH",
"227 297 OFFCURVE",
"207 348 OFFCURVE",
"179 416 CURVE",
"167 416 LINE",
"119 323 LINE",
"142 277 OFFCURVE",
"178 189 OFFCURVE",
"168 150 CURVE",
"134 129 OFFCURVE",
"79 117 OFFCURVE",
"35 117 CURVE"
);
}
);
width = 277;
}
);
},
{
color = 4;
glyphname = "dad-ar.medi.LL.LR";
layers = (
{
background = {
paths = (
{
closed = 1;
nodes = (
"13 -153 OFFCURVE",
"2 -192 OFFCURVE",
"0 -231 CURVE",
"152 -231 OFFCURVE",
"306 -176 OFFCURVE",
"374 -99 CURVE SMOOTH",
"400 -69 OFFCURVE",
"419 -20 OFFCURVE",
"419 17 CURVE SMOOTH",
"419 95 OFFCURVE",
"377 114 OFFCURVE",
"287 134 CURVE SMOOTH",
"122 170 LINE",
"115 108 OFFCURVE",
"144 57 OFFCURVE",
"215 38 CURVE SMOOTH",
"286 19 OFFCURVE",
"370 18 OFFCURVE",
"376 -32 CURVE",
"288 -85 OFFCURVE",
"153 -114 OFFCURVE",
"35 -114 CURVE"
);
},
{
closed = 1;
nodes = (
"151 158 LINE",
"163 209 OFFCURVE",
"266 299 OFFCURVE",
"347 299 CURVE SMOOTH",
"375 299 OFFCURVE",
"382 286 OFFCURVE",
"382 265 CURVE",
"394 265 LINE",
"429 330 OFFCURVE",
"445 416 OFFCURVE",
"374 416 CURVE SMOOTH",
"284 416 OFFCURVE",
"167 312 OFFCURVE",
"136 225 CURVE SMOOTH",
"130 208 OFFCURVE",
"124 187 OFFCURVE",
"122 170 CURVE"
);
},
{
closed = 1;
nodes = (
"306 -134 LINE",
"339 -193 OFFCURVE",
"404 -231 OFFCURVE",
"509 -231 CURVE",
"545 -192 OFFCURVE",
"553 -153 OFFCURVE",
"544 -114 CURVE",
"466 -114 OFFCURVE",
"409 -97 OFFCURVE",
"373 -65 CURVE"
);
},
{
closed = 1;
nodes = (
"0 -495 LINE",
"0 818 LINE",
"509 818 LINE",
"509 -495 LINE"
);
}
);
};
components = (
{
alignment = -1;
name = _part.phlv.lower.connector;
transform = "{1, 0, 0, 1, 472, 0}";
},
{
alignment = -1;
name = "dad-ar.init.LL";
}
);
layerId = "10A83A34-2C0B-4EA0-95B7-223E3205B8BF";
width = 538;
}
);
},
{
color = 4;
glyphname = "dad-ar.init.LL";
layers = (
{
anchors = (
{
name = "#entry";
position = "{443, 0}";
}
);
background = {
paths = (
{
closed = 1;
nodes = (
"13 -153 OFFCURVE",
"2 -192 OFFCURVE",
"0 -231 CURVE",
"152 -231 OFFCURVE",
"306 -176 OFFCURVE",
"374 -99 CURVE SMOOTH",
"400 -69 OFFCURVE",
"419 -20 OFFCURVE",
"419 17 CURVE SMOOTH",
"419 95 OFFCURVE",
"377 114 OFFCURVE",
"287 134 CURVE SMOOTH",
"122 170 LINE",
"115 108 OFFCURVE",
"144 57 OFFCURVE",
"215 38 CURVE SMOOTH",
"286 19 OFFCURVE",
"370 18 OFFCURVE",
"376 -32 CURVE",
"288 -85 OFFCURVE",
"153 -114 OFFCURVE",
"35 -114 CURVE"
);
},
{
closed = 1;
nodes = (
"151 158 LINE",
"163 209 OFFCURVE",
"266 299 OFFCURVE",
"347 299 CURVE SMOOTH",
"375 299 OFFCURVE",
"382 286 OFFCURVE",
"382 265 CURVE",
"394 265 LINE",
"429 330 OFFCURVE",
"445 416 OFFCURVE",
"374 416 CURVE SMOOTH",
"284 416 OFFCURVE",
"167 312 OFFCURVE",
"136 225 CURVE SMOOTH",
"130 208 OFFCURVE",
"124 187 OFFCURVE",
"122 170 CURVE"
);
},
{
closed = 1;
nodes = (
"0 -495 LINE",
"0 818 LINE",
"474 818 LINE",
"474 -495 LINE"
);
}
);
};
components = (
{
name = _part.phlv.torreh.zeh;
transform = "{1, 0, 0, 1, 100, 0}";
}
);
layerId = "10A83A34-2C0B-4EA0-95B7-223E3205B8BF";
paths = (
{
closed = 1;
nodes = (
"13 -153 OFFCURVE",
"2 -192 OFFCURVE",
"0 -231 CURVE",
"153 -231 OFFCURVE",
"400 -174 OFFCURVE",
"477 -75 CURVE SMOOTH",
"500 -46 OFFCURVE",
"515 -6 OFFCURVE",
"515 37 CURVE SMOOTH",
"515 110 OFFCURVE",
"467 124 OFFCURVE",
"377 138 CURVE SMOOTH",
"325 146 OFFCURVE",
"272 154 OFFCURVE",
"222 170 CURVE",
"215 108 OFFCURVE",
"234 61 OFFCURVE",
"305 42 CURVE SMOOTH",
"376 23 OFFCURVE",
"461 28 OFFCURVE",
"475 -13 CURVE",
"364 -75 OFFCURVE",
"168 -114 OFFCURVE",
"35 -114 CURVE"
);
}
);
width = 574;
}
);
},
{
glyphname = "keheh-ar.fina.LR";
layers = (
{
background = {
paths = (
{
closed = 1;
nodes = (
"168 -192 OFFCURVE",
"179 -153 OFFCURVE",
"181 -114 CURVE",
"144 -114 OFFCURVE",
"115 -107 OFFCURVE",
"98 -94 CURVE",
"50 -188 LINE",
"58 -216 OFFCURVE",
"91 -231 OFFCURVE",
"146 -231 CURVE"
);
},
{
closed = 1;
nodes = (
"386 -35 LINE",
"325 -87 OFFCURVE",
"252 -114 OFFCURVE",
"181 -114 CURVE",
"146 -231 LINE",
"219 -231 OFFCURVE",
"322 -196 OFFCURVE",
"369 -123 CURVE"
);
},
{
closed = 1;
nodes = (
"369 -123 LINE",
"403 -71 OFFCURVE",
"430 1 OFFCURVE",
"430 88 CURVE",
"381 26 LINE",
"381 -10 OFFCURVE",
"376 -40 OFFCURVE",
"370 -53 CURVE"
);
},
{
closed = 1;
nodes = (
"397 37 OFFCURVE",
"414 57 OFFCURVE",
"430 88 CURVE",
"430 236 OFFCURVE",
"373 416 OFFCURVE",
"286 416 CURVE SMOOTH",
"208 416 OFFCURVE",
"119 229 OFFCURVE",
"119 140 CURVE SMOOTH",
"119 53 OFFCURVE",
"161 7 OFFCURVE",
"243 7 CURVE SMOOTH",
"297 7 OFFCURVE",
"348 27 OFFCURVE",
"389 56 CURVE",
"380 149 LINE",
"343 135 OFFCURVE",
"294 124 OFFCURVE",
"251 124 CURVE SMOOTH",
"197 124 OFFCURVE",
"170 138 OFFCURVE",
"158 170 CURVE",
"168 217 OFFCURVE",
"218 299 OFFCURVE",
"259 299 CURVE SMOOTH",
"337 299 OFFCURVE",
"381 120 OFFCURVE",
"381 26 CURVE"
);
},
{
closed = 1;
nodes = (
"297 -134 LINE",
"330 -193 OFFCURVE",
"395 -231 OFFCURVE",
"500 -231 CURVE",
"536 -192 OFFCURVE",
"544 -153 OFFCURVE",
"535 -114 CURVE",
"457 -114 OFFCURVE",
"400 -97 OFFCURVE",
"364 -65 CURVE"
);
},
{
closed = 1;
nodes = (
"0 -495 LINE",
"0 818 LINE",
"500 818 LINE",
"500 -495 LINE"
);
}
);
};
components = (
{
alignment = -1;
name = _part.phlv.lower.connector;
transform = "{1, 0, 0, 1, 434, 0}";
},
{
alignment = -1;
name = "keheh-ar";
}
);
layerId = "10A83A34-2C0B-4EA0-95B7-223E3205B8BF";
width = 500;
}
);
},
{
glyphname = "lam-ar.medi.LL.LR";
layers = (
{
background = {
paths = (
{
closed = 1;
nodes = (
"13 -153 OFFCURVE",
"2 -192 OFFCURVE",
"0 -231 CURVE",
"152 -231 OFFCURVE",
"306 -176 OFFCURVE",
"374 -99 CURVE SMOOTH",
"410 -58 OFFCURVE",
"452 18 OFFCURVE",
"452 87 CURVE SMOOTH",
"452 229 OFFCURVE",
"367 323 OFFCURVE",
"247 479 CURVE SMOOTH",
"170 579 OFFCURVE",
"85 704 OFFCURVE",
"85 818 CURVE",
"57 818 LINE",
"48 741 LINE SMOOTH",
"35 628 OFFCURVE",
"87 545 OFFCURVE",
"165 442 CURVE SMOOTH",
"297 266 OFFCURVE",
"427 122 OFFCURVE",
"378 -31 CURVE",
"290 -85 OFFCURVE",
"154 -114 OFFCURVE",
"35 -114 CURVE"
);
},
{
closed = 1;
nodes = (
"263 -207 OFFCURVE",
"333 -231 OFFCURVE",
"415 -231 CURVE",
"447 -192 OFFCURVE",
"458 -153 OFFCURVE",
"450 -114 CURVE",
"398 -114 OFFCURVE",
"334 -106 OFFCURVE",
"287 -84 CURVE",
"239 -178 LINE"
);
},
{
closed = 1;
nodes = (
"0 -495 LINE",
"0 818 LINE",
"415 818 LINE",
"415 -495 LINE"
);
}
);
};
components = (
{
name = "lam-ar.init";
}
);
layerId = "10A83A34-2C0B-4EA0-95B7-223E3205B8BF";
paths = (
{
closed = 1;
nodes = (
"263 -207 OFFCURVE",
"333 -231 OFFCURVE",
"415 -231 CURVE",
"447 -192 OFFCURVE",
"458 -153 OFFCURVE",
"450 -114 CURVE",
"398 -114 OFFCURVE",
"334 -106 OFFCURVE",
"287 -84 CURVE",
"239 -178 LINE"
);
}
);
width = 415;
}
);
},
{
glyphname = "lam-ar.init.BL";
layers = (
{
background = {
paths = (
{
closed = 1;
nodes = (
"13 78 OFFCURVE",
"2 39 OFFCURVE",
"0 0 CURVE",
"83 0 OFFCURVE",
"159 42 OFFCURVE",
"202 108 CURVE SMOOTH",
"236 160 OFFCURVE",
"253 213 OFFCURVE",
"253 257 CURVE SMOOTH",
"253 336 OFFCURVE",
"232 372 OFFCURVE",
"150 479 CURVE SMOOTH",
"73 580 OFFCURVE",
"-12 704 OFFCURVE",
"-12 818 CURVE",
"-40 818 LINE",
"-49 741 LINE SMOOTH",
"-62 628 OFFCURVE",
"-9 545 OFFCURVE",
"68 442 CURVE SMOOTH",
"150 333 OFFCURVE",
"232 254 OFFCURVE",
"205 170 CURVE",
"154 135 OFFCURVE",
"89 117 OFFCURVE",
"35 117 CURVE"
);
},
{
closed = 1;
nodes = (
"0 -495 LINE",
"0 818 LINE",
"303 818 LINE",
"303 -495 LINE"
);
}
);
};
components = (
{
name = _part.phlv.lamedh.tail;
}
);
layerId = "10A83A34-2C0B-4EA0-95B7-223E3205B8BF";
width = 303;
}
);
},
{
glyphname = "meem-ar.init.BL";
layers = (
{
background = {
paths = (
{
closed = 1;
nodes = (
"111 46 LINE",
"111 163 OFFCURVE",
"265 299 OFFCURVE",
"353 299 CURVE SMOOTH",
"381 299 OFFCURVE",
"388 286 OFFCURVE",
"388 265 CURVE",
"400 265 LINE",
"435 330 OFFCURVE",
"448 416 OFFCURVE",
"380 416 CURVE SMOOTH",
"272 416 OFFCURVE",
"68 199 OFFCURVE",
"68 7 CURVE"
);
},
{
closed = 1;
nodes = (
"68 7 LINE",
"68 -89 OFFCURVE",
"96 -231 OFFCURVE",
"224 -231 CURVE SMOOTH",
"377 -231 OFFCURVE",
"449 -62 OFFCURVE",
"459 37 CURVE SMOOTH",
"465 99 OFFCURVE",
"447 134 OFFCURVE",
"380 134 CURVE SMOOTH",
"303 134 OFFCURVE",
"149 117 OFFCURVE",
"35 117 CURVE",
"13 78 OFFCURVE",
"2 39 OFFCURVE",
"0 0 CURVE",
"102 0 OFFCURVE",
"277 17 OFFCURVE",
"367 17 CURVE SMOOTH",
"403 17 OFFCURVE",
"418 4 OFFCURVE",
"423 -16 CURVE",
"403 -70 OFFCURVE",
"321 -114 OFFCURVE",
"246 -114 CURVE SMOOTH",
"147 -114 OFFCURVE",
"111 -44 OFFCURVE",
"111 46 CURVE"
);
},
{
closed = 1;
nodes = (
"0 -495 LINE",
"0 818 LINE",
"510 818 LINE",
"510 -495 LINE"
);
}
);
};
components = (
{
alignment = -1;
name = _part.phlv.head.meeminit;
transform = "{1, 0, 0, 1, -77, 0}";
},
{
alignment = -1;
name = _part.phlv.meemdowr.leftjoining;
transform = "{1, 0, 0, 1, -97, 0}";
}
);
layerId = "10A83A34-2C0B-4EA0-95B7-223E3205B8BF";
width = 510;
}
);
},
{
color = 4;
glyphname = "theh-ar.medi.LL";
layers = (
{
anchors = (
{
name = top;
position = "{525, 416}";
}
);
background = {
paths = (
{
closed = 1;
nodes = (
"823 87 LINE",
"845 25 OFFCURVE",
"895 0 OFFCURVE",
"951 0 CURVE",
"983 39 OFFCURVE",
"994 78 OFFCURVE",
"986 117 CURVE",
"928 117 OFFCURVE",
"888 129 OFFCURVE",
"870 158 CURVE"
);
},
{
closed = 1;
nodes = (
"400 -96 LINE",
"470 26 OFFCURVE",
"463 160 OFFCURVE",
"412 293 CURVE SMOOTH",
"384 365 OFFCURVE",
"337 416 OFFCURVE",
"298 416 CURVE SMOOTH",
"264 416 OFFCURVE",
"250 401 OFFCURVE",
"213 301 CURVE SMOOTH",
"199 263 OFFCURVE",
"213 208 OFFCURVE",
"266 208 CURVE SMOOTH",
"295 208 OFFCURVE",
"317 222 OFFCURVE",
"332 243 CURVE",
"382 174 OFFCURVE",
"416 13 OFFCURVE",
"380 -62 CURVE"
);
},
{
closed = 1;
nodes = (
"392 -49 LINE",
"321 -90 OFFCURVE",
"206 -114 OFFCURVE",
"111 -114 CURVE",
"76 -231 LINE",
"230 -231 OFFCURVE",
"354 -176 OFFCURVE",
"400 -96 CURVE"
);
},
{
closed = 1;
nodes = (
"296 -134 LINE",
"329 -193 OFFCURVE",
"394 -231 OFFCURVE",
"499 -231 CURVE",
"535 -192 OFFCURVE",
"543 -153 OFFCURVE",
"534 -114 CURVE",
"456 -114 OFFCURVE",
"399 -97 OFFCURVE",
"363 -65 CURVE"
);
},
{
closed = 1;
nodes = (
"823 -96 LINE",
"893 26 OFFCURVE",
"886 160 OFFCURVE",
"835 293 CURVE SMOOTH",
"807 365 OFFCURVE",
"760 416 OFFCURVE",
"721 416 CURVE SMOOTH",
"687 416 OFFCURVE",
"673 401 OFFCURVE",
"636 301 CURVE SMOOTH",
"622 263 OFFCURVE",
"636 208 OFFCURVE",
"689 208 CURVE SMOOTH",
"718 208 OFFCURVE",
"740 222 OFFCURVE",
"755 243 CURVE",
"805 174 OFFCURVE",
"839 13 OFFCURVE",
"803 -62 CURVE"
);
},
{
closed = 1;
nodes = (
"815 -49 LINE",
"744 -90 OFFCURVE",
"629 -114 OFFCURVE",
"534 -114 CURVE",
"499 -231 LINE",
"653 -231 OFFCURVE",
"777 -176 OFFCURVE",
"823 -96 CURVE"
);
},
{
closed = 1;
nodes = (
"76 -495 LINE",
"76 818 LINE",
"922 818 LINE",
"922 -495 LINE"
);
}
);
};
components = (
{
alignment = -1;
name = _part.phlv.right.connector;
transform = "{1, 0, 0, 1, 498, 0}";
},
{
alignment = -1;
name = "theh-ar.init.LL";
}
);
layerId = "10A83A34-2C0B-4EA0-95B7-223E3205B8BF";
width = 951;
}
);
rightMetricsKey = _right.connector;
},
{
color = 4;
glyphname = "theh-ar.medi.LL.LR";
layers = (
{
anchors = (
{
name = top;
position = "{525, 416}";
}
);
background = {
paths = (
{
closed = 1;
nodes = (
"719 -134 LINE",
"752 -193 OFFCURVE",
"817 -231 OFFCURVE",
"922 -231 CURVE",
"958 -192 OFFCURVE",
"966 -153 OFFCURVE",
"957 -114 CURVE",
"879 -114 OFFCURVE",
"822 -97 OFFCURVE",
"786 -65 CURVE"
);
},
{
closed = 1;
nodes = (
"400 -96 LINE",
"470 26 OFFCURVE",
"463 160 OFFCURVE",
"412 293 CURVE SMOOTH",
"384 365 OFFCURVE",
"337 416 OFFCURVE",
"298 416 CURVE SMOOTH",
"264 416 OFFCURVE",
"250 401 OFFCURVE",
"213 301 CURVE SMOOTH",
"199 263 OFFCURVE",
"213 208 OFFCURVE",
"266 208 CURVE SMOOTH",
"295 208 OFFCURVE",
"317 222 OFFCURVE",
"332 243 CURVE",
"382 174 OFFCURVE",
"416 13 OFFCURVE",
"380 -62 CURVE"
);
},
{
closed = 1;
nodes = (
"392 -49 LINE",
"321 -90 OFFCURVE",
"206 -114 OFFCURVE",
"111 -114 CURVE",
"76 -231 LINE",
"230 -231 OFFCURVE",
"354 -176 OFFCURVE",
"400 -96 CURVE"
);
},
{
closed = 1;
nodes = (
"296 -134 LINE",
"329 -193 OFFCURVE",
"394 -231 OFFCURVE",
"499 -231 CURVE",
"535 -192 OFFCURVE",
"543 -153 OFFCURVE",
"534 -114 CURVE",
"456 -114 OFFCURVE",
"399 -97 OFFCURVE",
"363 -65 CURVE"
);
},
{
closed = 1;
nodes = (
"823 -96 LINE",
"893 26 OFFCURVE",
"886 160 OFFCURVE",
"835 293 CURVE SMOOTH",
"807 365 OFFCURVE",
"760 416 OFFCURVE",
"721 416 CURVE SMOOTH",
"687 416 OFFCURVE",
"673 401 OFFCURVE",
"636 301 CURVE SMOOTH",
"622 263 OFFCURVE",
"636 208 OFFCURVE",
"689 208 CURVE SMOOTH",
"718 208 OFFCURVE",
"740 222 OFFCURVE",
"755 243 CURVE",
"805 174 OFFCURVE",
"839 13 OFFCURVE",
"803 -62 CURVE"
);
},
{
closed = 1;
nodes = (
"815 -49 LINE",
"744 -90 OFFCURVE",
"629 -114 OFFCURVE",
"534 -114 CURVE",
"499 -231 LINE",
"653 -231 OFFCURVE",
"777 -176 OFFCURVE",
"823 -96 CURVE"
);
},
{
closed = 1;
nodes = (
"76 -495 LINE",
"76 818 LINE",
"922 818 LINE",
"922 -495 LINE"
);
}
);
};
components = (
{
alignment = -1;
name = _part.phlv.lower.connector;
transform = "{1, 0, 0, 1, 856, 0}";
},
{
alignment = -1;
name = "theh-ar.init.LL";
}
);
layerId = "10A83A34-2C0B-4EA0-95B7-223E3205B8BF";
width = 922;
}
);
},
{
color = 4;
glyphname = "theh-ar.init.LL";
layers = (
{
anchors = (
{
name = "#entry";
position = "{853, 0}";
},
{
name = top;
position = "{525, 416}";
}
);
background = {
paths = (
{
closed = 1;
nodes = (
"400 -96 LINE",
"470 26 OFFCURVE",
"463 160 OFFCURVE",
"412 293 CURVE SMOOTH",
"384 365 OFFCURVE",
"337 416 OFFCURVE",
"298 416 CURVE SMOOTH",
"264 416 OFFCURVE",
"250 401 OFFCURVE",
"213 301 CURVE SMOOTH",
"199 263 OFFCURVE",
"213 208 OFFCURVE",
"266 208 CURVE SMOOTH",
"295 208 OFFCURVE",
"317 222 OFFCURVE",
"332 243 CURVE",
"382 174 OFFCURVE",
"416 13 OFFCURVE",
"380 -62 CURVE"
);
},
{
closed = 1;
nodes = (
"392 -49 LINE",
"321 -90 OFFCURVE",
"206 -114 OFFCURVE",
"111 -114 CURVE",
"76 -231 LINE",
"230 -231 OFFCURVE",
"354 -176 OFFCURVE",
"400 -96 CURVE"
);
},
{
closed = 1;
nodes = (
"296 -134 LINE",
"329 -193 OFFCURVE",
"394 -231 OFFCURVE",
"499 -231 CURVE",
"535 -192 OFFCURVE",
"543 -153 OFFCURVE",
"534 -114 CURVE",
"456 -114 OFFCURVE",
"399 -97 OFFCURVE",
"363 -65 CURVE"
);
},
{
closed = 1;
nodes = (
"823 -96 LINE",
"893 26 OFFCURVE",
"886 160 OFFCURVE",
"835 293 CURVE SMOOTH",
"807 365 OFFCURVE",
"760 416 OFFCURVE",
"721 416 CURVE SMOOTH",
"687 416 OFFCURVE",
"673 401 OFFCURVE",
"636 301 CURVE SMOOTH",
"622 263 OFFCURVE",
"636 208 OFFCURVE",
"689 208 CURVE SMOOTH",
"718 208 OFFCURVE",
"740 222 OFFCURVE",
"755 243 CURVE",
"805 174 OFFCURVE",
"839 13 OFFCURVE",
"803 -62 CURVE"
);
},
{
closed = 1;
nodes = (
"815 -49 LINE",
"744 -90 OFFCURVE",
"629 -114 OFFCURVE",
"534 -114 CURVE",
"499 -231 LINE",
"653 -231 OFFCURVE",
"777 -176 OFFCURVE",
"823 -96 CURVE"
);
},
{
closed = 1;
nodes = (
"76 -495 LINE",
"76 818 LINE",
"924 818 LINE",
"924 -495 LINE"
);
}
);
};
components = (
{
alignment = -1;
name = _part.phlv.head.seen;
transform = "{1, 0, 0, 1, 499, 0}";
},
{
alignment = -1;
name = _part.phlv.lower.connector;
transform = "{1, 0, 0, 1, 433, 0}";
},
{
alignment = -1;
name = "jeem-ar.init.LL";
}
);
layerId = "10A83A34-2C0B-4EA0-95B7-223E3205B8BF";
width = 924;
}
);
},
{
glyphname = "peh-ar.fina.LR";
layers = (
{
background = {
paths = (
{
closed = 1;
nodes = (
"50 -136 OFFCURVE",
"116 -231 OFFCURVE",
"282 -231 CURVE",
"304 -192 OFFCURVE",
"315 -153 OFFCURVE",
"317 -114 CURVE",
"174 -114 OFFCURVE",
"102 -56 OFFCURVE",
"102 41 CURVE",
"85 33 OFFCURVE",
"67 15 OFFCURVE",
"50 -13 CURVE"
);
},
{
closed = 1;
nodes = (
"102 41 LINE",
"102 142 OFFCURVE",
"202 279 OFFCURVE",
"263 279 CURVE SMOOTH",
"310 279 OFFCURVE",
"340 214 OFFCURVE",
"349 191 CURVE",
"326 168 OFFCURVE",
"264 144 OFFCURVE",
"197 144 CURVE SMOOTH",
"163 144 OFFCURVE",
"139 151 OFFCURVE",
"122 164 CURVE",
"74 70 LINE",
"82 42 OFFCURVE",
"122 27 OFFCURVE",
"162 27 CURVE SMOOTH",
"238 27 OFFCURVE",
"292 66 OFFCURVE",
"322 100 CURVE SMOOTH",
"351 134 OFFCURVE",
"391 194 OFFCURVE",
"391 248 CURVE SMOOTH",
"391 307 OFFCURVE",
"360 396 OFFCURVE",
"308 396 CURVE SMOOTH",
"234 396 OFFCURVE",
"50 134 OFFCURVE",
"50 -13 CURVE"
);
},
{
closed = 1;
nodes = (
"0 -495 LINE",
"0 818 LINE",
"282 818 LINE",
"282 -495 LINE"
);
}
);
};
components = (
{
alignment = -1;
name = _part.phlv.peh.ending;
}
);
layerId = "10A83A34-2C0B-4EA0-95B7-223E3205B8BF";
width = 282;
}
);
},
{
glyphname = "sad-ar.fina.LR";
layers = (
{
background = {
paths = (
{
closed = 1;
nodes = (
"991 -134 LINE",
"1024 -193 OFFCURVE",
"1089 -231 OFFCURVE",
"1194 -231 CURVE",
"1230 -192 OFFCURVE",
"1238 -153 OFFCURVE",
"1229 -114 CURVE",
"1151 -114 OFFCURVE",
"1094 -97 OFFCURVE",
"1058 -65 CURVE"
);
},
{
closed = 1;
nodes = (
"784 -153 OFFCURVE",
"773 -192 OFFCURVE",
"771 -231 CURVE",
"925 -231 OFFCURVE",
"1049 -176 OFFCURVE",
"1095 -96 CURVE SMOOTH",
"1165 26 OFFCURVE",
"1155 149 OFFCURVE",
"1126 270 CURVE SMOOTH",
"1091 416 LINE",
"1079 416 LINE",
"1024 307 LINE",
"1060 174 LINE SMOOTH",
"1088 71 OFFCURVE",
"1102 4 OFFCURVE",
"1079 -54 CURVE",
"1007 -92 OFFCURVE",
"897 -114 OFFCURVE",
"806 -114 CURVE"
);
},
{
closed = 1;
nodes = (
"168 39 OFFCURVE",
"179 78 OFFCURVE",
"181 117 CURVE",
"144 117 OFFCURVE",
"115 124 OFFCURVE",
"98 137 CURVE",
"50 43 LINE",
"58 15 OFFCURVE",
"91 0 OFFCURVE",
"146 0 CURVE"
);
},
{
closed = 1;
nodes = (
"278 87 LINE",
"300 25 OFFCURVE",
"350 0 OFFCURVE",
"406 0 CURVE",
"438 39 OFFCURVE",
"449 78 OFFCURVE",
"441 117 CURVE",
"383 117 OFFCURVE",
"343 129 OFFCURVE",
"325 158 CURVE"
);
},
{
closed = 1;
nodes = (
"149 78 OFFCURVE",
"146 29 OFFCURVE",
"146 0 CURVE",
"287 0 OFFCURVE",
"373 142 OFFCURVE",
"373 245 CURVE SMOOTH",
"373 297 OFFCURVE",
"353 348 OFFCURVE",
"325 416 CURVE",
"313 416 LINE",
"265 323 LINE",
"288 277 OFFCURVE",
"324 189 OFFCURVE",
"314 150 CURVE",
"280 129 OFFCURVE",
"225 117 OFFCURVE",
"181 117 CURVE"
);
},
{
closed = 1;
nodes = (
"803 -192 OFFCURVE",
"814 -153 OFFCURVE",
"806 -114 CURVE",
"663 -114 OFFCURVE",
"600 -56 OFFCURVE",
"600 41 CURVE SMOOTH",
"600 126 OFFCURVE",
"632 192 OFFCURVE",
"682 283 CURVE",
"653 292 LINE",
"589 193 OFFCURVE",
"539 87 OFFCURVE",
"539 -13 CURVE SMOOTH",
"539 -136 OFFCURVE",
"605 -231 OFFCURVE",
"771 -231 CURVE"
);
},
{
closed = 1;
nodes = (
"405 0 LINE",
"481 0 OFFCURVE",
"561 39 OFFCURVE",
"617 162 CURVE",
"614 176 LINE",
"556 128 OFFCURVE",
"484 117 OFFCURVE",
"440 117 CURVE"
);
},
{
closed = 1;
nodes = (
"0 -495 LINE",
"0 818 LINE",
"1194 818 LINE",
"1194 -495 LINE"
);
}
);
};
components = (
{
alignment = -1;
name = _part.phlv.lower.connector;
transform = "{1, 0, 0, 1, 1128, 0}";
},
{
alignment = -1;
name = "sad-ar";
}
);
layerId = "10A83A34-2C0B-4EA0-95B7-223E3205B8BF";
width = 1194;
}
);
},
{
glyphname = "sad-ar.medi.LL";
layers = (
{
background = {
paths = (
{
closed = 1;
nodes = (
"293 121 OFFCURVE",
"335 30 OFFCURVE",
"308 -54 CURVE",
"236 -92 OFFCURVE",
"126 -114 OFFCURVE",
"35 -114 CURVE",
"0 -231 LINE",
"154 -231 OFFCURVE",
"277 -175 OFFCURVE",
"324 -96 CURVE SMOOTH",
"357 -41 OFFCURVE",
"368 20 OFFCURVE",
"376 66 CURVE",
"338 51 LINE",
"355 21 OFFCURVE",
"385 0 OFFCURVE",
"430 0 CURVE",
"462 39 OFFCURVE",
"473 78 OFFCURVE",
"465 117 CURVE",
"381 117 OFFCURVE",
"361 181 OFFCURVE",
"324 271 CURVE SMOOTH",
"286 362 LINE",
"274 362 LINE",
"226 269 LINE"
);
},
{
closed = 1;
nodes = (
"828 -192 OFFCURVE",
"839 -153 OFFCURVE",
"831 -114 CURVE",
"688 -114 OFFCURVE",
"625 -56 OFFCURVE",
"625 41 CURVE SMOOTH",
"625 126 OFFCURVE",
"657 192 OFFCURVE",
"707 283 CURVE",
"678 292 LINE",
"614 193 OFFCURVE",
"564 87 OFFCURVE",
"564 -13 CURVE SMOOTH",
"564 -136 OFFCURVE",
"630 -231 OFFCURVE",
"796 -231 CURVE"
);
},
{
closed = 1;
nodes = (
"430 0 LINE",
"506 0 OFFCURVE",
"586 39 OFFCURVE",
"642 162 CURVE",
"639 176 LINE",
"581 128 OFFCURVE",
"509 117 OFFCURVE",
"465 117 CURVE"
);
},
{
closed = 1;
nodes = (
"1089 121 OFFCURVE",
"1131 30 OFFCURVE",
"1104 -54 CURVE",
"1032 -92 OFFCURVE",
"922 -114 OFFCURVE",
"831 -114 CURVE",
"796 -231 LINE",
"950 -231 OFFCURVE",
"1073 -175 OFFCURVE",
"1120 -96 CURVE SMOOTH",
"1153 -41 OFFCURVE",
"1164 20 OFFCURVE",
"1172 66 CURVE",
"1134 51 LINE",
"1151 21 OFFCURVE",
"1181 0 OFFCURVE",
"1226 0 CURVE",
"1258 39 OFFCURVE",
"1269 78 OFFCURVE",
"1261 117 CURVE",
"1177 117 OFFCURVE",
"1157 181 OFFCURVE",
"1120 271 CURVE SMOOTH",
"1082 362 LINE",
"1070 362 LINE",
"1022 269 LINE"
);
},
{
closed = 1;
nodes = (
"0 -495 LINE",
"0 818 LINE",
"1226 818 LINE",
"1226 -495 LINE"
);
}
);
};
components = (
{
alignment = -1;
name = _part.phlv.peh.vasl;
transform = "{1, 0, 0, 1, 796, 0}";
},
{
alignment = -1;
name = _part.phlv.belly.teeth;
transform = "{1, 0, 0, 1, 430, 0}";
},
{
alignment = -1;
name = _part.phlv.peh.vasl;
}
);
layerId = "10A83A34-2C0B-4EA0-95B7-223E3205B8BF";
width = 1226;
}
);
},
{
glyphname = "sad-ar.medi.LR";
layers = (
{
background = {
paths = (
{
closed = 1;
nodes = (
"132 87 LINE",
"154 25 OFFCURVE",
"204 0 OFFCURVE",
"260 0 CURVE",
"292 39 OFFCURVE",
"303 78 OFFCURVE",
"295 117 CURVE",
"237 117 OFFCURVE",
"197 129 OFFCURVE",
"179 158 CURVE"
);
},
{
closed = 1;
nodes = (
"3 78 OFFCURVE",
"0 29 OFFCURVE",
"0 0 CURVE",
"141 0 OFFCURVE",
"227 142 OFFCURVE",
"227 245 CURVE SMOOTH",
"227 297 OFFCURVE",
"207 348 OFFCURVE",
"179 416 CURVE",
"167 416 LINE",
"119 323 LINE",
"142 277 OFFCURVE",
"178 189 OFFCURVE",
"168 150 CURVE",
"134 129 OFFCURVE",
"79 117 OFFCURVE",
"35 117 CURVE"
);
},
{
closed = 1;
nodes = (
"657 -192 OFFCURVE",
"668 -153 OFFCURVE",
"660 -114 CURVE",
"517 -114 OFFCURVE",
"454 -56 OFFCURVE",
"454 41 CURVE SMOOTH",
"454 126 OFFCURVE",
"486 192 OFFCURVE",
"536 283 CURVE",
"507 292 LINE",
"443 193 OFFCURVE",
"393 87 OFFCURVE",
"393 -13 CURVE SMOOTH",
"393 -136 OFFCURVE",
"459 -231 OFFCURVE",
"625 -231 CURVE"
);
},
{
closed = 1;
nodes = (
"259 0 LINE",
"335 0 OFFCURVE",
"415 39 OFFCURVE",
"471 162 CURVE",
"468 176 LINE",
"410 128 OFFCURVE",
"338 117 OFFCURVE",
"294 117 CURVE"
);
},
{
closed = 1;
nodes = (
"638 -153 OFFCURVE",
"627 -192 OFFCURVE",
"625 -231 CURVE",
"779 -231 OFFCURVE",
"903 -176 OFFCURVE",
"949 -96 CURVE SMOOTH",
"1019 26 OFFCURVE",
"1009 149 OFFCURVE",
"980 270 CURVE SMOOTH",
"945 416 LINE",
"933 416 LINE",
"878 307 LINE",
"914 174 LINE SMOOTH",
"942 71 OFFCURVE",
"956 4 OFFCURVE",
"933 -54 CURVE",
"861 -92 OFFCURVE",
"751 -114 OFFCURVE",
"660 -114 CURVE"
);
},
{
closed = 1;
nodes = (
"845 -134 LINE",
"878 -193 OFFCURVE",
"943 -231 OFFCURVE",
"1048 -231 CURVE",
"1084 -192 OFFCURVE",
"1092 -153 OFFCURVE",
"1083 -114 CURVE",
"1005 -114 OFFCURVE",
"948 -97 OFFCURVE",
"912 -65 CURVE"
);
},
{
closed = 1;
nodes = (
"0 -495 LINE",
"0 818 LINE",
"1048 818 LINE",
"1048 -495 LINE"
);
}
);
};
components = (
{
alignment = -1;
name = _part.phlv.lower.connector;
transform = "{1, 0, 0, 1, 982, 0}";
},
{
alignment = -1;
name = "sad-ar.init";
}
);
layerId = "10A83A34-2C0B-4EA0-95B7-223E3205B8BF";
width = 1048;
}
);
},
{
glyphname = "sad-ar.medi.LL.LR";
layers = (
{
background = {
paths = (
{
closed = 1;
nodes = (
"293 121 OFFCURVE",
"335 30 OFFCURVE",
"308 -54 CURVE",
"236 -92 OFFCURVE",
"126 -114 OFFCURVE",
"35 -114 CURVE",
"0 -231 LINE",
"154 -231 OFFCURVE",
"277 -175 OFFCURVE",
"324 -96 CURVE SMOOTH",
"357 -41 OFFCURVE",
"368 20 OFFCURVE",
"376 66 CURVE",
"338 51 LINE",
"355 21 OFFCURVE",
"385 0 OFFCURVE",
"430 0 CURVE",
"462 39 OFFCURVE",
"473 78 OFFCURVE",
"465 117 CURVE",
"381 117 OFFCURVE",
"361 181 OFFCURVE",
"324 271 CURVE SMOOTH",
"286 362 LINE",
"274 362 LINE",
"226 269 LINE"
);
},
{
closed = 1;
nodes = (
"828 -192 OFFCURVE",
"839 -153 OFFCURVE",
"831 -114 CURVE",
"688 -114 OFFCURVE",
"625 -56 OFFCURVE",
"625 41 CURVE SMOOTH",
"625 126 OFFCURVE",
"657 192 OFFCURVE",
"707 283 CURVE",
"678 292 LINE",
"614 193 OFFCURVE",
"564 87 OFFCURVE",
"564 -13 CURVE SMOOTH",
"564 -136 OFFCURVE",
"630 -231 OFFCURVE",
"796 -231 CURVE"
);
},
{
closed = 1;
nodes = (
"430 0 LINE",
"506 0 OFFCURVE",
"586 39 OFFCURVE",
"642 162 CURVE",
"639 176 LINE",
"581 128 OFFCURVE",
"509 117 OFFCURVE",
"465 117 CURVE"
);
},
{
closed = 1;
nodes = (
"809 -153 OFFCURVE",
"798 -192 OFFCURVE",
"796 -231 CURVE",
"950 -231 OFFCURVE",
"1074 -176 OFFCURVE",
"1120 -96 CURVE SMOOTH",
"1190 26 OFFCURVE",
"1180 149 OFFCURVE",
"1151 270 CURVE SMOOTH",
"1116 416 LINE",
"1104 416 LINE",
"1049 307 LINE",
"1085 174 LINE SMOOTH",
"1113 71 OFFCURVE",
"1127 4 OFFCURVE",
"1104 -54 CURVE",
"1032 -92 OFFCURVE",
"922 -114 OFFCURVE",
"831 -114 CURVE"
);
},
{
closed = 1;
nodes = (
"1016 -134 LINE",
"1049 -193 OFFCURVE",
"1114 -231 OFFCURVE",
"1219 -231 CURVE",
"1255 -192 OFFCURVE",
"1263 -153 OFFCURVE",
"1254 -114 CURVE",
"1176 -114 OFFCURVE",
"1119 -97 OFFCURVE",
"1083 -65 CURVE"
);
},
{
closed = 1;
nodes = (
"0 -495 LINE",
"0 818 LINE",
"1219 818 LINE",
"1219 -495 LINE"
);
}
);
};
components = (
{
alignment = -1;
name = _part.phlv.lower.connector;
transform = "{1, 0, 0, 1, 1153, 0}";
},
{
alignment = -1;
name = "sad-ar.init.LL";
}
);
layerId = "10A83A34-2C0B-4EA0-95B7-223E3205B8BF";
width = 1219;
}
);
},
{
glyphname = "sad-ar.init.LL";
layers = (
{
anchors = (
{
name = "#entry";
position = "{1152, 0}";
}
);
background = {
paths = (
{
closed = 1;
nodes = (
"293 121 OFFCURVE",
"335 30 OFFCURVE",
"308 -54 CURVE",
"236 -92 OFFCURVE",
"126 -114 OFFCURVE",
"35 -114 CURVE",
"0 -231 LINE",
"154 -231 OFFCURVE",
"277 -175 OFFCURVE",
"324 -96 CURVE SMOOTH",
"357 -41 OFFCURVE",
"368 20 OFFCURVE",
"376 66 CURVE",
"338 51 LINE",
"355 21 OFFCURVE",
"385 0 OFFCURVE",
"430 0 CURVE",
"462 39 OFFCURVE",
"473 78 OFFCURVE",
"465 117 CURVE",
"381 117 OFFCURVE",
"361 181 OFFCURVE",
"324 271 CURVE SMOOTH",
"286 362 LINE",
"274 362 LINE",
"226 269 LINE"
);
},
{
closed = 1;
nodes = (
"828 -192 OFFCURVE",
"839 -153 OFFCURVE",
"831 -114 CURVE",
"688 -114 OFFCURVE",
"625 -56 OFFCURVE",
"625 41 CURVE SMOOTH",
"625 126 OFFCURVE",
"657 192 OFFCURVE",
"707 283 CURVE",
"678 292 LINE",
"614 193 OFFCURVE",
"564 87 OFFCURVE",
"564 -13 CURVE SMOOTH",
"564 -136 OFFCURVE",
"630 -231 OFFCURVE",
"796 -231 CURVE"
);
},
{
closed = 1;
nodes = (
"430 0 LINE",
"506 0 OFFCURVE",
"586 39 OFFCURVE",
"642 162 CURVE",
"639 176 LINE",
"581 128 OFFCURVE",
"509 117 OFFCURVE",
"465 117 CURVE"
);
},
{
closed = 1;
nodes = (
"809 -153 OFFCURVE",
"798 -192 OFFCURVE",
"796 -231 CURVE",
"950 -231 OFFCURVE",
"1074 -176 OFFCURVE",
"1120 -96 CURVE SMOOTH",
"1190 26 OFFCURVE",
"1180 149 OFFCURVE",
"1151 270 CURVE SMOOTH",
"1116 416 LINE",
"1104 416 LINE",
"1049 307 LINE",
"1085 174 LINE SMOOTH",
"1113 71 OFFCURVE",
"1127 4 OFFCURVE",
"1104 -54 CURVE",
"1032 -92 OFFCURVE",
"922 -114 OFFCURVE",
"831 -114 CURVE"
);
},
{
closed = 1;
nodes = (
"0 -495 LINE",
"0 818 LINE",
"1223 818 LINE",
"1223 -495 LINE"
);
}
);
};
components = (
{
alignment = -1;
name = _part.phlv.head.peh;
transform = "{1, 0, 0, 1, 514, 0}";
},
{
alignment = -1;
name = _part.phlv.belly.teeth;
transform = "{1, 0, 0, 1, 430, 0}";
},
{
alignment = -1;
name = _part.phlv.peh.vasl;
}
);
layerId = "10A83A34-2C0B-4EA0-95B7-223E3205B8BF";
width = 1223;
}
);
},
{
glyphname = "teh-ar.fina.BR";
layers = (
{
background = {
paths = (
{
closed = 1;
nodes = (
"165 100 LINE",
"196 47 OFFCURVE",
"230 0 OFFCURVE",
"327 0 CURVE SMOOTH",
"430 0 OFFCURVE",
"528 40 OFFCURVE",
"579 99 CURVE SMOOTH",
"609 132 OFFCURVE",
"636 184 OFFCURVE",
"636 238 CURVE SMOOTH",
"636 312 OFFCURVE",
"526 416 OFFCURVE",
"462 416 CURVE SMOOTH",
"360 416 OFFCURVE",
"302 213 OFFCURVE",
"271 110 CURVE",
"309 99 LINE",
"332 187 OFFCURVE",
"367 299 OFFCURVE",
"425 299 CURVE SMOOTH",
"477 299 OFFCURVE",
"556 235 OFFCURVE",
"594 191 CURVE",
"565 162 OFFCURVE",
"474 117 OFFCURVE",
"362 117 CURVE SMOOTH",
"257 117 OFFCURVE",
"214 146 OFFCURVE",
"171 226 CURVE"
);
},
{
closed = 1;
nodes = (
"171 226 LINE",
"153 261 OFFCURVE",
"133 306 OFFCURVE",
"110 362 CURVE",
"98 362 LINE",
"50 269 LINE",
"118 140 LINE SMOOTH",
"154 71 OFFCURVE",
"161 20 OFFCURVE",
"161 -45 CURVE SMOOTH",
"161 -100 OFFCURVE",
"150 -165 OFFCURVE",
"137 -235 CURVE",
"166 -244 LINE",
"199 -149 OFFCURVE",
"220 -70 OFFCURVE",
"218 0 CURVE SMOOTH",
"216 57 LINE"
);
},
{
closed = 1;
nodes = (
"550 87 LINE",
"572 25 OFFCURVE",
"622 0 OFFCURVE",
"678 0 CURVE",
"710 39 OFFCURVE",
"721 78 OFFCURVE",
"713 117 CURVE",
"655 117 OFFCURVE",
"615 129 OFFCURVE",
"597 158 CURVE"
);
},
{
closed = 1;
nodes = (
"0 -495 LINE",
"0 818 LINE",
"678 818 LINE",
"678 -495 LINE"
);
}
);
};
components = (
{
alignment = -1;
name = _part.phlv.right.connector;
transform = "{1, 0, 0, 1, 225, 0}";
},
{
alignment = -1;
name = "teh-ar";
}
);
layerId = "10A83A34-2C0B-4EA0-95B7-223E3205B8BF";
width = 678;
}
);
},
{
glyphname = "seen-ar.fina.LR";
layers = (
{
anchors = (
{
name = top;
position = "{742, 416}";
}
);
background = {
paths = (
{
closed = 1;
nodes = (
"731 -134 LINE",
"764 -193 OFFCURVE",
"829 -231 OFFCURVE",
"934 -231 CURVE",
"970 -192 OFFCURVE",
"978 -153 OFFCURVE",
"969 -114 CURVE",
"891 -114 OFFCURVE",
"834 -97 OFFCURVE",
"798 -65 CURVE"
);
},
{
closed = 1;
nodes = (
"544 -192 OFFCURVE",
"555 -153 OFFCURVE",
"547 -114 CURVE",
"404 -114 OFFCURVE",
"341 -56 OFFCURVE",
"341 41 CURVE SMOOTH",
"341 126 OFFCURVE",
"373 192 OFFCURVE",
"423 283 CURVE",
"394 292 LINE",
"330 193 OFFCURVE",
"280 87 OFFCURVE",
"280 -13 CURVE SMOOTH",
"280 -136 OFFCURVE",
"346 -231 OFFCURVE",
"512 -231 CURVE"
);
},
{
closed = 1;
nodes = (
"146 0 LINE",
"222 0 OFFCURVE",
"302 39 OFFCURVE",
"358 162 CURVE",
"355 176 LINE",
"297 128 OFFCURVE",
"225 117 OFFCURVE",
"181 117 CURVE"
);
},
{
closed = 1;
nodes = (
"168 39 OFFCURVE",
"179 78 OFFCURVE",
"181 117 CURVE",
"144 117 OFFCURVE",
"115 124 OFFCURVE",
"98 137 CURVE",
"50 43 LINE",
"58 15 OFFCURVE",
"91 0 OFFCURVE",
"146 0 CURVE"
);
},
{
closed = 1;
nodes = (
"836 -96 LINE",
"906 26 OFFCURVE",
"899 160 OFFCURVE",
"848 293 CURVE SMOOTH",
"820 365 OFFCURVE",
"773 416 OFFCURVE",
"734 416 CURVE SMOOTH",
"700 416 OFFCURVE",
"686 401 OFFCURVE",
"649 301 CURVE SMOOTH",
"635 263 OFFCURVE",
"649 208 OFFCURVE",
"702 208 CURVE SMOOTH",
"731 208 OFFCURVE",
"753 222 OFFCURVE",
"768 243 CURVE",
"818 174 OFFCURVE",
"852 13 OFFCURVE",
"816 -62 CURVE"
);
},
{
closed = 1;
nodes = (
"828 -49 LINE",
"757 -90 OFFCURVE",
"642 -114 OFFCURVE",
"547 -114 CURVE",
"512 -231 LINE",
"666 -231 OFFCURVE",
"790 -176 OFFCURVE",
"836 -96 CURVE"
);
},
{
closed = 1;
nodes = (
"0 -495 LINE",
"0 818 LINE",
"934 818 LINE",
"934 -495 LINE"
);
}
);
};
components = (
{
alignment = -1;
name = _part.phlv.lower.connector;
transform = "{1, 0, 0, 1, 868, 0}";
},
{
alignment = -1;
name = "seen-ar";
}
);
layerId = "10A83A34-2C0B-4EA0-95B7-223E3205B8BF";
width = 934;
}
);
},
{
glyphname = "seen-ar.medi.LR";
layers = (
{
background = {
paths = (
{
closed = 1;
nodes = (
"398 -192 OFFCURVE",
"409 -153 OFFCURVE",
"401 -114 CURVE",
"258 -114 OFFCURVE",
"195 -56 OFFCURVE",
"195 41 CURVE SMOOTH",
"195 126 OFFCURVE",
"227 192 OFFCURVE",
"277 283 CURVE",
"248 292 LINE",
"184 193 OFFCURVE",
"134 87 OFFCURVE",
"134 -13 CURVE SMOOTH",
"134 -136 OFFCURVE",
"200 -231 OFFCURVE",
"366 -231 CURVE"
);
},
{
closed = 1;
nodes = (
"0 0 LINE",
"76 0 OFFCURVE",
"156 39 OFFCURVE",
"212 162 CURVE",
"209 176 LINE",
"151 128 OFFCURVE",
"79 117 OFFCURVE",
"35 117 CURVE"
);
},
{
closed = 1;
nodes = (
"690 -96 LINE",
"760 26 OFFCURVE",
"753 160 OFFCURVE",
"702 293 CURVE SMOOTH",
"674 365 OFFCURVE",
"627 416 OFFCURVE",
"588 416 CURVE SMOOTH",
"554 416 OFFCURVE",
"540 401 OFFCURVE",
"503 301 CURVE SMOOTH",
"489 263 OFFCURVE",
"503 208 OFFCURVE",
"556 208 CURVE SMOOTH",
"585 208 OFFCURVE",
"607 222 OFFCURVE",
"622 243 CURVE",
"672 174 OFFCURVE",
"706 13 OFFCURVE",
"670 -62 CURVE"
);
},
{
closed = 1;
nodes = (
"682 -49 LINE",
"611 -90 OFFCURVE",
"496 -114 OFFCURVE",
"401 -114 CURVE",
"366 -231 LINE",
"520 -231 OFFCURVE",
"644 -176 OFFCURVE",
"690 -96 CURVE"
);
},
{
closed = 1;
nodes = (
"586 -134 LINE",
"619 -193 OFFCURVE",
"684 -231 OFFCURVE",
"789 -231 CURVE",
"825 -192 OFFCURVE",
"833 -153 OFFCURVE",
"824 -114 CURVE",
"746 -114 OFFCURVE",
"689 -97 OFFCURVE",
"653 -65 CURVE"
);
},
{
closed = 1;
nodes = (
"0 -495 LINE",
"0 818 LINE",
"789 818 LINE",
"789 -495 LINE"
);
}
);
};
components = (
{
alignment = -1;
name = _part.phlv.lower.connector;
transform = "{1, 0, 0, 1, 723, 0}";
},
{
alignment = -1;
name = "seen-ar.init";
}
);
layerId = "10A83A34-2C0B-4EA0-95B7-223E3205B8BF";
width = 789;
}
);
},
{
glyphname = "sheen-ar.fina.LR";
layers = (
{
background = {
paths = (
{
closed = 1;
nodes = (
"168 39 OFFCURVE",
"179 78 OFFCURVE",
"181 117 CURVE",
"144 117 OFFCURVE",
"115 124 OFFCURVE",
"98 137 CURVE",
"50 43 LINE",
"58 15 OFFCURVE",
"91 0 OFFCURVE",
"146 0 CURVE"
);
},
{
closed = 1;
nodes = (
"278 87 LINE",
"300 25 OFFCURVE",
"350 0 OFFCURVE",
"406 0 CURVE",
"438 39 OFFCURVE",
"449 78 OFFCURVE",
"441 117 CURVE",
"383 117 OFFCURVE",
"343 129 OFFCURVE",
"325 158 CURVE"
);
},
{
closed = 1;
nodes = (
"149 78 OFFCURVE",
"146 29 OFFCURVE",
"146 0 CURVE",
"287 0 OFFCURVE",
"373 142 OFFCURVE",
"373 245 CURVE SMOOTH",
"373 297 OFFCURVE",
"353 348 OFFCURVE",
"325 416 CURVE",
"313 416 LINE",
"265 323 LINE",
"288 277 OFFCURVE",
"324 189 OFFCURVE",
"314 150 CURVE",
"280 129 OFFCURVE",
"225 117 OFFCURVE",
"181 117 CURVE"
);
},
{
closed = 1;
nodes = (
"803 -192 OFFCURVE",
"814 -153 OFFCURVE",
"806 -114 CURVE",
"663 -114 OFFCURVE",
"600 -56 OFFCURVE",
"600 41 CURVE SMOOTH",
"600 126 OFFCURVE",
"632 192 OFFCURVE",
"682 283 CURVE",
"653 292 LINE",
"589 193 OFFCURVE",
"539 87 OFFCURVE",
"539 -13 CURVE SMOOTH",
"539 -136 OFFCURVE",
"605 -231 OFFCURVE",
"771 -231 CURVE"
);
},
{
closed = 1;
nodes = (
"405 0 LINE",
"481 0 OFFCURVE",
"561 39 OFFCURVE",
"617 162 CURVE",
"614 176 LINE",
"556 128 OFFCURVE",
"484 117 OFFCURVE",
"440 117 CURVE"
);
},
{
closed = 1;
nodes = (
"1095 -96 LINE",
"1165 26 OFFCURVE",
"1158 160 OFFCURVE",
"1107 293 CURVE SMOOTH",
"1079 365 OFFCURVE",
"1032 416 OFFCURVE",
"993 416 CURVE SMOOTH",
"959 416 OFFCURVE",
"945 401 OFFCURVE",
"908 301 CURVE SMOOTH",
"894 263 OFFCURVE",
"908 208 OFFCURVE",
"961 208 CURVE SMOOTH",
"990 208 OFFCURVE",
"1012 222 OFFCURVE",
"1027 243 CURVE",
"1077 174 OFFCURVE",
"1111 13 OFFCURVE",
"1075 -62 CURVE"
);
},
{
closed = 1;
nodes = (
"1087 -49 LINE",
"1016 -90 OFFCURVE",
"901 -114 OFFCURVE",
"806 -114 CURVE",
"771 -231 LINE",
"925 -231 OFFCURVE",
"1049 -176 OFFCURVE",
"1095 -96 CURVE"
);
},
{
closed = 1;
nodes = (
"991 -134 LINE",
"1024 -193 OFFCURVE",
"1089 -231 OFFCURVE",
"1194 -231 CURVE",
"1230 -192 OFFCURVE",
"1238 -153 OFFCURVE",
"1229 -114 CURVE",
"1151 -114 OFFCURVE",
"1094 -97 OFFCURVE",
"1058 -65 CURVE"
);
},
{
closed = 1;
nodes = (
"0 -495 LINE",
"0 818 LINE",
"1194 818 LINE",
"1194 -495 LINE"
);
}
);
};
components = (
{
alignment = -1;
name = _part.phlv.lower.connector;
transform = "{1, 0, 0, 1, 1128, 0}";
},
{
alignment = -1;
name = "sheen-ar";
}
);
layerId = "10A83A34-2C0B-4EA0-95B7-223E3205B8BF";
width = 1194;
}
);
},
